<?xml version="1.0" encoding="UTF-8" standalone="no"?>
<svg width="115px" height="111px" viewBox="0 0 115 111" version="1.1" xmlns="http://www.w3.org/2000/svg" xmlns:xlink="http://www.w3.org/1999/xlink" xmlns:sketch="http://www.bohemiancoding.com/sketch/ns">
    <!-- Generator: Sketch 3.3.1 (12005) - http://www.bohemiancoding.com/sketch -->
    <title>Gray</title>
    <desc>Created with Sketch.</desc>
    <defs></defs>
    <g id="Page-1" stroke="none" stroke-width="1" fill="none" fill-rule="evenodd" sketch:type="MSPage">
        <g id="Gray" sketch:type="MSArtboardGroup" fill="#D8D8D8">
            <g id="Group" sketch:type="MSLayerGroup" transform="translate(5.000000, 5.000000)">
                <circle id="Oval-99" sketch:type="MSShapeGroup" cx="103.75" cy="99.75" r="0.75"></circle>
                <circle id="Oval-98" sketch:type="MSShapeGroup" cx="92.75" cy="99.75" r="0.75"></circle>
                <circle id="Oval-97" sketch:type="MSShapeGroup" cx="80.75" cy="99.75" r="0.75"></circle>
                <circle id="Oval-96" sketch:type="MSShapeGroup" cx="69.75" cy="99.75" r="0.75"></circle>
                <circle id="Oval-95" sketch:type="MSShapeGroup" cx="57.75" cy="99.75" r="0.75"></circle>
                <circle id="Oval-94" sketch:type="MSShapeGroup" cx="46.75" cy="99.75" r="0.75"></circle>
                <circle id="Oval-93" sketch:type="MSShapeGroup" cx="34.75" cy="99.75" r="0.75"></circle>
                <circle id="Oval-92" sketch:type="MSShapeGroup" cx="23.75" cy="99.75" r="0.75"></circle>
                <circle id="Oval-91" sketch:type="MSShapeGroup" cx="11.75" cy="99.75" r="0.75"></circle>
                <circle id="Oval-90" sketch:type="MSShapeGroup" cx="0.75" cy="99.75" r="0.75"></circle>
                <circle id="Oval-89" sketch:type="MSShapeGroup" cx="103.75" cy="88.75" r="0.75"></circle>
                <circle id="Oval-88" sketch:type="MSShapeGroup" cx="92.75" cy="88.75" r="0.75"></circle>
                <circle id="Oval-87" sketch:type="MSShapeGroup" cx="80.75" cy="88.75" r="0.75"></circle>
                <circle id="Oval-86" sketch:type="MSShapeGroup" cx="69.75" cy="88.75" r="0.75"></circle>
                <circle id="Oval-85" sketch:type="MSShapeGroup" cx="57.75" cy="88.75" r="0.75"></circle>
                <circle id="Oval-84" sketch:type="MSShapeGroup" cx="46.75" cy="88.75" r="0.75"></circle>
                <circle id="Oval-83" sketch:type="MSShapeGroup" cx="34.75" cy="88.75" r="0.75"></circle>
                <circle id="Oval-82" sketch:type="MSShapeGroup" cx="23.75" cy="88.75" r="0.75"></circle>
                <circle id="Oval-81" sketch:type="MSShapeGroup" cx="11.75" cy="88.75" r="0.75"></circle>
                <circle id="Oval-80" sketch:type="MSShapeGroup" cx="0.75" cy="88.75" r="0.75"></circle>
                <circle id="Oval-79" sketch:type="MSShapeGroup" cx="103.75" cy="77.75" r="0.75"></circle>
                <circle id="Oval-78" sketch:type="MSShapeGroup" cx="92.75" cy="77.75" r="0.75"></circle>
                <circle id="Oval-77" sketch:type="MSShapeGroup" cx="80.75" cy="77.75" r="0.75"></circle>
                <circle id="Oval-76" sketch:type="MSShapeGroup" cx="69.75" cy="77.75" r="0.75"></circle>
                <circle id="Oval-75" sketch:type="MSShapeGroup" cx="57.75" cy="77.75" r="0.75"></circle>
                <circle id="Oval-74" sketch:type="MSShapeGroup" cx="46.75" cy="77.75" r="0.75"></circle>
                <circle id="Oval-73" sketch:type="MSShapeGroup" cx="34.75" cy="77.75" r="0.75"></circle>
                <circle id="Oval-72" sketch:type="MSShapeGroup" cx="23.75" cy="77.75" r="0.75"></circle>
                <circle id="Oval-71" sketch:type="MSShapeGroup" cx="11.75" cy="77.75" r="0.75"></circle>
                <circle id="Oval-70" sketch:type="MSShapeGroup" cx="0.75" cy="77.75" r="0.75"></circle>
                <circle id="Oval-69" sketch:type="MSShapeGroup" cx="103.75" cy="66.75" r="0.75"></circle>
                <circle id="Oval-68" sketch:type="MSShapeGroup" cx="92.75" cy="66.75" r="0.75"></circle>
                <circle id="Oval-67" sketch:type="MSShapeGroup" cx="80.75" cy="66.75" r="0.75"></circle>
                <circle id="Oval-66" sketch:type="MSShapeGroup" cx="69.75" cy="66.75" r="0.75"></circle>
                <circle id="Oval-65" sketch:type="MSShapeGroup" cx="57.75" cy="66.75" r="0.75"></circle>
                <circle id="Oval-64" sketch:type="MSShapeGroup" cx="46.75" cy="66.75" r="0.75"></circle>
                <circle id="Oval-63" sketch:type="MSShapeGroup" cx="34.75" cy="66.75" r="0.75"></circle>
                <circle id="Oval-62" sketch:type="MSShapeGroup" cx="23.75" cy="66.75" r="0.75"></circle>
                <circle id="Oval-61" sketch:type="MSShapeGroup" cx="11.75" cy="66.75" r="0.75"></circle>
                <circle id="Oval-60" sketch:type="MSShapeGroup" cx="0.75" cy="66.75" r="0.75"></circle>
                <circle id="Oval-59" sketch:type="MSShapeGroup" cx="103.75" cy="55.75" r="0.75"></circle>
                <circle id="Oval-58" sketch:type="MSShapeGroup" cx="92.75" cy="55.75" r="0.75"></circle>
                <circle id="Oval-57" sketch:type="MSShapeGroup" cx="80.75" cy="55.75" r="0.75"></circle>
                <circle id="Oval-56" sketch:type="MSShapeGroup" cx="69.75" cy="55.75" r="0.75"></circle>
                <circle id="Oval-55" sketch:type="MSShapeGroup" cx="57.75" cy="55.75" r="0.75"></circle>
                <circle id="Oval-54" sketch:type="MSShapeGroup" cx="46.75" cy="55.75" r="0.75"></circle>
                <circle id="Oval-53" sketch:type="MSShapeGroup" cx="34.75" cy="55.75" r="0.75"></circle>
                <circle id="Oval-52" sketch:type="MSShapeGroup" cx="23.75" cy="55.75" r="0.75"></circle>
                <circle id="Oval-51" sketch:type="MSShapeGroup" cx="11.75" cy="55.75" r="0.75"></circle>
                <circle id="Oval-50" sketch:type="MSShapeGroup" cx="0.75" cy="55.75" r="0.75"></circle>
                <circle id="Oval-49" sketch:type="MSShapeGroup" cx="103.75" cy="44.75" r="0.75"></circle>
                <circle id="Oval-48" sketch:type="MSShapeGroup" cx="92.75" cy="44.75" r="0.75"></circle>
                <circle id="Oval-47" sketch:type="MSShapeGroup" cx="80.75" cy="44.75" r="0.75"></circle>
                <circle id="Oval-46" sketch:type="MSShapeGroup" cx="69.75" cy="44.75" r="0.75"></circle>
                <circle id="Oval-45" sketch:type="MSShapeGroup" cx="57.75" cy="44.75" r="0.75"></circle>
                <circle id="Oval-44" sketch:type="MSShapeGroup" cx="46.75" cy="44.75" r="0.75"></circle>
                <circle id="Oval-43" sketch:type="MSShapeGroup" cx="34.75" cy="44.75" r="0.75"></circle>
                <circle id="Oval-42" sketch:type="MSShapeGroup" cx="23.75" cy="44.75" r="0.75"></circle>
                <circle id="Oval-41" sketch:type="MSShapeGroup" cx="11.75" cy="44.75" r="0.75"></circle>
                <circle id="Oval-40" sketch:type="MSShapeGroup" cx="0.75" cy="44.75" r="0.75"></circle>
                <circle id="Oval-39" sketch:type="MSShapeGroup" cx="103.75" cy="33.75" r="0.75"></circle>
                <circle id="Oval-38" sketch:type="MSShapeGroup" cx="92.75" cy="33.75" r="0.75"></circle>
                <circle id="Oval-37" sketch:type="MSShapeGroup" cx="80.75" cy="33.75" r="0.75"></circle>
                <circle id="Oval-36" sketch:type="MSShapeGroup" cx="69.75" cy="33.75" r="0.75"></circle>
                <circle id="Oval-35" sketch:type="MSShapeGroup" cx="57.75" cy="33.75" r="0.75"></circle>
                <circle id="Oval-34" sketch:type="MSShapeGroup" cx="46.75" cy="33.75" r="0.75"></circle>
                <circle id="Oval-33" sketch:type="MSShapeGroup" cx="34.75" cy="33.75" r="0.75"></circle>
                <circle id="Oval-32" sketch:type="MSShapeGroup" cx="23.75" cy="33.75" r="0.75"></circle>
                <circle id="Oval-31" sketch:type="MSShapeGroup" cx="11.75" cy="33.75" r="0.75"></circle>
                <circle id="Oval-30" sketch:type="MSShapeGroup" cx="0.75" cy="33.75" r="0.75"></circle>
                <circle id="Oval-29" sketch:type="MSShapeGroup" cx="103.75" cy="22.75" r="0.75"></circle>
                <circle id="Oval-28" sketch:type="MSShapeGroup" cx="92.75" cy="22.75" r="0.75"></circle>
                <circle id="Oval-27" sketch:type="MSShapeGroup" cx="80.75" cy="22.75" r="0.75"></circle>
                <circle id="Oval-26" sketch:type="MSShapeGroup" cx="69.75" cy="22.75" r="0.75"></circle>
                <circle id="Oval-25" sketch:type="MSShapeGroup" cx="57.75" cy="22.75" r="0.75"></circle>
                <circle id="Oval-24" sketch:type="MSShapeGroup" cx="46.75" cy="22.75" r="0.75"></circle>
                <circle id="Oval-23" sketch:type="MSShapeGroup" cx="34.75" cy="22.75" r="0.75"></circle>
                <circle id="Oval-22" sketch:type="MSShapeGroup" cx="23.75" cy="22.75" r="0.75"></circle>
                <circle id="Oval-21" sketch:type="MSShapeGroup" cx="11.75" cy="22.75" r="0.75"></circle>
                <circle id="Oval-20" sketch:type="MSShapeGroup" cx="0.75" cy="22.75" r="0.75"></circle>
                <circle id="Oval-19" sketch:type="MSShapeGroup" cx="103.75" cy="11.75" r="0.75"></circle>
                <circle id="Oval-18" sketch:type="MSShapeGroup" cx="92.75" cy="11.75" r="0.75"></circle>
                <circle id="Oval-17" sketch:type="MSShapeGroup" cx="80.75" cy="11.75" r="0.75"></circle>
                <circle id="Oval-16" sketch:type="MSShapeGroup" cx="69.75" cy="11.75" r="0.75"></circle>
                <circle id="Oval-15" sketch:type="MSShapeGroup" cx="57.75" cy="11.75" r="0.75"></circle>
                <circle id="Oval-14" sketch:type="MSShapeGroup" cx="46.75" cy="11.75" r="0.75"></circle>
                <circle id="Oval-13" sketch:type="MSShapeGroup" cx="34.75" cy="11.75" r="0.75"></circle>
                <circle id="Oval-12" sketch:type="MSShapeGroup" cx="23.75" cy="11.75" r="0.75"></circle>
                <circle id="Oval-11" sketch:type="MSShapeGroup" cx="11.75" cy="11.75" r="0.75"></circle>
                <circle id="Oval-10" sketch:type="MSShapeGroup" cx="0.75" cy="11.75" r="0.75"></circle>
                <circle id="Oval-9" sketch:type="MSShapeGroup" cx="103.75" cy="0.75" r="0.75"></circle>
                <circle id="Oval-8" sketch:type="MSShapeGroup" cx="92.75" cy="0.75" r="0.75"></circle>
                <circle id="Oval-7" sketch:type="MSShapeGroup" cx="80.75" cy="0.75" r="0.75"></circle>
                <circle id="Oval-6" sketch:type="MSShapeGroup" cx="69.75" cy="0.75" r="0.75"></circle>
                <circle id="Oval-5" sketch:type="MSShapeGroup" cx="57.75" cy="0.75" r="0.75"></circle>
                <circle id="Oval-4" sketch:type="MSShapeGroup" cx="46.75" cy="0.75" r="0.75"></circle>
                <circle id="Oval-3" sketch:type="MSShapeGroup" cx="34.75" cy="0.75" r="0.75"></circle>
                <circle id="Oval-2" sketch:type="MSShapeGroup" cx="23.75" cy="0.75" r="0.75"></circle>
                <circle id="Oval-1-Copy" sketch:type="MSShapeGroup" cx="11.75" cy="0.75" r="0.75"></circle>
                <circle id="Oval-1" sketch:type="MSShapeGroup" cx="0.75" cy="0.75" r="0.75"></circle>
            </g>
        </g>
    </g>
</svg>