<?xml version="1.0" encoding="UTF-8" standalone="no"?>
<svg width="30px" height="30px" viewBox="0 0 30 30" version="1.1" xmlns="http://www.w3.org/2000/svg" xmlns:xlink="http://www.w3.org/1999/xlink" xmlns:sketch="http://www.bohemiancoding.com/sketch/ns">
    <!-- Generator: Sketch 3.3.1 (12005) - http://www.bohemiancoding.com/sketch -->
    <title>Oval 70 + Oval 70 Copy 3 + Oval-1</title>
    <desc>Created with Sketch.</desc>
    <defs></defs>
    <g id="Page-1" stroke="none" stroke-width="1" fill="none" fill-rule="evenodd" sketch:type="MSPage">
        <g id="icon_512x512@2x" sketch:type="MSArtboardGroup" transform="translate(-497.000000, -497.000000)">
            <g id="Oval-70-+-Oval-70-Copy-3-+-Oval-1" sketch:type="MSLayerGroup" transform="translate(497.000000, 497.000000)">
                <circle id="Oval-70" fill="#FF2851" sketch:type="MSShapeGroup" cx="15" cy="15" r="15"></circle>
                <circle id="Oval-70-Copy-3" fill="#54C7FC" sketch:type="MSShapeGroup" cx="15" cy="15" r="12.5"></circle>
                <path d="M15,27.5 C21.9035594,27.5 27.5,21.9035594 27.5,15 C27.5,8.09644063 21.9035594,2.5 15,2.5 C8.09644063,2.5 2.5,8.09644063 2.5,15 C2.5,21.9035594 8.09644063,27.5 15,27.5 L15,27.5 L15,27.5 Z M23.6242538,14.5072349 C23.1903322,-0.14525395 17.3434711,18.8768639 13.2353283,15.5811978 C9.12718552,12.2855316 6.42915545,5.58153015 6.35559735,15.3962894 C6.28203925,25.2110488 10.9112496,20.0459346 14.2885668,17.0337512 C17.6658839,14.0215678 24.0581754,29.1597237 23.6242538,14.5072349 L23.6242538,14.5072349 L23.6242538,14.5072349 Z" id="Oval-1" fill="#FFCD00" sketch:type="MSShapeGroup"></path>
            </g>
        </g>
    </g>
</svg>