<?xml version="1.0" encoding="UTF-8" standalone="no"?>
<svg width="12px" height="12px" viewBox="0 0 52 52" version="1.1" xmlns="http://www.w3.org/2000/svg" xmlns:xlink="http://www.w3.org/1999/xlink" xmlns:sketch="http://www.bohemiancoding.com/sketch/ns">
    <!-- Generator: Sketch 3.3.2 (12043) - http://www.bohemiancoding.com/sketch -->
    <title>Oval 1 + Rectangle 20</title>
    <desc>Created with Sketch.</desc>
    <defs></defs>
    <g id="Page-1" stroke="none" stroke-width="1" fill="none" fill-rule="evenodd" sketch:type="MSPage">
        <g id="Artboard-11" sketch:type="MSArtboardGroup" transform="translate(-230.000000, -230.000000)">
            <g id="Oval-1-+-Rectangle-20" sketch:type="MSLayerGroup" transform="translate(231.000000, 231.000000)">
                <path d="M49.9990963,24.7851865 C49.8837208,11.0769742 38.7354434,0 25,0 C11.1928813,0 0,11.1928813 0,25 C0,38.8071187 11.1928813,50 25,50 L25,50 C38.8071187,50 50,38.8071187 50,25" id="Oval-1" stroke="#BFBFBF" stroke-width="1.5" sketch:type="MSShapeGroup"></path>
                <path d="M8.00176082,25.7380149 C7.85250844,45.061209 17.2231809,34.9155351 24.0597102,28.9987963 C30.8962395,23.0820576 43.8358262,52.8174692 42.9574611,24.0360386 C42.079096,-4.74539208 30.243596,32.6191657 21.9276938,26.1455906 L21.9276938,26.1455906 C13.6338934,19.6892208 8.17935913,6.5735031 8.00270808,25.6293515" id="Rectangle-20" fill="#D5D5D5" sketch:type="MSShapeGroup"></path>
            </g>
        </g>
    </g>
</svg>