<?xml version="1.0" standalone="no"?>
<!DOCTYPE svg PUBLIC "-//W3C//DTD SVG 1.1//EN" "http://www.w3.org/Graphics/SVG/1.1/DTD/svg11.dtd" >
<svg xmlns="http://www.w3.org/2000/svg">
<metadata>
Created by FontPrep 20130207 at Tue Jun 16 21:59:08 2015
 By Sammy C
Font software Copyright (c) 2012 Intel Corporation. Licensed under the Apache License, Version 2.0.  http://www.apache.org/licenses/LICENSE-2.0
</metadata>
<defs>
<font id="5f30e4e390f45fa3c56f4ef24f6761b5" horiz-adv-x='1024' >
  <font-face 
    font-family="ClearSans-Medium"
    font-weight="500"
    font-stretch="normal"
    units-per-em="2048"
    panose-1="2 11 6 3 3 2 2 2 3 4"
    ascent="1489"
    descent="-559"
    x-height="1049"
    cap-height="1384"
    bbox="-393 -629 2777 2136"
    underline-thickness="102"
    underline-position="-103"
    unicode-range="U+000D-FEFF"
  />
<missing-glyph horiz-adv-x="1022" 
d="M512 594l-332 -496h662zM569 682l332 -498v994zM123 186l330 496l-330 496v-992zM512 768l330 498h-662zM25 1362h972v-1362h-972v1362z" />
    <glyph glyph-name="f_f" unicode="ff" horiz-adv-x="1292" 
d="M428 1291q-31 -40 -31 -140v-102h224v-175h-224v-874h-215v874h-143v175h143v102q0 189 82 279t273 90q104 0 198 -33l-49 -187q-71 31 -149 31t-109 -40zM1073 1291q-31 -40 -31 -140v-102h224v-175h-224v-874h-215v874h-143v175h143v102q0 189 82 279t273 90
q104 0 198 -33l-49 -187q-71 31 -149 31t-109 -40z" />
    <glyph glyph-name="fi" unicode="fi" horiz-adv-x="1176" 
d="M428 1291q-31 -40 -31 -140v-102h224v-175h-224v-874h-215v874h-143v175h143v102q0 189 82 279t273 90q104 0 198 -33l-49 -187q-71 31 -149 31t-109 -40zM803 0v1049h215v-1049h-215zM1038 1324q0 -64 -32 -90t-100 -26t-96 30t-28 90t29 86q29 28 98 28t99 -27t30 -91z
" />
    <glyph glyph-name="fl" unicode="fl" horiz-adv-x="1184" 
d="M428 1291q-31 -40 -31 -140v-102h224v-175h-224v-874h-215v874h-143v175h143v102q0 189 82 279t273 90q104 0 198 -33l-49 -187q-71 31 -149 31t-109 -40zM807 0v1489h215v-1489h-215z" />
    <glyph glyph-name="f_f_i" unicode="ffi" horiz-adv-x="1821" 
d="M428 1291q-31 -40 -31 -140v-102h224v-175h-224v-874h-215v874h-143v175h143v102q0 189 82 279t273 90q104 0 198 -33l-49 -187q-71 31 -149 31t-109 -40zM1073 1291q-31 -40 -31 -140v-102h224v-175h-224v-874h-215v874h-143v175h143v102q0 189 82 279t273 90
q104 0 198 -33l-49 -187q-71 31 -149 31t-109 -40zM1448 0v1049h215v-1049h-215zM1683 1324q1 -64 -31 -90t-101 -26t-97 30t-27 90q0 60 29 86q29 28 98 28t99 -27t30 -91z" />
    <glyph glyph-name="f_f_l" unicode="ffl" horiz-adv-x="1829" 
d="M428 1291q-31 -40 -31 -140v-102h224v-175h-224v-874h-215v874h-143v175h143v102q0 189 82 279t273 90q104 0 198 -33l-49 -187q-71 31 -149 31t-109 -40zM1073 1291q-31 -40 -31 -140v-102h224v-175h-224v-874h-215v874h-143v175h143v102q0 189 82 279t273 90
q104 0 198 -33l-49 -187q-71 31 -149 31t-109 -40zM1452 0v1489h215v-1489h-215z" />
    <glyph glyph-name=".notdef" horiz-adv-x="1022" 
d="M512 594l-332 -496h662zM569 682l332 -498v994zM123 186l330 496l-330 496v-992zM512 768l330 498h-662zM25 1362h972v-1362h-972v1362z" />
    <glyph glyph-name=".null" horiz-adv-x="0" 
 />
    <glyph glyph-name="nonmarkingreturn" unicode="&#xd;" horiz-adv-x="522" 
 />
    <glyph glyph-name="NULL" horiz-adv-x="0" 
 />
    <glyph glyph-name="NULL" horiz-adv-x="0" 
 />
    <glyph glyph-name="space" unicode=" " horiz-adv-x="522" 
 />
    <glyph glyph-name="exclam" unicode="!" horiz-adv-x="569" 
d="M426 116q0 -130 -126 -130q-95 0 -127 32t-32 102t32.5 101t110.5 31t110 -31.5t32 -104.5zM377 420h-180l-33 964h239z" />
    <glyph glyph-name="quotedbl" unicode="&#x22;" horiz-adv-x="950" 
d="M354 803h-155l-43 581h241zM752 803h-156l-43 581h242z" />
    <glyph glyph-name="numbersign" unicode="#" horiz-adv-x="1425" 
d="M614 844l-82 -305h279l84 305h-281zM1221 539v-152h-289l-105 -387h-159l102 387h-278l-105 -387h-160l105 387h-246v152h285l84 305h-252v153h293l104 387h160l-105 -387h279l106 387h160l-104 -387h241v-153h-282l-82 -305h248z" />
    <glyph glyph-name="dollar" unicode="$" horiz-adv-x="1272" 
d="M920 424q0 102 -195 160v-336q136 13 165.5 69.5t29.5 106.5zM393 977q0 -57 46 -91t132 -59v299q-178 -12 -178 -149zM1028 173.5q-111 -90.5 -303 -103.5v-203h-154v201q-287 17 -424 233l172 111q63 -97 134.5 -127.5t117.5 -34.5v371q-211 51 -304 125t-93 221
q0 224 150.5 279t246.5 61v106h154v-106q274 -18 399 -226l-166 -110q-91 136 -233 153v-336q208 -51 311 -127.5t103 -236.5t-111 -250.5z" />
    <glyph glyph-name="percent" unicode="%" horiz-adv-x="2126" 
d="M478 680q46 0 78.5 16.5t52.5 51t29 89t9 130.5t-8.5 130.5t-28.5 89.5t-52 51.5t-79 16.5t-79 -17t-52 -52t-28.5 -89.5t-8.5 -129.5t8.5 -129.5t28.5 -89.5t52 -51.5t78 -16.5zM1644 125q46 0 79 16.5t53.5 51t29.5 89t9 170.5t-39.5 182t-130.5 66q-135 0 -151.5 -107
t-16.5 -181t8.5 -128t28.5 -89.5t52 -52.5t78 -17zM478 524q-196 0 -287 118t-91 325q0 320 139 383t241 63q195 0 287.5 -119t92.5 -327q0 -317 -140 -380t-242 -63zM584 -51l764 1487h200l-764 -1487h-200zM1645 858q380 0 380 -446q0 -319 -139.5 -381t-241.5 -62
q-195 0 -286.5 119.5t-91.5 323.5q0 321 139 383.5t240 62.5z" />
    <glyph glyph-name="ampersand" unicode="&#x26;" horiz-adv-x="1421" 
d="M340 376q0 -115 79.5 -170.5t202.5 -55.5t181 38.5t78 53.5l-338 395q-122 -78 -162.5 -136t-40.5 -125zM799 1147q0 39 -39.5 71.5t-97.5 32.5q-99 0 -138 -41.5t-39 -98.5q0 -58 33 -107.5t82 -108.5q163 99 181 156t18 96zM115 367q0 146 69 229.5t236 185.5
q-154 178 -154 319t96.5 226.5t277.5 85.5t278.5 -74.5t97.5 -201.5q0 -173 -116 -262.5t-175 -126.5l297 -351q78 100 117 250l192 -45q-55 -216 -178 -358l207 -244h-277l-82 98q-85 -61 -172 -94t-212 -33q-240 0 -371 108.5t-131 287.5z" />
    <glyph glyph-name="quotesingle" unicode="'" horiz-adv-x="553" 
d="M354 803h-155l-43 581h241z" />
    <glyph glyph-name="parenleft" unicode="(" horiz-adv-x="825" 
d="M336 561q0 -550 428 -956h-244q-295 328 -341 574t-46 382q0 533 387 959h244q-428 -409 -428 -959z" />
    <glyph glyph-name="parenright" unicode=")" horiz-adv-x="825" 
d="M489 561.5q0 550.5 -428 958.5h244q387 -431 387 -959q0 -529 -387 -956h-244q428 406 428 956.5z" />
    <glyph glyph-name="asterisk" unicode="*" horiz-adv-x="930" 
d="M795 868l-265 160l7 -264h-144l6 264l-264 -160l-74 123l283 150l-283 149l74 123l264 -158l-6 265h144l-9 -265l267 158l73 -125l-284 -147l284 -150z" />
    <glyph glyph-name="plus" unicode="+" horiz-adv-x="1427" 
d="M801 496v-478h-174v478h-480v174h480v479h174v-479h477v-174h-477z" />
    <glyph glyph-name="comma" unicode="," horiz-adv-x="569" 
d="M285 258q141 0 141 -150q0 -119 -37 -227.5t-86 -173.5h-139q62 92 78.5 176t17.5 105q-63 2 -91 33.5t-28 81.5q0 87 33.5 121t110.5 34z" />
    <glyph glyph-name="hyphen" unicode="-" horiz-adv-x="807" 
d="M92 420v213h623v-213h-623z" />
    <glyph glyph-name="period" unicode="." horiz-adv-x="569" 
d="M426 120q0 -134 -126 -134q-95 0 -127 33t-32 103t32.5 103t110.5 33t110 -32.5t32 -105.5z" />
    <glyph glyph-name="slash" unicode="/" horiz-adv-x="1014" 
d="M207 -299h-209l702 1819h211z" />
    <glyph glyph-name="zero" unicode="0" horiz-adv-x="1272" 
d="M915 690q0 268 -68.5 393t-212.5 125t-212 -127t-68 -393t68 -392t212 -126t212.5 126t68.5 394zM1031.5 145q-127.5 -176 -396.5 -176t-395.5 174t-126.5 546t127.5 546t395.5 174q269 0 396 -174.5t127 -544t-127.5 -545.5z" />
    <glyph glyph-name="one" unicode="1" horiz-adv-x="1272" 
d="M600 0v958h-336v160q198 12 277.5 67t115.5 199h174v-1384h-231z" />
    <glyph glyph-name="two" unicode="2" horiz-adv-x="1196" 
d="M119 1178q144 235 462 235t387.5 -139.5t69.5 -223.5q0 -235 -142 -394q-97 -109 -204.5 -204t-277.5 -239h669v-213h-960v215q561 476 616.5 603.5t55.5 188.5q0 103 -59.5 151t-157.5 48q-164 0 -269 -157z" />
    <glyph glyph-name="three" unicode="3" horiz-adv-x="1196" 
d="M1014 1075q0 -266 -279 -336q132 -11 217.5 -101.5t85.5 -246.5q0 -313 -194.5 -366.5t-292.5 -53.5q-175 0 -296 59.5t-171 153.5l190 127q90 -133 256 -133q208 0 237.5 87t29.5 143q0 221 -287 221h-113v200h97q136 0 206 55.5t70 144.5q0 177 -213 177
q-97 0 -160.5 -35t-109.5 -104l-191 129q145 217 477 217q217 0 329 -95.5t112 -242.5z" />
    <glyph glyph-name="four" unicode="4" horiz-adv-x="1272" 
d="M768 469v598l-475 -598h475zM991 268v-268h-223v268h-705v219l699 897h229v-915h180v-201h-180z" />
    <glyph glyph-name="five" unicode="5" horiz-adv-x="1196" 
d="M1071 450q0 -226 -136.5 -352.5t-393.5 -126.5q-322 0 -461 215l190 129q80 -137 267 -137q138 0 216 67t78 196t-80.5 191t-215.5 62t-230 -73h-143l80 763h766v-213h-578l-37 -319q95 43 205 43q219 0 346 -109.5t127 -335.5z" />
    <glyph glyph-name="six" unicode="6" horiz-adv-x="1196" 
d="M614 698q-138 0 -258 -82q0 -319 91.5 -381.5t188.5 -62.5t162.5 65t65.5 205q0 182 -93.5 219t-156.5 37zM362 799q145 100 328 100t295.5 -115t112.5 -338t-129.5 -349t-352.5 -126q-251 -2 -378 169.5t-127 605t203.5 550.5t343.5 117q255 0 391 -123l-138 -180
q-110 102 -241 102q-215 0 -257.5 -161t-50.5 -252z" />
    <glyph glyph-name="seven" unicode="7" horiz-adv-x="1272" 
d="M125 1171v213h1003v-172l-524 -1212h-260l528 1171h-747z" />
    <glyph glyph-name="eight" unicode="8" horiz-adv-x="1196" 
d="M864 368q0 91 -65 152t-201 125q-127 -52 -177.5 -99.5t-70.5 -89.5t-20 -91q0 -97 67 -152t201 -55q199 0 232.5 81t33.5 129zM836 1034q0 196 -240 195q-121 0 -178.5 -48.5t-57.5 -118.5t47.5 -123.5t190.5 -115.5q238 100 238 211zM1098 352q0 -183 -133.5 -282
t-366.5 -99q-370 0 -436 148.5t-66 260.5t73 206.5t206 148.5q-106 49 -176 122t-70 192q0 174 122 269t347 95q339 0 403 -137t64 -213q0 -126 -72.5 -198.5t-185.5 -131.5q147 -70 197 -126t72 -111.5t22 -143.5z" />
    <glyph glyph-name="nine" unicode="9" horiz-adv-x="1196" 
d="M330 946q0 -125 64.5 -193.5t192.5 -68.5t251 82q0 213 -55 329.5t-219 116.5t-199 -101.5t-35 -164.5zM530 483q-314 0 -374 170.5t-60 283.5q0 222 131 349t346 127q510 0 510 -655q0 -556 -203.5 -671.5t-347.5 -115.5q-267 0 -403 125l135 178q108 -102 258 -102
q214 0 258.5 161t53.5 253q-147 -103 -304 -103z" />
    <glyph glyph-name="colon" unicode=":" horiz-adv-x="569" 
d="M426 120q0 -134 -126 -134q-95 0 -127 33t-32 103t32.5 103t110.5 33t110 -32.5t32 -105.5zM426 910q0 -134 -126 -134q-95 0 -127 33t-32 104q0 70 32.5 103t110.5 33t110 -32.5t32 -106.5z" />
    <glyph glyph-name="semicolon" unicode=";" horiz-adv-x="569" 
d="M285 258q141 0 141 -150q0 -177 -50.5 -274.5t-72.5 -126.5h-139q62 92 78.5 176.5t17.5 104.5q-63 2 -91 33.5t-28 81.5q0 87 33 121t111 34zM426 910q0 -134 -126 -134q-95 0 -127 33t-32 104q0 70 32.5 103t110.5 33t110 -32.5t32 -106.5z" />
    <glyph glyph-name="less" unicode="&#x3c;" horiz-adv-x="1427" 
d="M147 502v164l1131 471v-191l-883 -362l883 -361v-190z" />
    <glyph glyph-name="equal" unicode="=" horiz-adv-x="1427" 
d="M147 258v174h1131v-174h-1131zM147 735v174h1131v-174h-1131z" />
    <glyph glyph-name="greater" unicode="&#x3e;" horiz-adv-x="1427" 
d="M147 33v190l883 361l-883 362v191l1131 -471v-164z" />
    <glyph glyph-name="question" unicode="?" horiz-adv-x="1059" 
d="M600 116q0 -130 -126 -130q-95 0 -127 32t-32 102t32.5 101t110.5 31t110 -31.5t32 -104.5zM51 1186q128 227 451 227q322 0 394.5 -136.5t72.5 -229.5q0 -166 -103 -268t-299 -201v-189h-223v287q206 92 272 148t88.5 101t22.5 115t-56 120t-182 50q-159 0 -245 -143z
" />
    <glyph glyph-name="at" unicode="@" horiz-adv-x="1942" 
d="M965 848q-133 0 -194.5 -81t-61.5 -247q0 -297 225 -297q100 0 235 99v452q-120 74 -204 74zM981 -309q-386 0 -627 230.5t-241 615.5q0 384 203 585.5t373 246t336 44.5t323.5 -60t319 -227t161.5 -557q0 -330 -124.5 -441.5t-248.5 -111.5t-185.5 29t-86.5 105
q-140 -107 -289 -107q-199 0 -291 138.5t-92 352.5q0 215 110.5 351.5t313.5 136.5q110 0 235 -76v47h193v-710q0 -61 20 -83t73 -22q52 0 92 38.5t72 119t32 231.5q0 319 -167.5 501.5t-484.5 182.5q-318 0 -515 -199t-197 -513q0 -313 188.5 -499.5t505.5 -186.5
q251 0 438 45l35 -162q-187 -45 -475 -45z" />
    <glyph glyph-name="A" unicode="A" horiz-adv-x="1313" 
d="M444 528h412l-205 623zM39 0l465 1384h303l467 -1384h-242l-106 319h-549l-105 -319h-233z" />
    <glyph glyph-name="B" unicode="B" horiz-adv-x="1284" 
d="M942 414q0 123 -75 165t-255 42h-213v-412h166q205 0 266 28t86 69.5t25 107.5zM864 1037q0 70 -59 106.5t-209 36.5h-197v-355h189q220 0 248 71t28 141zM1184 403q0 -403 -533 -403h-485v1384h448q264 0 376 -76t112 -243q0 -257 -236 -315q318 -40 318 -347z" />
    <glyph glyph-name="C" unicode="C" horiz-adv-x="1327" 
d="M113 692q0 721 614 721q289 0 384.5 -100t127.5 -154l-186 -135q-57 88 -126.5 135t-195.5 47q-195 0 -286 -129t-91 -385q0 -397 144 -455.5t224 -58.5q138 0 213 48.5t136 140.5l189 -131q-81 -127 -201 -196t-322 -69q-317 0 -470.5 180t-153.5 541z" />
    <glyph glyph-name="D" unicode="D" horiz-adv-x="1303" 
d="M862.5 1071q-93.5 100 -344.5 100h-131v-958h131q251 0 344.5 102t93.5 379t-93.5 377zM1041 149.5q-159 -149.5 -500 -149.5h-387v1384h383q343 0 503 -156t160 -543q0 -386 -159 -535.5z" />
    <glyph glyph-name="E" unicode="E" horiz-adv-x="1151" 
d="M166 0v1384h872v-208h-639v-351h543v-209h-543v-403h639v-213h-872z" />
    <glyph glyph-name="F" unicode="F" horiz-adv-x="1106" 
d="M399 1171v-352h533v-209h-533v-610h-233v1384h864v-213h-631z" />
    <glyph glyph-name="G" unicode="G" horiz-adv-x="1403" 
d="M1069 1022q-107 184 -315 184q-107 0 -253.5 -57t-146.5 -465q0 -258 91.5 -382t293.5 -124q137 0 279 64v272h-303v209h536v-604q-229 -148 -508 -148q-324 0 -477 177.5t-153 535.5q0 729 622 729q374 0 518 -254z" />
    <glyph glyph-name="H" unicode="H" horiz-adv-x="1386" 
d="M987 0v610h-588v-610h-233v1384h233v-561h588v561h234v-1384h-234z" />
    <glyph glyph-name="I" unicode="I" horiz-adv-x="821" 
d="M719 0h-617v188h191v1008h-191v188h617v-188h-193v-1008h193v-188z" />
    <glyph glyph-name="J" unicode="J" horiz-adv-x="903" 
d="M735 377q0 -315 -156.5 -361.5t-225.5 -46.5q-179 0 -318 51l78 205q49 -26 114 -37.5t104 -11.5q94 0 132.5 57.5t38.5 219.5v931h233v-1007z" />
    <glyph glyph-name="K" unicode="K" horiz-adv-x="1272" 
d="M399 0h-233v1384h233v-610l519 610h280l-541 -616l574 -768h-295l-430 596l-107 -123v-473z" />
    <glyph glyph-name="L" unicode="L" horiz-adv-x="1038" 
d="M166 0v1384h233v-1171h605v-213h-838z" />
    <glyph glyph-name="M" unicode="M" horiz-adv-x="1630" 
d="M1239 0v1038l-356 -673h-140l-354 673v-1038h-223v1384h287l364 -706l367 706h280v-1384h-225z" />
    <glyph glyph-name="N" unicode="N" horiz-adv-x="1399" 
d="M393 0h-227v1384h317l523 -1011v1011h227v-1384h-277l-563 1087v-1087z" />
    <glyph glyph-name="O" unicode="O" horiz-adv-x="1364" 
d="M1018 692q0 265 -78 389.5t-259 124.5t-259 -125t-78 -389.5t79 -389t259.5 -124.5t258 124.5t77.5 389.5zM102 692q0 721 513.5 721t580 -275t66.5 -446q0 -721 -580 -721t-580 721z" />
    <glyph glyph-name="P" unicode="P" horiz-adv-x="1210" 
d="M804 1124.5q-75 53.5 -233 53.5h-172v-523h146q189 0 261.5 51t72.5 208t-75 210.5zM1004 564.5q-118 -115.5 -381 -115.5h-224v-449h-233v1384h465q244 0 367.5 -106.5t123.5 -352.5q0 -245 -118 -360.5z" />
    <glyph glyph-name="Q" unicode="Q" horiz-adv-x="1364" 
d="M940 1081q-78 125 -258 125q-181 0 -259.5 -124t-78.5 -390t78.5 -390t261.5 -124t258.5 125.5t75.5 388.5q0 264 -78 389zM1036 -338q-220 0 -325.5 81t-143.5 234q-465 59 -465 715q0 534 214 627.5t368 93.5q299 0 438.5 -184.5t139.5 -536.5q0 -630 -437 -710
q22 -94 85.5 -108.5t129.5 -14.5t164 26l62 -188q-105 -35 -230 -35z" />
    <glyph glyph-name="R" unicode="R" horiz-adv-x="1260" 
d="M831.5 1134.5q-59.5 45.5 -200.5 45.5h-232v-430h219q156 0 214.5 48t58.5 170q0 121 -59.5 166.5zM1130 983q0 -348 -288 -408l372 -575h-270l-352 545h-193v-545h-233v1384h467q255 0 376 -92.5t121 -308.5z" />
    <glyph glyph-name="S" unicode="S" horiz-adv-x="1227" 
d="M414.5 1158q-68.5 -48 -68.5 -133t68 -123.5t186 -67.5q119 -28 177.5 -45t204.5 -79.5t146 -308.5q0 -231 -143.5 -330.5t-376.5 -99.5q-300 0 -397.5 105t-130.5 160l184 133q58 -90 136.5 -140.5t209.5 -50.5q190 0 234.5 70t44.5 124q0 95 -68 138t-194 75
q-125 32 -216 60.5t-196.5 98t-105.5 259.5q0 191 127 300.5t366 109.5q341 0 492 -248l-181 -135q-110 176 -313 176q-117 0 -185.5 -48z" />
    <glyph glyph-name="T" unicode="T" horiz-adv-x="1194" 
d="M713 1171v-1171h-234v1171h-442v213h1118v-213h-442z" />
    <glyph glyph-name="U" unicode="U" horiz-adv-x="1421" 
d="M1255 578q0 -333 -125.5 -471t-419 -138t-419 139t-125.5 470v806h233v-786q0 -237 69 -329.5t241 -92.5t242.5 92t70.5 326v790h233v-806z" />
    <glyph glyph-name="V" unicode="V" horiz-adv-x="1233" 
d="M760 0h-291l-430 1384h240l339 -1120l343 1120h233z" />
    <glyph glyph-name="W" unicode="W" horiz-adv-x="1794" 
d="M1393 0h-254l-246 1012l-248 -1012h-252l-338 1384h232l239 -1011l246 1011h244l250 -1017l243 1017h230z" />
    <glyph glyph-name="X" unicode="X" horiz-adv-x="1247" 
d="M41 0l455 694l-443 690h269l307 -507l317 507h260l-448 -684l446 -700h-266l-317 516l-322 -516h-258z" />
    <glyph glyph-name="Y" unicode="Y" horiz-adv-x="1167" 
d="M700 0h-235v524l-436 860h258l299 -626l303 626h248l-437 -854v-530z" />
    <glyph glyph-name="Z" unicode="Z" horiz-adv-x="1155" 
d="M82 0v207l682 964h-651v213h929v-196l-690 -975h707v-213h-977z" />
    <glyph glyph-name="bracketleft" unicode="[" horiz-adv-x="784" 
d="M174 -395v1884h518v-170h-319v-1544h319v-170h-518z" />
    <glyph glyph-name="backslash" unicode="\" horiz-adv-x="1014" 
d="M805 -299l-705 1819h213l703 -1819h-211z" />
    <glyph glyph-name="bracketright" unicode="]" horiz-adv-x="784" 
d="M92 -395v170h320v1544h-320v170h518v-1884h-518z" />
    <glyph glyph-name="asciicircum" unicode="^" horiz-adv-x="1272" 
d="M952 594l-315 596l-320 -596h-184l418 790h168l420 -790h-187z" />
    <glyph glyph-name="underscore" unicode="_" horiz-adv-x="1024" 
d="M-10 -256v102h1044v-102h-1044z" />
    <glyph glyph-name="grave" unicode="`" 
d="M516 1208l-285 361h275l184 -361h-174z" />
    <glyph glyph-name="a" unicode="a" horiz-adv-x="1118" 
d="M485 147q105 0 269 134v229l-150 -14q-216 -19 -251.5 -83.5t-35.5 -130.5t44 -100.5t124 -34.5zM522 901q-177 0 -239 -113l-170 109q68 123 195.5 152.5t227.5 29.5q218 0 325.5 -81t107.5 -285v-713h-205v119q-168 -150 -331 -150t-250 90.5t-87 235.5
q0 257 163.5 301t254.5 53l240 23v49q0 145 -88.5 162.5t-143.5 17.5z" />
    <glyph glyph-name="b" unicode="b" horiz-adv-x="1194" 
d="M373 262q117 -102 259 -102q101 0 168.5 89.5t67.5 273.5q0 185 -56 275.5t-183 90.5t-256 -119v-508zM688 1079q205 0 303.5 -144t98.5 -403q0 -388 -152 -475.5t-264 -87.5q-172 0 -316 123l-16 -92h-184v1489h215v-535q144 125 315 125z" />
    <glyph glyph-name="c" unicode="c" horiz-adv-x="1044" 
d="M104 520q0 404 178.5 481.5t307.5 77.5q270 0 381 -186l-168 -113q-72 111 -211 111t-202.5 -89.5t-63.5 -277.5t62 -278t208 -90q108 0 153 39.5t68 70.5l168 -110q-122 -187 -383 -187t-379.5 146.5t-118.5 404.5z" />
    <glyph glyph-name="d" unicode="d" horiz-adv-x="1194" 
d="M573 889q-169 0 -208 -136t-39 -233q0 -176 58.5 -268t166.5 -92q146 0 270 119v505q-120 105 -248 105zM535 1079q161 0 286 -112v522h215v-1489h-205v102q-149 -133 -339 -133t-289 148t-99 399q0 382 156.5 472.5t274.5 90.5z" />
    <glyph glyph-name="e" unicode="e" horiz-adv-x="1112" 
d="M803 637q0 268 -228 268q-167 0 -201.5 -101.5t-43.5 -166.5h473zM606 156q144 0 230 108l165 -112q-122 -183 -407 -183q-251 0 -370.5 138.5t-119.5 408.5q0 409 173 486t297 77q233 0 337.5 -128.5t104.5 -358.5v-113h-690q3 -243 103 -283t177 -40z" />
    <glyph glyph-name="f" unicode="f" horiz-adv-x="645" 
d="M427.5 1291q-30.5 -40 -30.5 -140v-102h224v-175h-224v-874h-215v874h-143v175h143v102q0 189 82 279t273 90q104 0 198 -33l-49 -187q-71 31 -149 31q-79 0 -109.5 -40z" />
    <glyph glyph-name="g" unicode="g" horiz-adv-x="1194" 
d="M821 784q-120 105 -242 105t-187.5 -96.5t-65.5 -253.5q0 -349 229 -349q132 0 266 119v475zM537 1079q167 0 299 -123l16 93h184v-1029q0 -213 -117.5 -314t-365.5 -101q-247 0 -410 94l70 174q154 -84 316 -84t227 53t65 178v105q-137 -125 -326 -125
q-190 0 -290.5 144t-100.5 383t106 395.5t327 156.5z" />
    <glyph glyph-name="h" unicode="h" horiz-adv-x="1190" 
d="M373 903q177 176 379 176q150 0 219 -94.5t69 -284.5v-700h-215v598q0 166 -22 210.5t-52 59.5t-79 15q-117 0 -299 -162v-721h-215v1489h215v-586z" />
    <glyph glyph-name="i" unicode="i" horiz-adv-x="530" 
d="M158 0v1049h215v-1049h-215zM393 1324q0 -64 -31.5 -90t-100.5 -26t-96.5 30t-27.5 90t29 87t98 27t99 -27t30 -91z" />
    <glyph glyph-name="j" unicode="j" horiz-adv-x="549" 
d="M28 -211q60 0 84.5 13t42 48t17.5 156v1043h215v-1094q0 -185 -76.5 -267.5t-259.5 -82.5q-111 0 -205 30l50 183q72 -29 132 -29zM408 1324q0 -116 -114 -116q-86 0 -113 29t-27 89q0 61 28 88.5t98 27.5t99 -27t29 -91z" />
    <glyph glyph-name="k" unicode="k" horiz-adv-x="1073" 
d="M373 0h-215v1489h215v-891l389 451h254l-406 -451l428 -598h-252l-307 453l-106 -117v-336z" />
    <glyph glyph-name="l" unicode="l" horiz-adv-x="539" 
d="M162 0v1489h215v-1489h-215z" />
    <glyph glyph-name="m" unicode="m" horiz-adv-x="1751" 
d="M700 1079q119 0 182 -47.5t85 -144.5q93 98 175 145t172 47q164 0 226 -95.5t62 -283.5v-700h-216v618q0 161 -18.5 200.5t-44.5 52t-70 12.5q-109 0 -266 -162v-721h-215v618q0 162 -19 202t-44.5 51.5t-67.5 11.5q-112 0 -268 -162v-721h-215v1049h215v-146
q157 176 327 176z" />
    <glyph glyph-name="n" unicode="n" horiz-adv-x="1190" 
d="M373 903q176 176 379 176q150 0 219 -94t69 -285v-700h-215v598q0 166 -21.5 210.5t-51.5 59.5t-80 15q-117 0 -299 -162v-721h-215v1049h215v-146z" />
    <glyph glyph-name="o" unicode="o" horiz-adv-x="1174" 
d="M846 524q0 184 -60.5 275.5t-197.5 91.5t-199.5 -91.5t-62.5 -275.5t61.5 -276t198.5 -92t198.5 92t61.5 276zM951.5 113.5q-117.5 -144.5 -363.5 -144.5q-484 0 -484 553q0 407 178 482t306 75t218.5 -38.5t176.5 -145t86 -372.5q0 -265 -117.5 -409.5z" />
    <glyph glyph-name="p" unicode="p" horiz-adv-x="1194" 
d="M621 160q169 0 208 135t39 233q0 361 -231 361q-102 0 -170.5 -47.5t-93.5 -71.5v-508q117 -102 248 -102zM362 944q148 135 338 135q189 0 289.5 -146t100.5 -394t-105.5 -409t-316.5 -161q-165 0 -295 113v-477h-215v1444h204v-105z" />
    <glyph glyph-name="q" unicode="q" horiz-adv-x="1194" 
d="M326 520q0 -360 231 -360q140 0 264 119v505q-119 105 -252 105q-167 0 -205 -136t-38 -233zM104 516q0 338 137 450.5t297 112.5t298 -123l16 93h184v-1444h-215v489q-138 -125 -330 -125q-191 0 -289 146.5t-98 400.5z" />
    <glyph glyph-name="r" unicode="r" horiz-adv-x="825" 
d="M373 702v-702h-215v1049h215v-160q79 84 155 130t155 46t118 -21l-43 -206q-43 16 -109 16q-119 0 -276 -152z" />
    <glyph glyph-name="s" unicode="s" horiz-adv-x="1008" 
d="M506 901q-84 0 -134 -32.5t-50 -90.5t41.5 -86.5t144.5 -54.5q218 -54 312.5 -124t94.5 -227t-115.5 -237t-293.5 -80q-307 0 -418 185l164 110q80 -117 234 -117q155 0 187 47.5t32 81.5q0 61 -52 92t-153 56q-100 24 -244.5 75t-144.5 267q0 139 104.5 226t301.5 87
q198 0 278 -70.5t104 -111.5l-164 -111q-78 115 -229 115z" />
    <glyph glyph-name="t" unicode="t" horiz-adv-x="733" 
d="M180 317v557h-141v175h141v292h215v-292h254v-175h-254v-524q0 -112 21.5 -146.5t46 -45.5t78 -11t123.5 29l45 -176q-100 -31 -197 -31q-182 0 -257 83t-75 265z" />
    <glyph glyph-name="u" unicode="u" horiz-adv-x="1190" 
d="M508 166q132 0 309 162v721h215v-1049h-215v145q-176 -176 -379 -176q-150 0 -219 94t-69 285v701h215v-598q0 -167 21 -211t51 -59t71 -15z" />
    <glyph glyph-name="v" unicode="v" horiz-adv-x="1024" 
d="M612 0h-204l-369 1049h223l254 -758l250 758h219z" />
    <glyph glyph-name="w" unicode="w" horiz-adv-x="1520" 
d="M1204 0h-196l-246 735l-248 -735h-197l-272 1049h223l170 -738l242 738h170l246 -736l164 736h215z" />
    <glyph glyph-name="x" unicode="x" horiz-adv-x="1044" 
d="M741 0l-225 367l-233 -367h-240l354 518l-350 531h256l225 -365l232 365h241l-354 -519l354 -530h-260z" />
    <glyph glyph-name="y" unicode="y" horiz-adv-x="1063" 
d="M164 -211q54 0 80.5 10.5t63 45.5t79.5 143l31 75l-381 986h227l268 -719l273 719h221l-451 -1125q-72 -177 -155 -248t-209 -71t-223 30l49 183q73 -29 127 -29z" />
    <glyph glyph-name="z" unicode="z" horiz-adv-x="932" 
d="M70 0v160l518 714h-506v175h764v-156l-520 -719h536v-174h-792z" />
    <glyph glyph-name="braceleft" unicode="{" horiz-adv-x="946" 
d="M590 942q0 -283 -260 -381q186 -65 223 -186t37 -193v-170q0 -185 82.5 -211t144.5 -26h47v-170h-69q-202 0 -303 101t-101 292v143q0 237 -96.5 283.5t-163.5 46.5h-29v184h29q260 0 260 328v143q0 193 100.5 293.5t303.5 100.5h69v-170h-47q-123 0 -175 -58t-52 -182
v-168z" />
    <glyph glyph-name="bar" unicode="|" horiz-adv-x="825" 
d="M313 -395v1915h199v-1915h-199z" />
    <glyph glyph-name="braceright" unicode="}" horiz-adv-x="946" 
d="M356 942v168q0 124 -52.5 182t-176.5 58h-45v170h70q205 0 304 -102.5t99 -291.5v-143q0 -238 96 -283t164 -45h29v-184h-29q-195 0 -227.5 -127.5t-32.5 -202.5v-143q0 -192 -100.5 -292.5t-302.5 -100.5h-70v170h45q180 0 204.5 87.5t24.5 149.5v170q0 214 100 286
t160 93q-260 100 -260 381z" />
    <glyph glyph-name="asciitilde" unicode="~" horiz-adv-x="1407" 
d="M465 915q63 0 127 -24.5t125.5 -54t120 -54t110.5 -24.5q133 0 305 145v-190q-163 -129 -301 -129q-93 0 -210 54t-175 78.5t-106 24.5q-145 0 -307 -145v195q147 124 311 124z" />
    <glyph glyph-name="uni00A0" unicode="&#xa0;" horiz-adv-x="522" 
 />
    <glyph glyph-name="exclamdown" unicode="&#xa1;" horiz-adv-x="569" 
d="M164 -395l31 1073h180l28 -1073h-239zM426 960q0 -70 -32 -101.5t-110 -31.5t-110.5 31.5t-32.5 101.5t32.5 102t110.5 32t110 -32t32 -102z" />
    <glyph glyph-name="cent" unicode="&#xa2;" horiz-adv-x="1044" 
d="M326 520q0 -243 108 -319l152 690h-25q-115 0 -175 -95t-60 -276zM389 0q-285 101 -285 513q0 411 178.5 488.5t303.5 77.5l41 -2l47 211h149l-53 -237q134 -45 201 -158l-168 -113q-31 49 -76 76l-154 -700h23q108 0 153 39.5t68 70.5l168 -110q-122 -187 -391 -187
l-62 2l-51 -231h-149z" />
    <glyph glyph-name="sterling" unicode="&#xa3;" horiz-adv-x="1272" 
d="M983 1077q-95 152 -296 152q-108 0 -172 -60t-64 -148t25.5 -178t27.5 -108h379v-160h-371q-3 -130 -30 -222t-109 -156h811v-197h-1078v184q171 36 175 197.5t4 193.5h-154v160h143q-2 18 -10.5 47.5t-25.5 99.5t-17 159q0 179 135.5 275.5t350.5 96.5q326 0 460 -225z
" />
    <glyph glyph-name="currency" unicode="&#xa4;" horiz-adv-x="1272" 
d="M815 796q-74 74 -181 74t-178 -74.5t-71 -178.5q0 -105 73.5 -178.5t177.5 -73.5t178.5 73t74.5 179q0 105 -74 179zM225 621q0 123 70 223l-166 166l107 108l167 -164q103 74 232 74t231 -74l168 164l107 -108l-164 -164q72 -103 72 -223q0 -121 -74 -236l166 -166
l-107 -106l-168 164q-99 -70 -231 -70t-229 72l-170 -166l-107 106l168 168q-72 109 -72 232z" />
    <glyph glyph-name="yen" unicode="&#xa5;" horiz-adv-x="1272" 
d="M1133 803v-150h-345l-36 -63v-68h381v-147h-381v-375h-234v375h-381v147h381v62l-41 69h-340v150h256l-338 581h258l326 -581l330 581h248l-343 -581h259z" />
    <glyph glyph-name="brokenbar" unicode="&#xa6;" horiz-adv-x="825" 
d="M313 -395v657h199v-657h-199zM313 862v658h199v-658h-199z" />
    <glyph glyph-name="section" unicode="&#xa7;" horiz-adv-x="1096" 
d="M489 756q-184 -115 -184 -195q0 -45 25.5 -77.5t72.5 -68.5t203 -126q93 60 122 88.5t44.5 55.5t15.5 59q0 60 -62.5 110t-236.5 154zM578 1237q-197 0 -197 -121q0 -45 54 -88.5t168 -109.5q115 -67 253.5 -159t138.5 -250q0 -109 -59 -182.5t-168 -138.5
q168 -118 168 -243q0 -153 -109 -232.5t-279 -79.5q-169 0 -265 40t-154 114l152 113q84 -93 241 -93q195 0 195 121q0 68 -102.5 128t-170.5 100q-173 101 -258.5 185t-85.5 204q0 179 228 311q-82 59 -124 118.5t-42 129.5q0 146 104.5 227.5t306.5 81.5q275 0 396 -153
l-152 -115q-81 92 -239 92z" />
    <glyph glyph-name="dieresis" unicode="&#xa8;" 
d="M446 1324q0 -64 -30 -91t-100 -27t-94.5 31t-24.5 91t26.5 88t96.5 28t98 -28t28 -92zM866 1324q0 -64 -30.5 -91t-99.5 -27t-94.5 31t-25.5 91t27 88t97 28t98 -28t28 -92z" />
    <glyph glyph-name="copyright" unicode="&#xa9;" horiz-adv-x="1829" 
d="M530 612q0 218 98 331.5t290 113.5t257.5 -72.5t90.5 -114.5l-148 -86q-34 57 -76 88t-110 31q-120 0 -170.5 -71t-50.5 -222t53 -218.5t170 -67.5q71 0 115 31t81 87l150 -84q-67 -94 -142 -141t-200 -47q-209 0 -308.5 112t-99.5 330zM914 -55q92 0 176 24t194 89
t198.5 219t88.5 312t-51 278.5t-140 210.5t-208.5 142t-257.5 52t-257.5 -52t-208.5 -142t-140.5 -210.5t-51.5 -234.5t23.5 -199t66 -159t102.5 -135t133 -104t157 -67t176 -24zM261.5 119.5q-152.5 154.5 -152.5 490.5q0 222 108 405.5t291.5 290.5t405.5 107
q221 0 404.5 -106.5t290.5 -291.5t107 -406t-106 -406t-290 -292.5t-408 -107.5q-222 0 -360 81t-290.5 235.5z" />
    <glyph glyph-name="ordfeminine" unicode="&#xaa;" horiz-adv-x="807" 
d="M356 825q54 0 156 78v129l-82 -8q-91 -8 -132.5 -33t-41.5 -77t23 -70.5t77 -18.5zM672 1171v-460h-154v63q-100 -82 -205 -82q-160 0 -190.5 83t-30.5 139q0 110 72 162.5t205 66.5l143 12v23q0 59 -33.5 80.5t-103.5 21.5q-106 0 -150 -74l-127 78q74 129 281 129
q151 0 222 -54.5t71 -187.5z" />
    <glyph glyph-name="guillemotleft" unicode="&#xab;" horiz-adv-x="1329" 
d="M473 53l-407 471l407 471h248l-408 -471l408 -471h-248zM1004 53l-406 471l406 471h247l-405 -471l405 -471h-247z" />
    <glyph glyph-name="logicalnot" unicode="&#xac;" horiz-adv-x="1427" 
d="M1104 344v469h-957v174h1131v-643h-174z" />
    <glyph glyph-name="uni00AD" unicode="&#xad;" horiz-adv-x="807" 
d="M92 420v213h623v-213h-623z" />
    <glyph glyph-name="registered" unicode="&#xae;" horiz-adv-x="1829" 
d="M786 670h113q94 0 118 20.5t30 43t6 54.5q0 63 -30.5 89t-115.5 26h-121v-233zM1233 797q0 -191 -158 -246l236 -350h-207l-213 321h-105v-321h-172v850h291q162 0 245 -57.5t83 -196.5zM914 -55q92 0 176 24t194 89t198.5 219t88.5 312t-51 278.5t-140 210.5t-208.5 142
t-257.5 52t-257.5 -52t-208.5 -142t-140.5 -210.5t-51.5 -234.5t23.5 -199t66 -159t102.5 -135t133 -104t157 -67t176 -24zM261.5 119.5q-152.5 154.5 -152.5 490.5q0 222 108 405.5t291.5 290.5t405.5 107q221 0 404.5 -106.5t290.5 -291.5t107 -406t-106 -406t-290 -292.5
t-408 -107.5q-222 0 -360 81t-290.5 235.5z" />
    <glyph glyph-name="macron" unicode="&#xaf;" 
d="M211 1255v162h641v-162h-641z" />
    <glyph glyph-name="degree" unicode="&#xb0;" horiz-adv-x="866" 
d="M538 1342q-42 42 -89 42q-79 0 -120.5 -43t-41.5 -87q0 -76 42 -119t89 -43t73.5 11.5t57.5 44t31 92.5t-42 102zM640.5 1030q-88.5 -88 -208.5 -88t-207.5 87.5t-87.5 210.5t87 208.5t209 85.5t209 -85.5t87 -208.5q0 -122 -88.5 -210z" />
    <glyph glyph-name="plusminus" unicode="&#xb1;" horiz-adv-x="1427" 
d="M147 0v174h1131v-174h-1131zM801 819v-479h-174v479h-480v174h480v477h174v-477h477v-174h-477z" />
    <glyph glyph-name="twosuperior" unicode="&#xb2;" horiz-adv-x="913" 
d="M442 1522q156 0 242 -63t86 -192t-104 -227q-104 -99 -289 -225h424v-164h-699v160q50 37 188.5 138t202.5 170t64 128q0 107 -114 107t-187 -99l-166 99q122 168 352 168z" />
    <glyph glyph-name="threesuperior" unicode="&#xb3;" horiz-adv-x="913" 
d="M90 1368q116 154 323 154q182 0 264.5 -63t82.5 -159q0 -138 -150 -190q164 -51 164 -207q0 -200 -140 -235t-212 -35q-127 0 -217 42.5t-133 112.5l166 89q62 -86 170 -86q151 0 151 120q0 111 -164 111h-102v152h90q170 0 170 104q0 40 -33.5 64t-95.5 24
q-111 0 -176 -88z" />
    <glyph glyph-name="acute" unicode="&#xb4;" 
d="M588 1208h-174l184 361h274z" />
    <glyph glyph-name="mu" unicode="&#xb5;" horiz-adv-x="1186" 
d="M580 -31q-129 0 -230 76v-440h-215v1444h215v-773q61 -74 127.5 -91t100.5 -17q142 0 249 133v748h215v-1049h-200l-8 115q-54 -73 -114 -109.5t-140 -36.5z" />
    <glyph glyph-name="paragraph" unicode="&#xb6;" horiz-adv-x="1288" 
d="M1047 1319v-1714h-197v1714h-178v-1714h-197v1020q-184 11 -305 121.5t-121 310.5t134 316t362 116h692v-170h-190z" />
    <glyph glyph-name="periodcentered" unicode="&#xb7;" horiz-adv-x="569" 
d="M426 742q0 -134 -126 -134q-95 0 -127 33t-32 104q0 70 32.5 103t110.5 33t110 -32.5t32 -106.5z" />
    <glyph glyph-name="cedilla" unicode="&#xb8;" 
d="M582 -203q0 76 -179 86l76 146h137l-26 -56q72 -18 112.5 -67t40.5 -127t-68 -126t-216 -48t-238 45l60 123q106 -39 177 -39t97.5 14.5t26.5 48.5z" />
    <glyph glyph-name="onesuperior" unicode="&#xb9;" horiz-adv-x="913" 
d="M401 651v570h-225v129q133 4 177.5 29.5t62.5 54t30 69.5h162v-852h-207z" />
    <glyph glyph-name="ordmasculine" unicode="&#xba;" horiz-adv-x="834" 
d="M571 1050q0 116 -37.5 170t-117.5 54t-117 -54t-37 -170t37 -168.5t117 -52.5t117.5 52.5t37.5 168.5zM657.5 787q-77.5 -95 -239.5 -95q-322 0 -322 359q0 263 119 312.5t203 49.5t143.5 -26t116.5 -95.5t57 -239.5t-77.5 -265z" />
    <glyph glyph-name="guillemotright" unicode="&#xbb;" horiz-adv-x="1329" 
d="M326 53h-248l405 471l-405 471h248l405 -471zM856 53h-248l408 471l-408 471h248l408 -471z" />
    <glyph glyph-name="onequarter" unicode="&#xbc;" horiz-adv-x="2019" 
d="M674 -51h-198l761 1487h203zM326 535v570h-225v129q133 4 177 29q45 27 63 55t30 69h162v-852h-207zM1609 315v301l-278 -301h278zM1804 165v-170h-195v170h-483v146l494 536h184v-532h121v-150h-121z" />
    <glyph glyph-name="onehalf" unicode="&#xbd;" horiz-adv-x="2019" 
d="M600 -51h-198l761 1487h203zM287 535v570h-225v129q133 4 177 29q45 27 63 55t30 69h162v-852h-207zM1765 801q86 -63 86 -192t-104 -227q-104 -99 -289 -225h424v-164h-699v160q49 37 107 79q219 160 284 229q64 69 64 128q0 107 -114 107t-187 -99l-166 99
q122 168 352 168q156 0 242 -63z" />
    <glyph glyph-name="threequarters" unicode="&#xbe;" horiz-adv-x="2019" 
d="M786 -51h-198l761 1487h203zM1632 313v301l-278 -301h278zM1827 163v-170h-195v170h-483v146l494 536h184v-532h121v-150h-121zM100 1252q116 154 323 154q182 0 265 -63q82 -63 82 -159q0 -138 -150 -190q164 -51 164 -207q0 -200 -212 -253q-68 -17 -140 -17
q-127 0 -217 43t-133 112l166 89q62 -86 170 -86q151 0 151 120q0 111 -164 111h-102v152h90q170 0 170 104q1 40 -33 64t-96 24q-111 0 -176 -88z" />
    <glyph glyph-name="questiondown" unicode="&#xbf;" horiz-adv-x="1059" 
d="M90 -12q0 180 100.5 284.5t301.5 216.5v189h223v-287q-204 -116 -264.5 -168.5t-89.5 -103t-29 -113.5q0 -199 227 -199q135 0 185.5 55.5t70.5 88.5l193 -119q-128 -227 -453 -227q-324 0 -394.5 141.5t-70.5 241.5zM459 962q0 132 126 132q96 0 127 -32t31 -120
q0 -114 -141 -115q-79 0 -111 31t-32 104z" />
    <glyph glyph-name="Agrave" unicode="&#xc0;" horiz-adv-x="1313" 
d="M444 528h412l-205 623zM39 0l465 1384h303l467 -1384h-242l-106 319h-549l-105 -319h-233zM653 1544l-285 361h275l184 -361h-174z" />
    <glyph glyph-name="Aacute" unicode="&#xc1;" horiz-adv-x="1313" 
d="M444 528h412l-205 623zM39 0l465 1384h303l467 -1384h-242l-106 319h-549l-105 -319h-233zM678 1544h-174l184 361h274z" />
    <glyph glyph-name="Acircumflex" unicode="&#xc2;" horiz-adv-x="1313" 
d="M444 528h412l-205 623zM39 0l465 1384h303l467 -1384h-242l-106 319h-549l-105 -319h-233zM817 1544l-164 205l-167 -205h-179l232 361h227l232 -361h-181z" />
    <glyph glyph-name="Atilde" unicode="&#xc3;" horiz-adv-x="1313" 
d="M444 528h412l-205 623zM39 0l465 1384h303l467 -1384h-242l-106 319h-549l-105 -319h-233zM493 1692q-75 0 -81 -131h-152q10 206 139 269q45 22 95 22t82 -10t58 -27q26 -16 48 -34q22 -19 58 -45q35 -26 71 -26q70 0 82 127h152q-23 -291 -248 -291q-104 0 -181 73
q-48 45 -73 59t-50 14z" />
    <glyph glyph-name="Adieresis" unicode="&#xc4;" horiz-adv-x="1313" 
d="M444 528h412l-205 623zM39 0l465 1384h303l467 -1384h-242l-106 319h-549l-105 -319h-233zM567 1660q0 -64 -30 -92q-29 -26 -99 -26t-95 31t-25 91t27 88t97 28t97 -28q28 -28 28 -92zM987 1660q-1 -64 -31 -92q-30 -26 -99 -26t-95 31t-25 91q-1 60 27 88t98 28t97 -28
q28 -28 28 -92z" />
    <glyph glyph-name="Aring" unicode="&#xc5;" horiz-adv-x="1313" 
d="M444 528h412l-205 623zM39 0l465 1384h303l467 -1384h-242l-106 319h-549l-105 -319h-233zM654 1608q92 0 92 95t-92 95t-93 -95q1 -95 93 -95zM868 1702q0 -98 -54 -154t-161 -55q-161 1 -201 125q-12 38 -12 86q0 97 52 154t162 57t162 -57q52 -58 52 -156z" />
    <glyph glyph-name="AE" unicode="&#xc6;" horiz-adv-x="1778" 
d="M846 1176h-121l-231 -596h352v596zM846 0v371h-430l-146 -371h-237l542 1384h1090v-208h-586v-355h498v-209h-498v-399h586v-213h-819z" />
    <glyph glyph-name="Ccedilla" unicode="&#xc7;" horiz-adv-x="1327" 
d="M831 -27q154 -38 154 -194q0 -78 -68 -126t-216 -48t-238 45l59 123q106 -39 203 -39q98 0 98 63q0 76 -178 86l46 89q-283 12 -431 186t-147 534q0 721 614 721q289 0 384.5 -100t127.5 -154l-186 -135q-57 88 -126.5 135t-195.5 47q-195 0 -286 -129t-91 -385
q0 -397 144 -455.5t224 -58.5q138 0 213 48.5t136 140.5l189 -131q-81 -127 -185 -187t-243 -73z" />
    <glyph glyph-name="Egrave" unicode="&#xc8;" horiz-adv-x="1151" 
d="M166 0v1384h872v-208h-639v-351h543v-209h-543v-403h639v-213h-872zM588 1544l-285 361h275l184 -361h-174z" />
    <glyph glyph-name="Eacute" unicode="&#xc9;" horiz-adv-x="1151" 
d="M166 0v1384h872v-208h-639v-351h543v-209h-543v-403h639v-213h-872zM627 1544h-174l184 361h274z" />
    <glyph glyph-name="Ecircumflex" unicode="&#xca;" horiz-adv-x="1151" 
d="M166 0v1384h872v-208h-639v-351h543v-209h-543v-403h639v-213h-872zM762 1544l-164 205l-167 -205h-179l232 361h227l232 -361h-181z" />
    <glyph glyph-name="Edieresis" unicode="&#xcb;" horiz-adv-x="1151" 
d="M166 0v1384h872v-208h-639v-351h543v-209h-543v-403h639v-213h-872zM505 1660q0 -64 -30 -92q-29 -26 -99 -26t-95 31t-25 91t27 88t97 28t97 -28q28 -28 28 -92zM925 1660q-1 -64 -31 -92q-30 -26 -99 -26t-95 31t-25 91q-1 60 27 88t98 28t97 -28q28 -28 28 -92z" />
    <glyph glyph-name="Igrave" unicode="&#xcc;" horiz-adv-x="821" 
d="M719 0h-617v188h191v1008h-191v188h617v-188h-193v-1008h193v-188zM370 1544l-285 361h275l184 -361h-174z" />
    <glyph glyph-name="Iacute" unicode="&#xcd;" horiz-adv-x="821" 
d="M719 0h-617v188h191v1008h-191v188h617v-188h-193v-1008h193v-188zM454 1544h-174l184 361h274z" />
    <glyph glyph-name="Icircumflex" unicode="&#xce;" horiz-adv-x="821" 
d="M719 0h-617v188h191v1008h-191v188h617v-188h-193v-1008h193v-188zM576 1544l-164 205l-167 -205h-179l232 361h227l232 -361h-181z" />
    <glyph glyph-name="Idieresis" unicode="&#xcf;" horiz-adv-x="821" 
d="M719 0h-617v188h191v1008h-191v188h617v-188h-193v-1008h193v-188zM328 1660q0 -64 -30 -92q-30 -26 -100 -26t-94 31q-25 31 -25 91t27 88q26 28 96 28t98 -28t28 -92zM748 1660q0 -64 -30 -92q-30 -26 -100 -26q-68 0 -94 31t-26 91t28 88t96 28q70 0 98 -28t28 -92z
" />
    <glyph glyph-name="Eth" unicode="&#xd0;" horiz-adv-x="1389" 
d="M927.5 1070.5q-104.5 100.5 -378.5 100.5h-150v-385h328v-184h-328v-389h150q275 0 379 103.5t104 378.5t-104.5 375.5zM1106 150q-170 -150 -539 -150h-401v602h-133v184h133v598h399q370 0 540.5 -156.5t170.5 -541.5q0 -386 -170 -536z" />
    <glyph glyph-name="Ntilde" unicode="&#xd1;" horiz-adv-x="1399" 
d="M393 0h-227v1384h317l523 -1011v1011h227v-1384h-277l-563 1087v-1087zM524 1671q-75 0 -81 -131h-152q10 206 139 269q46 22 96 22q50 -1 82 -11t57 -26q27 -16 49 -34t57 -44t71 -27q70 0 82 127h152q-23 -291 -248 -291q-104 0 -181 73q-48 45 -73 59t-50 14z" />
    <glyph glyph-name="Ograve" unicode="&#xd2;" horiz-adv-x="1364" 
d="M1018 692q0 265 -78 389q-78 125 -259 125t-259 -125t-78 -389q0 -265 79 -390q79 -124 259 -124q181 0 258 124q78 125 78 390zM102 692q0 721 580 721q448 0 548 -416q32 -134 32 -305q0 -721 -580 -721t-580 721zM692 1544l-285 361h275l184 -361h-174z" />
    <glyph glyph-name="Oacute" unicode="&#xd3;" horiz-adv-x="1364" 
d="M1018 692q0 265 -78 389q-78 125 -259 125t-259 -125t-78 -389q0 -265 79 -390q79 -124 259 -124q181 0 258 124q78 125 78 390zM102 692q0 721 580 721q448 0 548 -416q32 -134 32 -305q0 -721 -580 -721t-580 721zM731 1544h-174l184 361h274z" />
    <glyph glyph-name="Ocircumflex" unicode="&#xd4;" horiz-adv-x="1364" 
d="M1018 692q0 265 -78 389q-78 125 -259 125t-259 -125t-78 -389q0 -265 79 -390q79 -124 259 -124q181 0 258 124q78 125 78 390zM102 692q0 721 580 721q448 0 548 -416q32 -134 32 -305q0 -721 -580 -721t-580 721zM850 1544l-164 205l-167 -205h-179l232 361h227
l232 -361h-181z" />
    <glyph glyph-name="Otilde" unicode="&#xd5;" horiz-adv-x="1364" 
d="M1018 692q0 265 -78 389q-78 125 -259 125t-259 -125t-78 -389q0 -265 79 -390q79 -124 259 -124q181 0 258 124q78 125 78 390zM102 692q0 721 580 721q448 0 548 -416q32 -134 32 -305q0 -721 -580 -721t-580 721zM526 1692q-75 0 -81 -131h-152q10 206 139 269
q46 22 96 22t82 -10t57 -27q27 -16 49 -34q22 -19 57 -45t71 -26q70 0 82 127h152q-23 -291 -248 -291q-104 0 -181 73q-48 45 -73 59t-50 14z" />
    <glyph glyph-name="Odieresis" unicode="&#xd6;" horiz-adv-x="1364" 
d="M1018 692q0 265 -78 389q-78 125 -259 125t-259 -125t-78 -389q0 -265 79 -390q79 -124 259 -124q181 0 258 124q78 125 78 390zM102 692q0 721 580 721q448 0 548 -416q32 -134 32 -305q0 -721 -580 -721t-580 721zM606 1660q0 -64 -30 -92q-30 -26 -100 -26t-94 31
q-25 31 -25 91t27 88q26 28 96 28t98 -28t28 -92zM1026 1660q0 -64 -30 -92q-30 -26 -100 -26q-68 0 -94 31t-26 91t28 88t96 28q70 0 98 -28t28 -92z" />
    <glyph glyph-name="multiply" unicode="&#xd7;" horiz-adv-x="1427" 
d="M1135 39l-422 422l-422 -422l-125 123l424 422l-424 422l125 122l422 -421l422 421l122 -122l-421 -422l421 -422z" />
    <glyph glyph-name="Oslash" unicode="&#xd8;" horiz-adv-x="1364" 
d="M682 1206q-182 0 -260 -125t-78 -356q0 -232 43 -344l512 747q-77 78 -217 78zM1018 692q0 184 -37 299l-512 -745q74 -68 213 -68q181 0 258.5 124.5t77.5 389.5zM102 692q0 721 580 721q211 0 346 -98l119 174h174l-188 -277q129 -180 129 -520q0 -721 -580 -721
q-209 0 -340 90l-121 -176h-174l189 277q-134 178 -134 530z" />
    <glyph glyph-name="Ugrave" unicode="&#xd9;" horiz-adv-x="1421" 
d="M1255 578q0 -333 -126 -471t-419 -138q-294 0 -419 139t-125 470v806h233v-786q0 -237 69 -329q69 -93 241 -93q173 0 243 92t70 326v790h233v-806zM696 1544l-285 361h275l184 -361h-174z" />
    <glyph glyph-name="Uacute" unicode="&#xda;" horiz-adv-x="1421" 
d="M1255 578q0 -333 -126 -471t-419 -138q-294 0 -419 139t-125 470v806h233v-786q0 -237 69 -329q69 -93 241 -93q173 0 243 92t70 326v790h233v-806zM752 1544h-174l184 361h274z" />
    <glyph glyph-name="Ucircumflex" unicode="&#xdb;" horiz-adv-x="1421" 
d="M1255 578q0 -333 -126 -471t-419 -138q-294 0 -419 139t-125 470v806h233v-786q0 -237 69 -329q69 -93 241 -93q173 0 243 92t70 326v790h233v-806zM876 1544l-164 205l-167 -205h-179l232 361h227l232 -361h-181z" />
    <glyph glyph-name="Udieresis" unicode="&#xdc;" horiz-adv-x="1421" 
d="M1255 578q0 -333 -126 -471t-419 -138q-294 0 -419 139t-125 470v806h233v-786q0 -237 69 -329q69 -93 241 -93q173 0 243 92t70 326v790h233v-806zM626 1660q0 -64 -30 -92q-30 -26 -100 -26t-94 31q-25 31 -25 91t27 88q26 28 96 28t98 -28t28 -92zM1046 1660
q0 -64 -30 -92q-30 -26 -100 -26q-68 0 -94 31t-26 91t28 88t96 28q70 0 98 -28t28 -92z" />
    <glyph glyph-name="Yacute" unicode="&#xdd;" horiz-adv-x="1167" 
d="M700 0h-235v524l-436 860h258l299 -626l303 626h248l-437 -854v-530zM625 1544h-174l184 361h274z" />
    <glyph glyph-name="Thorn" unicode="&#xde;" horiz-adv-x="1210" 
d="M805 916q-74 53 -234 53h-172v-523h146q190 0 262 51.5t72 208.5t-74 210zM1004 355.5q-118 -115.5 -381 -115.5h-224v-240h-233v1384h233v-208h232q245 0 368 -107.5t123 -352.5t-118 -360.5z" />
    <glyph glyph-name="germandbls" unicode="&#xdf;" horiz-adv-x="1194" 
d="M782 1165q0 168 -182 168q-181 0 -204 -112t-23 -187v-1034h-215v1026q0 235 98.5 364.5t341.5 129.5q286 0 343.5 -125t57.5 -203q0 -141 -60 -218t-157 -102q146 -24 227 -134t81 -250q0 -267 -96.5 -393t-311.5 -126q-92 0 -190 31v195q91 -37 167 -37q108 0 156.5 76
t48.5 241t-82.5 224t-271.5 59v186q141 0 206.5 48.5t65.5 172.5z" />
    <glyph glyph-name="agrave" unicode="&#xe0;" horiz-adv-x="1118" 
d="M485 147q105 0 269 134v229l-150 -14q-216 -18 -268 -112q-19 -34 -19 -102q0 -66 44 -100t124 -35zM522 901q-177 0 -239 -113l-170 109q69 123 255 166q68 16 168 16q218 0 326 -81q107 -81 107 -285v-713h-205v119q-168 -150 -331 -150t-250 90t-87 236q0 257 250 325
q76 20 168 29l240 23v49q0 145 -134 171q-44 8 -98 9zM518 1208l-285 361h275l184 -361h-174z" />
    <glyph glyph-name="aacute" unicode="&#xe1;" horiz-adv-x="1118" 
d="M485 147q105 0 269 134v229l-150 -14q-216 -18 -268 -112q-19 -34 -19 -102q0 -66 44 -100t124 -35zM522 901q-177 0 -239 -113l-170 109q69 123 255 166q68 16 168 16q218 0 326 -81q107 -81 107 -285v-713h-205v119q-168 -150 -331 -150t-250 90t-87 236q0 257 250 325
q76 20 168 29l240 23v49q0 145 -134 171q-44 8 -98 9zM569 1208h-174l184 361h274z" />
    <glyph glyph-name="acircumflex" unicode="&#xe2;" horiz-adv-x="1118" 
d="M485 147q105 0 269 134v229l-150 -14q-216 -18 -268 -112q-19 -34 -19 -102q0 -66 44 -100t124 -35zM522 901q-177 0 -239 -113l-170 109q69 123 255 166q68 16 168 16q218 0 326 -81q107 -81 107 -285v-713h-205v119q-168 -150 -331 -150t-250 90t-87 236q0 257 250 325
q76 20 168 29l240 23v49q0 145 -134 171q-44 8 -98 9zM698 1208l-164 205l-167 -205h-179l232 361h227l232 -361h-181z" />
    <glyph glyph-name="atilde" unicode="&#xe3;" horiz-adv-x="1118" 
d="M485 147q105 0 269 134v229l-150 -14q-216 -18 -268 -112q-19 -34 -19 -102q0 -66 44 -100t124 -35zM522 901q-177 0 -239 -113l-170 109q69 123 255 166q68 16 168 16q218 0 326 -81q107 -81 107 -285v-713h-205v119q-168 -150 -331 -150t-250 90t-87 236q0 257 250 325
q76 20 168 29l240 23v49q0 145 -134 171q-44 8 -98 9zM384 1356q-75 0 -81 -131h-152q10 206 139 269q46 22 96 22t82 -10t57 -27q27 -16 49 -34q22 -19 57 -45t71 -26q70 0 82 127h152q-23 -291 -248 -291q-104 0 -181 73q-48 45 -73 59t-50 14z" />
    <glyph glyph-name="adieresis" unicode="&#xe4;" horiz-adv-x="1118" 
d="M485 147q105 0 269 134v229l-150 -14q-216 -18 -268 -112q-19 -34 -19 -102q0 -66 44 -100t124 -35zM522 901q-177 0 -239 -113l-170 109q69 123 255 166q68 16 168 16q218 0 326 -81q107 -81 107 -285v-713h-205v119q-168 -150 -331 -150t-250 90t-87 236q0 257 250 325
q76 20 168 29l240 23v49q0 145 -134 171q-44 8 -98 9zM443 1324q0 -64 -30 -92q-29 -26 -99 -26t-95 31t-25 91t27 88t97 28t97 -28q28 -28 28 -92zM863 1324q-1 -64 -31 -92q-30 -26 -99 -26t-95 31t-25 91q-1 60 27 88t98 28t97 -28q28 -28 28 -92z" />
    <glyph glyph-name="aring" unicode="&#xe5;" horiz-adv-x="1118" 
d="M485 147q105 0 269 134v229l-150 -14q-216 -18 -268 -112q-19 -34 -19 -102q0 -66 44 -100t124 -35zM522 901q-177 0 -239 -113l-170 109q69 123 255 166q68 16 168 16q218 0 326 -81q107 -81 107 -285v-713h-205v119q-168 -150 -331 -150t-250 90t-87 236q0 257 250 325
q76 20 168 29l240 23v49q0 145 -134 171q-44 8 -98 9zM530 1270q92 0 92 95t-92 95t-93 -95q1 -95 93 -95zM744 1364q0 -98 -54 -154t-161 -55q-161 1 -201 125q-12 38 -12 86q0 97 52 154t162 57t162 -57q52 -58 52 -156z" />
    <glyph glyph-name="ae" unicode="&#xe6;" horiz-adv-x="1755" 
d="M1446 637q0 268 -229 268q-116 0 -173 -67.5t-71 -200.5h473zM317 297q0 -150 158 -150q141 0 305 127q-26 78 -26 236l-150 -14q-218 -19 -252.5 -83.5t-34.5 -115.5zM96 301q0 251 165.5 295.5t252.5 52.5l240 23v49q0 143 -87 161.5t-202 18.5t-182 -113l-170 109
q107 182 419 182q268 0 357 -137q114 137 338 137q432 0 432 -487v-113h-690q3 -242 101 -282.5t156 -40.5q98 0 151.5 25t101.5 83l166 -112q-122 -183 -404 -183t-399 174q-206 -174 -420 -174q-153 0 -239.5 90t-86.5 242z" />
    <glyph glyph-name="ccedilla" unicode="&#xe7;" horiz-adv-x="1044" 
d="M680 -27q156 -38 156 -194q0 -78 -69.5 -126t-214.5 -48t-241 45l62 123q100 -39 174 -39t100.5 14.5t26.5 48.5q0 76 -178 86l44 88q-213 15 -324.5 153t-111.5 396q0 404 178.5 481.5t307.5 77.5q270 0 381 -186l-168 -113q-72 111 -211 111t-202.5 -89.5t-63.5 -277.5
t62 -278t208 -90q108 0 153 39.5t68 70.5l168 -110q-103 -159 -305 -182v-1z" />
    <glyph glyph-name="egrave" unicode="&#xe8;" horiz-adv-x="1112" 
d="M803 637q0 268 -228 268q-167 0 -219 -153q-17 -50 -26 -115h473zM606 156q144 0 230 108l165 -112q-122 -183 -407 -183q-250 1 -370 139t-120 408q0 408 255 522q91 40 215 41q233 0 338 -129q104 -129 104 -358v-113h-690q2 -243 150 -302q52 -21 130 -21zM549 1208
l-285 361h275l184 -361h-174z" />
    <glyph glyph-name="eacute" unicode="&#xe9;" horiz-adv-x="1112" 
d="M803 637q0 268 -228 268q-167 0 -219 -153q-17 -50 -26 -115h473zM606 156q144 0 230 108l165 -112q-122 -183 -407 -183q-250 1 -370 139t-120 408q0 408 255 522q91 40 215 41q233 0 338 -129q104 -129 104 -358v-113h-690q2 -243 150 -302q52 -21 130 -21zM598 1208
h-174l184 361h274z" />
    <glyph glyph-name="ecircumflex" unicode="&#xea;" horiz-adv-x="1112" 
d="M803 637q0 268 -228 268q-167 0 -219 -153q-17 -50 -26 -115h473zM606 156q144 0 230 108l165 -112q-122 -183 -407 -183q-250 1 -370 139t-120 408q0 408 255 522q91 40 215 41q233 0 338 -129q104 -129 104 -358v-113h-690q2 -243 150 -302q52 -21 130 -21zM737 1208
l-164 205l-167 -205h-179l232 361h227l232 -361h-181z" />
    <glyph glyph-name="edieresis" unicode="&#xeb;" horiz-adv-x="1112" 
d="M803 637q0 268 -228 268q-167 0 -219 -153q-17 -50 -26 -115h473zM606 156q144 0 230 108l165 -112q-122 -183 -407 -183q-250 1 -370 139t-120 408q0 408 255 522q91 40 215 41q233 0 338 -129q104 -129 104 -358v-113h-690q2 -243 150 -302q52 -21 130 -21zM487 1324
q0 -64 -30 -92q-29 -26 -99 -26t-95 31t-25 91t27 88t97 28t97 -28q28 -28 28 -92zM907 1324q-1 -64 -31 -92q-30 -26 -99 -26t-95 31t-25 91q-1 60 27 88t98 28t97 -28q28 -28 28 -92z" />
    <glyph glyph-name="igrave" unicode="&#xec;" horiz-adv-x="530" 
d="M158 0v1049h215v-1049h-215zM241 1208l-285 361h275l184 -361h-174z" />
    <glyph glyph-name="iacute" unicode="&#xed;" horiz-adv-x="530" 
d="M158 0v1049h215v-1049h-215zM306 1208h-174l184 361h274z" />
    <glyph glyph-name="icircumflex" unicode="&#xee;" horiz-adv-x="530" 
d="M158 0v1049h215v-1049h-215zM431 1208l-164 205l-167 -205h-179l232 361h227l232 -361h-181z" />
    <glyph glyph-name="idieresis" unicode="&#xef;" horiz-adv-x="530" 
d="M158 0v1049h215v-1049h-215zM171 1324q0 -64 -30 -92q-29 -26 -99 -26t-95 31t-25 91t27 88t97 28t97 -28q28 -28 28 -92zM591 1324q-1 -64 -31 -92q-30 -26 -99 -26t-95 31t-25 91q-1 60 27 88t98 28t97 -28q28 -28 28 -92z" />
    <glyph glyph-name="eth" unicode="&#xf0;" horiz-adv-x="1174" 
d="M846 512q0 78 -12.5 141.5t-42.5 110t-80 72.5t-158.5 26t-167.5 -90.5t-59 -257.5q0 -263 93.5 -310.5t167.5 -47.5t123.5 25.5t79.5 72.5t43 113.5t13 144.5zM1069 523q0 -260 -116 -407t-367 -147q-252 0 -367 147t-115 393.5t113.5 393t323.5 146.5q109 0 211 -74
q-36 96 -97.5 178t-89.5 111l-209 -103l-61 117l182 90q-55 64 -108.5 102t-71.5 50h221q58 -33 107 -82l168 82l63 -115l-129 -64q241 -245 291.5 -469t50.5 -349z" />
    <glyph glyph-name="ntilde" unicode="&#xf1;" horiz-adv-x="1190" 
d="M373 903q176 176 379 176q150 0 219 -94t69 -285v-700h-215v598q1 166 -21 211q-22 44 -52 59t-80 15q-117 0 -299 -162v-721h-215v1049h215v-146zM440 1356q-75 0 -81 -131h-152q10 206 139 269q46 22 96 22t82 -10t57 -27q27 -16 49 -34q22 -19 57 -45t71 -26
q70 0 82 127h152q-23 -291 -248 -291q-104 0 -181 73q-48 45 -73 59t-50 14z" />
    <glyph glyph-name="ograve" unicode="&#xf2;" horiz-adv-x="1174" 
d="M846 524q0 184 -60 276q-60 91 -198 91t-200 -91q-62 -92 -62 -276t62 -276t198 -92t198 92t62 276zM952 113q-117 -144 -364 -144q-484 0 -484 553q0 406 264 518q92 38 220 39q128 -1 218 -39q92 -38 150 -110q114 -141 113 -407q0 -266 -117 -410zM561 1208l-285 361
h275l184 -361h-174z" />
    <glyph glyph-name="oacute" unicode="&#xf3;" horiz-adv-x="1174" 
d="M846 524q0 184 -60 276q-60 91 -198 91t-200 -91q-62 -92 -62 -276t62 -276t198 -92t198 92t62 276zM952 113q-117 -144 -364 -144q-484 0 -484 553q0 406 264 518q92 38 220 39q128 -1 218 -39q92 -38 150 -110q114 -141 113 -407q0 -266 -117 -410zM613 1208h-174
l184 361h274z" />
    <glyph glyph-name="ocircumflex" unicode="&#xf4;" horiz-adv-x="1174" 
d="M846 524q0 184 -60 276q-60 91 -198 91t-200 -91q-62 -92 -62 -276t62 -276t198 -92t198 92t62 276zM952 113q-117 -144 -364 -144q-484 0 -484 553q0 406 264 518q92 38 220 39q128 -1 218 -39q92 -38 150 -110q114 -141 113 -407q0 -266 -117 -410zM753 1208l-164 205
l-167 -205h-179l232 361h227l232 -361h-181z" />
    <glyph glyph-name="otilde" unicode="&#xf5;" horiz-adv-x="1174" 
d="M846 524q0 184 -60 276q-60 91 -198 91t-200 -91q-62 -92 -62 -276t62 -276t198 -92t198 92t62 276zM952 113q-117 -144 -364 -144q-484 0 -484 553q0 406 264 518q92 38 220 39q128 -1 218 -39q92 -38 150 -110q114 -141 113 -407q0 -266 -117 -410zM429 1356
q-75 0 -81 -131h-152q10 206 139 269q45 22 95 22t82 -10t58 -27q26 -16 48 -34q22 -19 58 -45q35 -26 71 -26q70 0 82 127h152q-23 -291 -248 -291q-104 0 -181 73q-48 45 -73 59t-50 14z" />
    <glyph glyph-name="odieresis" unicode="&#xf6;" horiz-adv-x="1174" 
d="M846 524q0 184 -60 276q-60 91 -198 91t-200 -91q-62 -92 -62 -276t62 -276t198 -92t198 92t62 276zM952 113q-117 -144 -364 -144q-484 0 -484 553q0 406 264 518q92 38 220 39q128 -1 218 -39q92 -38 150 -110q114 -141 113 -407q0 -266 -117 -410zM503 1324
q0 -64 -30 -92q-29 -26 -99 -26t-95 31t-25 91t27 88t97 28t97 -28q28 -28 28 -92zM923 1324q-1 -64 -31 -92q-30 -26 -99 -26t-95 31t-25 91q-1 60 27 88t98 28t97 -28q28 -28 28 -92z" />
    <glyph glyph-name="divide" unicode="&#xf7;" horiz-adv-x="1427" 
d="M606 23v215h213v-215h-213zM147 496v174h1131v-174h-1131zM606 930v215h213v-215h-213z" />
    <glyph glyph-name="oslash" unicode="&#xf8;" horiz-adv-x="1174" 
d="M588 156q258 0 258 344q0 160 -29 237l-371 -547q57 -34 142 -34zM588 891q-137 0 -199.5 -91t-62.5 -255t32 -244l373 551q-55 39 -143 39zM104 522q0 407 178 482t318 75t244 -59l71 104h162l-129 -190q121 -141 121 -412q0 -403 -177 -478t-317 -75t-241 56l-68 -101
h-162l123 182q-123 138 -123 416z" />
    <glyph glyph-name="ugrave" unicode="&#xf9;" horiz-adv-x="1190" 
d="M508 166q132 0 309 162v721h215v-1049h-215v145q-176 -176 -379 -176q-150 0 -219 94t-69 285v701h215v-598q0 -167 21 -211t51 -59t71 -15zM575 1208l-285 361h275l184 -361h-174z" />
    <glyph glyph-name="uacute" unicode="&#xfa;" horiz-adv-x="1190" 
d="M508 166q132 0 309 162v721h215v-1049h-215v145q-176 -176 -379 -176q-150 0 -219 94t-69 285v701h215v-598q0 -167 21 -211t51 -59t71 -15zM625 1208h-174l184 361h274z" />
    <glyph glyph-name="ucircumflex" unicode="&#xfb;" horiz-adv-x="1190" 
d="M508 166q132 0 309 162v721h215v-1049h-215v145q-176 -176 -379 -176q-150 0 -219 94t-69 285v701h215v-598q0 -167 21 -211t51 -59t71 -15zM755 1208l-164 205l-167 -205h-179l232 361h227l232 -361h-181z" />
    <glyph glyph-name="udieresis" unicode="&#xfc;" horiz-adv-x="1190" 
d="M508 166q132 0 309 162v721h215v-1049h-215v145q-176 -176 -379 -176q-150 0 -219 94t-69 285v701h215v-598q0 -167 21 -211t51 -59t71 -15zM503 1324q0 -64 -30 -92q-29 -26 -99 -26t-95 31t-25 91t27 88t97 28t97 -28q28 -28 28 -92zM923 1324q-1 -64 -31 -92
q-30 -26 -99 -26t-95 31t-25 91q-1 60 27 88t98 28t97 -28q28 -28 28 -92z" />
    <glyph glyph-name="yacute" unicode="&#xfd;" horiz-adv-x="1063" 
d="M164 -211q54 1 80 11t63 45q36 35 80 143l31 75l-381 986h227l268 -719l273 719h221l-451 -1125q-72 -177 -155 -248t-209 -71t-223 30l49 183q73 -29 127 -29zM560 1208h-174l184 361h274z" />
    <glyph glyph-name="thorn" unicode="&#xfe;" horiz-adv-x="1194" 
d="M621 160q169 0 208 135t39 233q0 361 -231 361q-102 0 -170.5 -47.5t-93.5 -71.5v-508q117 -102 248 -102zM373 950q134 129 327 129t291.5 -147.5t98.5 -393.5t-105.5 -407.5t-316.5 -161.5q-165 0 -295 113v-477h-215v1884h215v-539z" />
    <glyph glyph-name="ydieresis" unicode="&#xff;" horiz-adv-x="1063" 
d="M164 -211q54 1 80 11t63 45q36 35 80 143l31 75l-381 986h227l268 -719l273 719h221l-451 -1125q-72 -177 -155 -248t-209 -71t-223 30l49 183q73 -29 127 -29zM448 1324q0 -64 -30 -92q-30 -26 -100 -26t-94 31q-25 31 -25 91t27 88q26 28 96 28t98 -28t28 -92z
M868 1324q0 -64 -30 -92q-30 -26 -100 -26q-68 0 -94 31t-26 91t28 88t96 28q70 0 98 -28t28 -92z" />
    <glyph glyph-name="Amacron" unicode="&#x100;" horiz-adv-x="1313" 
d="M444 528h412l-205 623zM39 0l465 1384h303l467 -1384h-242l-106 319h-549l-105 -319h-233zM340 1591v162h641v-162h-641z" />
    <glyph glyph-name="amacron" unicode="&#x101;" horiz-adv-x="1118" 
d="M485 147q105 0 269 134v229l-150 -14q-216 -18 -268 -112q-19 -34 -19 -102q0 -66 44 -100t124 -35zM522 901q-177 0 -239 -113l-170 109q69 123 255 166q68 16 168 16q218 0 326 -81q107 -81 107 -285v-713h-205v119q-168 -150 -331 -150t-250 90t-87 236q0 257 250 325
q76 20 168 29l240 23v49q0 145 -134 171q-44 8 -98 9zM221 1255v162h641v-162h-641z" />
    <glyph glyph-name="Abreve" unicode="&#x102;" horiz-adv-x="1313" 
d="M444 528h412l-205 623zM39 0l465 1384h303l467 -1384h-242l-106 319h-549l-105 -319h-233zM662 1710q158 0 186 115h158q0 -127 -91 -215t-253 -88q-163 0 -254 89t-91 214h158q29 -115 187 -115z" />
    <glyph glyph-name="abreve" unicode="&#x103;" horiz-adv-x="1118" 
d="M485 147q105 0 269 134v229l-150 -14q-216 -18 -268 -112q-19 -34 -19 -102q0 -66 44 -100t124 -35zM522 901q-177 0 -239 -113l-170 109q69 123 255 166q68 16 168 16q218 0 326 -81q107 -81 107 -285v-713h-205v119q-168 -150 -331 -150t-250 90t-87 236q0 257 250 325
q76 20 168 29l240 23v49q0 145 -134 171q-44 8 -98 9zM542 1384q158 0 187 115h158q0 -127 -91 -215t-253 -88q-163 0 -254 89t-91 214h158q28 -115 186 -115z" />
    <glyph glyph-name="Aogonek" unicode="&#x104;" horiz-adv-x="1313" 
d="M444 528h412l-205 623zM1020 -170q0 -61 79 -61q43 0 99 34l74 -133q-111 -65 -219 -65q-145 0 -176 67.5t-31 114.5q0 144 178 231l-98 301h-549l-105 -319h-233l465 1384h303l467 -1384q-205 -52 -229.5 -97t-24.5 -73z" />
    <glyph glyph-name="aogonek" unicode="&#x105;" horiz-adv-x="1118" 
d="M485 147q105 0 269 134v229l-150 -14q-216 -19 -251.5 -83.5t-35.5 -130.5t44 -100.5t124 -34.5zM715 -164q0 -67 80 -67q42 0 98 34l76 -133q-111 -65 -219 -65q-147 0 -177 67.5t-30 114.5q0 85 60.5 148.5t160.5 101.5v82q-168 -150 -331 -150t-250 90.5t-87 235.5
q0 258 163.5 302t254.5 52l240 23v49q0 145 -88.5 162.5t-143.5 17.5q-177 0 -239 -113l-170 109q68 123 195.5 152.5t227.5 29.5q218 0 325.5 -81t107.5 -285v-713q-254 -65 -254 -164z" />
    <glyph glyph-name="Cacute" unicode="&#x106;" horiz-adv-x="1327" 
d="M113 692q0 721 614 721q289 1 435 -153q44 -46 77 -101l-186 -135q-57 88 -103 119q-92 63 -219 63q-195 0 -286 -129t-91 -385q0 -397 216 -485q72 -29 152 -29q138 0 213 48t136 141l189 -131q-81 -127 -201 -196t-322 -69q-317 0 -471 180t-153 541zM744 1544h-174
l184 361h274z" />
    <glyph glyph-name="cacute" unicode="&#x107;" horiz-adv-x="1044" 
d="M104 520q0 404 266 520q91 40 220 39q270 0 381 -186l-168 -113q-72 111 -211 111q-138 1 -202 -89t-64 -278t62 -278t208 -90q108 0 174 58q24 21 47 52l168 -110q-122 -187 -383 -187t-380 146q-118 147 -118 405zM611 1208h-174l184 361h274z" />
    <glyph glyph-name="Ccircumflex" unicode="&#x108;" horiz-adv-x="1327" 
d="M113 692q0 721 614 721q289 1 435 -153q44 -46 77 -101l-186 -135q-57 88 -103 119q-92 63 -219 63q-195 0 -286 -129t-91 -385q0 -397 216 -485q72 -29 152 -29q138 0 213 48t136 141l189 -131q-81 -127 -201 -196t-322 -69q-317 0 -471 180t-153 541zM897 1544
l-164 205l-167 -205h-179l232 361h227l232 -361h-181z" />
    <glyph glyph-name="ccircumflex" unicode="&#x109;" horiz-adv-x="1044" 
d="M104 520q0 404 266 520q91 40 220 39q270 0 381 -186l-168 -113q-72 111 -211 111q-138 1 -202 -89t-64 -278t62 -278t208 -90q108 0 174 58q24 21 47 52l168 -110q-122 -187 -383 -187t-380 146q-118 147 -118 405zM745 1208l-164 205l-167 -205h-179l232 361h227
l232 -361h-181z" />
    <glyph glyph-name="Cdotaccent" unicode="&#x10a;" horiz-adv-x="1327" 
d="M113 692q0 721 614 721q289 1 435 -153q44 -46 77 -101l-186 -135q-57 88 -103 119q-92 63 -219 63q-195 0 -286 -129t-91 -385q0 -397 216 -485q72 -29 152 -29q138 0 213 48t136 141l189 -131q-81 -127 -201 -196t-322 -69q-317 0 -471 180t-153 541zM824 1663
q0 -121 -116 -121q-89 0 -116 31t-27 93t28 92t100 30q71 0 101 -29t30 -96z" />
    <glyph glyph-name="cdotaccent" unicode="&#x10b;" horiz-adv-x="1044" 
d="M104 520q0 404 266 520q91 40 220 39q270 0 381 -186l-168 -113q-72 111 -211 111q-138 1 -202 -89t-64 -278t62 -278t208 -90q108 0 174 58q24 21 47 52l168 -110q-122 -187 -383 -187t-380 146q-118 147 -118 405zM697 1327q0 -121 -116 -121q-89 0 -116 31t-27 93
t28 92t100 30t102 -29t29 -96z" />
    <glyph glyph-name="Ccaron" unicode="&#x10c;" horiz-adv-x="1327" 
d="M113 692q0 721 614 721q289 1 435 -153q44 -46 77 -101l-186 -135q-57 88 -103 119q-92 63 -219 63q-195 0 -286 -129t-91 -385q0 -397 216 -485q72 -29 152 -29q138 0 213 48t136 141l189 -131q-81 -127 -201 -196t-322 -69q-317 0 -471 180t-153 541zM827 1544h-227
l-232 361h181l163 -207l168 207h179z" />
    <glyph glyph-name="ccaron" unicode="&#x10d;" horiz-adv-x="1044" 
d="M104 520q0 404 266 520q91 40 220 39q270 0 381 -186l-168 -113q-72 111 -211 111q-138 1 -202 -89t-64 -278t62 -278t208 -90q108 0 174 58q24 21 47 52l168 -110q-122 -187 -383 -187t-380 146q-118 147 -118 405zM680 1208h-227l-232 361h181l163 -207l168 207h179z
" />
    <glyph glyph-name="Dcaron" unicode="&#x10e;" horiz-adv-x="1303" 
d="M862 1071q-94 100 -344 100h-131v-958h131q251 0 344 102q94 102 94 379t-94 377zM1032 142q-151 -142 -491 -142h-387v1384h383q343 0 503 -156t160 -543q0 -386 -168 -543zM719 1544h-227l-232 361h181l163 -207l168 207h179z" />
    <glyph glyph-name="dcaron" unicode="&#x10f;" horiz-adv-x="1298" 
d="M573 889q-169 0 -208 -136t-39 -233q0 -176 58.5 -268t166.5 -92q146 0 270 119v505q-120 105 -248 105zM535 1079q161 0 286 -112v522h215v-1489h-205v102q-149 -133 -339 -133t-289 148t-99 399q0 382 156.5 472.5t274.5 90.5zM1253 1128h-139l60 361h243z" />
    <glyph glyph-name="Dcroat" unicode="&#x110;" horiz-adv-x="1389" 
d="M928 1070q-104 101 -379 101h-150v-385h328v-184h-328v-389h150q275 0 379 103t104 379q0 274 -104 375zM1096 142q-160 -141 -529 -142h-401v602h-133v184h133v598h399q370 0 540 -156q171 -156 171 -542q0 -385 -180 -544z" />
    <glyph glyph-name="dcroat" unicode="&#x111;" horiz-adv-x="1194" 
d="M573 889q-169 0 -208 -136t-39 -233q0 -176 58.5 -268t166.5 -92q146 0 270 119v505q-120 105 -248 105zM535 1079q161 0 286 -112v229h-289v162h289v131h215v-131h138v-162h-138v-1196h-205v102q-149 -133 -339 -133t-289 148t-99 399q0 382 156.5 472.5t274.5 90.5z
" />
    <glyph glyph-name="Emacron" unicode="&#x112;" horiz-adv-x="1151" 
d="M166 0v1384h872v-208h-639v-351h543v-209h-543v-403h639v-213h-872zM277 1591v162h641v-162h-641z" />
    <glyph glyph-name="emacron" unicode="&#x113;" horiz-adv-x="1112" 
d="M803 637q0 268 -228 268q-167 0 -219 -153q-17 -50 -26 -115h473zM606 156q144 0 230 108l165 -112q-122 -183 -407 -183q-250 1 -370 139t-120 408q0 408 255 522q91 40 215 41q233 0 338 -129q104 -129 104 -358v-113h-690q2 -243 150 -302q52 -21 130 -21zM268 1255
v162h641v-162h-641z" />
    <glyph glyph-name="Ebreve" unicode="&#x114;" horiz-adv-x="1151" 
d="M166 0v1384h872v-208h-639v-351h543v-209h-543v-403h639v-213h-872zM636 1720q158 0 187 115h158q0 -127 -91 -215t-253 -88q-163 0 -254 89t-91 214h158q28 -115 186 -115z" />
    <glyph glyph-name="ebreve" unicode="&#x115;" horiz-adv-x="1112" 
d="M803 637q0 268 -228 268q-167 0 -219 -153q-17 -50 -26 -115h473zM606 156q144 0 230 108l165 -112q-122 -183 -407 -183q-250 1 -370 139t-120 408q0 408 255 522q91 40 215 41q233 0 338 -129q104 -129 104 -358v-113h-690q2 -243 150 -302q52 -21 130 -21zM580 1384
q158 0 186 115h158q0 -127 -91 -215t-253 -88q-163 0 -254 89t-91 214h158q29 -115 187 -115z" />
    <glyph glyph-name="Edotaccent" unicode="&#x116;" horiz-adv-x="1151" 
d="M166 0v1384h872v-208h-639v-351h543v-209h-543v-403h639v-213h-872zM728 1663q0 -121 -116 -121q-89 0 -116 31t-27 93t28 92t100 30q71 0 101 -29t30 -96z" />
    <glyph glyph-name="edotaccent" unicode="&#x117;" horiz-adv-x="1112" 
d="M803 637q0 268 -228 268q-167 0 -219 -153q-17 -50 -26 -115h473zM606 156q144 0 230 108l165 -112q-122 -183 -407 -183q-250 1 -370 139t-120 408q0 408 255 522q91 40 215 41q233 0 338 -129q104 -129 104 -358v-113h-690q2 -243 150 -302q52 -21 130 -21zM703 1327
q0 -121 -116 -121q-89 0 -116 31t-27 93t28 92t100 30t102 -29t29 -96z" />
    <glyph glyph-name="Eogonek" unicode="&#x118;" horiz-adv-x="1151" 
d="M784 -164q0 -67 80 -67q43 0 99 34l73 -133q-109 -65 -219 -65q-145 0 -176 67.5t-31 114.5q0 126 144 213h-588v1384h872v-208h-639v-351h543v-209h-543v-403h639v-213q-254 -65 -254 -164z" />
    <glyph glyph-name="eogonek" unicode="&#x119;" horiz-adv-x="1112" 
d="M803 637q0 268 -228 268q-167 0 -201.5 -101.5t-43.5 -166.5h473zM797 -395q-147 0 -177 65t-30 115q0 93 78 186q-14 -2 -18 -2h-42q-261 0 -382.5 138.5t-121.5 408.5q0 409 173 486t297 77q233 0 337.5 -128.5t104.5 -358.5v-113h-690q3 -243 103 -283t177 -40
q144 0 230 108l165 -112q-33 -51 -95 -106q-144 -128 -144 -216q0 -61 67 -61q55 0 111 34l76 -133q-111 -65 -219 -65z" />
    <glyph glyph-name="Ecaron" unicode="&#x11a;" horiz-adv-x="1151" 
d="M166 0v1384h872v-208h-639v-351h543v-209h-543v-403h639v-213h-872zM700 1544h-227l-232 361h181l163 -207l168 207h179z" />
    <glyph glyph-name="ecaron" unicode="&#x11b;" horiz-adv-x="1112" 
d="M803 637q0 268 -228 268q-167 0 -219 -153q-17 -50 -26 -115h473zM606 156q144 0 230 108l165 -112q-122 -183 -407 -183q-250 1 -370 139t-120 408q0 408 255 522q91 40 215 41q233 0 338 -129q104 -129 104 -358v-113h-690q2 -243 150 -302q52 -21 130 -21zM688 1208
h-227l-232 361h181l163 -207l168 207h179z" />
    <glyph glyph-name="Gcircumflex" unicode="&#x11c;" horiz-adv-x="1403" 
d="M1069 1022q-107 184 -315 184q-108 0 -178 -28q-222 -87 -222 -494q0 -258 92 -382t293 -124q137 0 279 64v272h-303v209h536v-604q-229 -148 -508 -148q-324 -1 -477 177t-153 536q0 729 622 729q374 0 518 -254zM897 1544l-164 205l-167 -205h-179l232 361h227
l232 -361h-181z" />
    <glyph glyph-name="gcircumflex" unicode="&#x11d;" horiz-adv-x="1194" 
d="M821 784q-120 105 -242 105t-188 -97q-65 -97 -65 -253q0 -349 229 -349q132 0 266 119v475zM537 1079q167 0 299 -123l16 93h184v-1029q0 -213 -118 -314t-365 -101t-410 94l70 174q154 -84 316 -84t227 53t65 178v105q-137 -125 -326 -125q-190 0 -290 144
q-101 144 -101 383t98 384q114 168 335 168zM759 1208l-164 205l-167 -205h-179l232 361h227l232 -361h-181z" />
    <glyph glyph-name="Gbreve" unicode="&#x11e;" horiz-adv-x="1403" 
d="M1069 1022q-107 184 -315 184q-108 0 -178 -28q-222 -87 -222 -494q0 -258 92 -382t293 -124q137 0 279 64v272h-303v209h536v-604q-229 -148 -508 -148q-324 -1 -477 177t-153 536q0 729 622 729q374 0 518 -254zM732 1720q158 0 186 115h158q0 -127 -91 -215t-253 -88
q-163 0 -254 89t-91 214h158q29 -115 187 -115z" />
    <glyph glyph-name="gbreve" unicode="&#x11f;" horiz-adv-x="1194" 
d="M821 784q-120 105 -242 105t-188 -97q-65 -97 -65 -253q0 -349 229 -349q132 0 266 119v475zM537 1079q167 0 299 -123l16 93h184v-1029q0 -213 -118 -314t-365 -101t-410 94l70 174q154 -84 316 -84t227 53t65 178v105q-137 -125 -326 -125q-190 0 -290 144
q-101 144 -101 383t98 384q114 168 335 168zM576 1384q158 0 186 115h158q0 -127 -91 -215t-253 -88q-163 0 -254 89t-91 214h158q29 -115 187 -115z" />
    <glyph glyph-name="Gdotaccent" unicode="&#x120;" horiz-adv-x="1403" 
d="M1069 1022q-107 184 -315 184q-108 0 -178 -28q-222 -87 -222 -494q0 -258 92 -382t293 -124q137 0 279 64v272h-303v209h536v-604q-229 -148 -508 -148q-324 -1 -477 177t-153 536q0 729 622 729q374 0 518 -254zM848 1663q0 -121 -116 -121q-89 0 -116 31t-27 93t28 92
t100 30q71 0 101 -29t30 -96z" />
    <glyph glyph-name="gdotaccent" unicode="&#x121;" horiz-adv-x="1194" 
d="M821 784q-120 105 -242 105t-188 -97q-65 -97 -65 -253q0 -349 229 -349q132 0 266 119v475zM537 1079q167 0 299 -123l16 93h184v-1029q0 -213 -118 -314t-365 -101t-410 94l70 174q154 -84 316 -84t227 53t65 178v105q-137 -125 -326 -125q-190 0 -290 144
q-101 144 -101 383t98 384q114 168 335 168zM697 1327q0 -121 -116 -121q-89 0 -116 31t-27 93t28 92t100 30t102 -29t29 -96z" />
    <glyph glyph-name="Gcommaaccent" unicode="&#x122;" horiz-adv-x="1403" 
d="M1069 1022q-107 184 -315 184q-108 0 -178 -28q-222 -87 -222 -494q0 -258 92 -382t293 -124q137 0 279 64v272h-303v209h536v-604q-229 -148 -508 -148q-324 -1 -477 177t-153 536q0 729 622 729q374 0 518 -254zM901 -260q0 -151 -113 -287h-135q79 100 82 168
q-63 1 -91 33t-28 82q0 87 33 121t111 34q141 0 141 -151z" />
    <glyph glyph-name="gcommaaccent" unicode="&#x123;" horiz-adv-x="1194" 
d="M821 784q-120 105 -242 105t-188 -97q-65 -97 -65 -253q0 -349 229 -349q132 0 266 119v475zM537 1079q167 0 299 -123l16 93h184v-1029q0 -213 -118 -314t-365 -101t-410 94l70 174q154 -84 316 -84t227 53t65 178v105q-137 -125 -326 -125q-190 0 -290 144
q-101 144 -101 383t98 384q114 168 335 168zM588 1436q119 -6 119 -115q0 -85 -31 -121q-31 -35 -110 -35q-78 1 -111 41t-33 115q0 147 115 283h135q-81 -102 -84 -168z" />
    <glyph glyph-name="Hcircumflex" unicode="&#x124;" horiz-adv-x="1386" 
d="M987 0v610h-588v-610h-233v1384h233v-561h588v561h234v-1384h-234zM862 1544l-164 205l-167 -205h-179l232 361h227l232 -361h-181z" />
    <glyph glyph-name="hcircumflex" unicode="&#x125;" horiz-adv-x="1190" 
d="M373 903q177 176 379 176q150 0 219 -95t69 -284v-700h-215v598q0 166 -22 210q-22 45 -52 60t-79 15q-117 0 -299 -162v-721h-215v1489h215v-586zM796 1544l-164 205l-167 -205h-179l232 361h227l232 -361h-181z" />
    <glyph glyph-name="Hbar" unicode="&#x126;" horiz-adv-x="1386" 
d="M987 823v183h-588v-183h588zM987 0v610h-588v-610h-233v1006h-146v174h146v204h233v-204h588v204h234v-204h145v-174h-145v-1006h-234z" />
    <glyph glyph-name="hbar" unicode="&#x127;" horiz-adv-x="1190" 
d="M373 903q177 176 379 176q150 0 219 -94.5t69 -284.5v-700h-215v598q0 166 -22 210.5t-52 59.5t-79 15q-117 0 -299 -162v-721h-215v1196h-156v162h156v131h215v-131h270v-162h-270v-293z" />
    <glyph glyph-name="Itilde" unicode="&#x128;" horiz-adv-x="821" 
d="M719 0h-617v188h191v1008h-191v188h617v-188h-193v-1008h193v-188zM254 1692q-75 0 -81 -131h-152q10 206 139 269q46 22 96 22t82 -10t57 -27q27 -16 49 -34q22 -19 57 -45q35 -27 71 -26q70 0 82 127h152q-23 -291 -248 -291q-104 0 -181 73q-48 45 -73 59t-50 14z" />
    <glyph glyph-name="itilde" unicode="&#x129;" horiz-adv-x="530" 
d="M158 0v1049h215v-1049h-215zM105 1356q-75 0 -81 -131h-152q10 206 139 269q45 22 95 22t82 -10t58 -27q26 -16 48 -34q22 -19 58 -45q35 -27 71 -26q70 0 82 127h152q-23 -291 -248 -291q-104 0 -181 73q-48 45 -73 59t-50 14z" />
    <glyph glyph-name="Imacron" unicode="&#x12a;" horiz-adv-x="821" 
d="M719 0h-617v188h191v1008h-191v188h617v-188h-193v-1008h193v-188zM93 1591v162h641v-162h-641z" />
    <glyph glyph-name="imacron" unicode="&#x12b;" horiz-adv-x="530" 
d="M158 0v1049h215v-1049h-215zM-56 1255v162h641v-162h-641z" />
    <glyph glyph-name="Ibreve" unicode="&#x12c;" horiz-adv-x="821" 
d="M719 0h-617v188h191v1008h-191v188h617v-188h-193v-1008h193v-188zM412 1720q158 0 187 115h158q0 -127 -91 -215t-253 -88q-163 0 -254 89t-91 214h158q28 -115 186 -115z" />
    <glyph glyph-name="ibreve" unicode="&#x12d;" horiz-adv-x="530" 
d="M158 0v1049h215v-1049h-215zM264 1384q158 0 186 115h158q0 -127 -91 -215t-253 -88q-163 0 -254 89t-91 214h158q29 -115 187 -115z" />
    <glyph glyph-name="Iogonek" unicode="&#x12e;" horiz-adv-x="821" 
d="M465 -170q0 -61 79 -61q43 0 99 34l74 -133q-111 -65 -219 -65q-145 0 -176 67.5t-31 114.5q0 126 143 213h-332v188h191v1008h-191v188h617v-188h-193v-1008h193v-188q-205 -52 -229.5 -97t-24.5 -73z" />
    <glyph glyph-name="iogonek" unicode="&#x12f;" horiz-adv-x="530" 
d="M393 1324q0 -64 -31.5 -90t-100.5 -26t-96.5 30t-27.5 90t29 87t98 27t99 -27t30 -91zM160 -172q0 -60 79 -59q43 0 99 34l74 -133q-111 -65 -219 -65q-145 0 -176 67.5t-31 128.5t48 119t124 96v1033h215v-1049q-213 -54 -213 -172z" />
    <glyph glyph-name="Idotaccent" unicode="&#x130;" horiz-adv-x="821" 
d="M719 0h-617v188h191v1008h-191v188h617v-188h-193v-1008h193v-188zM540 1663q0 -121 -116 -121q-89 0 -116 31t-27 93t28 92t100 30q71 0 101 -29t30 -96z" />
    <glyph glyph-name="dotlessi" unicode="&#x131;" horiz-adv-x="530" 
d="M158 0v1049h215v-1049h-215z" />
    <glyph glyph-name="IJ" unicode="&#x132;" horiz-adv-x="1663" 
d="M719 0h-617v188h191v1008h-191v188h617v-188h-193v-1008h193v-188zM1495 377q-1 -315 -233 -384q-80 -24 -149 -24q-179 0 -318 51l78 205q49 -26 114 -38q65 -11 104 -11q94 0 132 57q39 57 39 220v931h233v-1007z" />
    <glyph glyph-name="ij" unicode="&#x133;" horiz-adv-x="1079" 
d="M158 0v1049h215v-1049h-215zM393 1324q1 -64 -31 -90t-101 -26t-97 30t-27 90q0 60 29 86q29 28 98 28t99 -27t30 -91zM700 6v1043h215v-1094q0 -185 -77 -268q-77 -82 -259 -82q-111 0 -205 30l50 183q73 -29 132 -29q60 0 84 13t42 48t18 156zM936 1324
q0 -116 -114 -116q-86 0 -113 29t-27 89t28 88t98 28t99 -27t29 -91z" />
    <glyph glyph-name="Jcircumflex" unicode="&#x134;" horiz-adv-x="903" 
d="M735 377q-1 -315 -233 -384q-80 -24 -149 -24q-179 0 -318 51l78 205q49 -26 114 -38q65 -11 104 -11q94 0 132 57q39 57 39 220v931h233v-1007zM784 1544l-164 205l-167 -205h-179l232 361h227l232 -361h-181z" />
    <glyph glyph-name="jcircumflex" unicode="&#x135;" horiz-adv-x="549" 
d="M28 -211q60 0 84 13t42 48t18 156v1043h215v-1094q0 -185 -77 -268q-77 -82 -259 -82q-111 0 -205 30l50 183q72 -29 132 -29zM445 1208l-164 205l-167 -205h-179l232 361h227l232 -361h-181z" />
    <glyph glyph-name="Kcommaaccent" unicode="&#x136;" horiz-adv-x="1272" 
d="M399 0h-233v1384h233v-610l519 610h280l-541 -616l574 -768h-295l-430 596l-107 -123v-473zM768 -260q0 -151 -113 -287h-135q79 100 82 168q-62 1 -90 33t-29 82q0 87 33 121t111 34q141 0 141 -151z" />
    <glyph glyph-name="kcommaaccent" unicode="&#x137;" horiz-adv-x="1073" 
d="M373 0h-215v1489h215v-891l389 451h254l-406 -451l428 -598h-252l-307 453l-106 -117v-336zM531 -109q141 0 141 -151t-113 -287h-135q79 100 82 168q-62 1 -90 33t-29 82q0 87 33 121t111 34z" />
    <glyph glyph-name="kgreenlandic" unicode="&#x138;" horiz-adv-x="1073" 
d="M961 881q-38 12 -61 12t-50 -29l-240 -266l428 -598h-252l-307 453l-106 -117v-336h-215v1047h215v-449l340 395q65 78 139 78t162 -22z" />
    <glyph glyph-name="Lacute" unicode="&#x139;" horiz-adv-x="1038" 
d="M166 0v1384h233v-1171h605v-213h-838zM554 1544h-174l184 361h274z" />
    <glyph glyph-name="lacute" unicode="&#x13a;" horiz-adv-x="539" 
d="M162 0v1489h215v-1489h-215zM294 1587h-174l184 361h274z" />
    <glyph glyph-name="Lcommaaccent" unicode="&#x13b;" horiz-adv-x="1038" 
d="M166 0v1384h233v-1171h605v-213h-838zM733 -260q0 -151 -113 -287h-135q79 100 82 168q-63 1 -91 33t-28 82q0 87 33 121t111 34q141 0 141 -151z" />
    <glyph glyph-name="lcommaaccent" unicode="&#x13c;" horiz-adv-x="539" 
d="M162 0v1489h215v-1489h-215zM413 -260q0 -151 -113 -287h-135q79 100 82 168q-63 1 -91 33t-28 82q0 87 33 121t111 34q141 0 141 -151z" />
    <glyph glyph-name="Lcaron" unicode="&#x13d;" horiz-adv-x="1038" 
d="M166 0v1384h233v-1171h605v-213h-838zM655 1025h-141l61 361h242z" />
    <glyph glyph-name="lcaron" unicode="&#x13e;" horiz-adv-x="641" 
d="M594 1128h-141l61 361h242zM162 0v1489h215v-1489h-215z" />
    <glyph glyph-name="Ldot" unicode="&#x13f;" horiz-adv-x="1038" 
d="M166 0v1384h233v-1171h605v-213h-838zM920 753q0 -121 -116 -121q-89 0 -116 31t-27 93t28 92t100 30q71 0 101 -29t30 -96z" />
    <glyph glyph-name="ldot" unicode="&#x140;" horiz-adv-x="774" 
d="M162 0v1489h215v-1489h-215zM781 753q0 -121 -116 -121q-89 0 -116 31t-27 93t28 92t100 30t102 -29t29 -96z" />
    <glyph glyph-name="Lslash" unicode="&#x141;" horiz-adv-x="1038" 
d="M166 0v514l-146 -115v222l146 114v649h233v-477l238 189v-222l-238 -188v-473h605v-213h-838z" />
    <glyph glyph-name="lslash" unicode="&#x142;" horiz-adv-x="539" 
d="M377 0h-215v557l-142 -131v201l142 131v731h215v-539l141 131v-200l-141 -131v-750z" />
    <glyph glyph-name="Nacute" unicode="&#x143;" horiz-adv-x="1399" 
d="M393 0h-227v1384h317l523 -1011v1011h227v-1384h-277l-563 1087v-1087zM723 1544h-174l184 361h274z" />
    <glyph glyph-name="nacute" unicode="&#x144;" horiz-adv-x="1190" 
d="M373 903q176 176 379 176q150 0 219 -94t69 -285v-700h-215v598q1 166 -21 211q-22 44 -52 59t-80 15q-117 0 -299 -162v-721h-215v1049h215v-146zM639 1208h-174l184 361h274z" />
    <glyph glyph-name="Ncommaaccent" unicode="&#x145;" horiz-adv-x="1399" 
d="M393 0h-227v1384h317l523 -1011v1011h227v-1384h-277l-563 1087v-1087zM862 -260q0 -151 -113 -287h-135q79 100 82 168q-62 1 -90 33t-29 82q0 87 33 121t111 34q141 0 141 -151z" />
    <glyph glyph-name="ncommaaccent" unicode="&#x146;" horiz-adv-x="1190" 
d="M373 903q176 176 379 176q150 0 219 -94t69 -285v-700h-215v598q1 166 -21 211q-22 44 -52 59t-80 15q-117 0 -299 -162v-721h-215v1049h215v-146zM729 -260q0 -151 -113 -287h-135q79 100 82 168q-63 1 -91 33t-28 82q0 87 33 121t111 34q141 0 141 -151z" />
    <glyph glyph-name="Ncaron" unicode="&#x147;" horiz-adv-x="1399" 
d="M393 0h-227v1384h317l523 -1011v1011h227v-1384h-277l-563 1087v-1087zM807 1544h-227l-232 361h181l163 -207l168 207h179z" />
    <glyph glyph-name="ncaron" unicode="&#x148;" horiz-adv-x="1190" 
d="M373 903q176 176 379 176q150 0 219 -94t69 -285v-700h-215v598q1 166 -21 211q-22 44 -52 59t-80 15q-117 0 -299 -162v-721h-215v1049h215v-146zM723 1208h-227l-232 361h181l163 -207l168 207h179z" />
    <glyph glyph-name="napostrophe" unicode="&#x149;" horiz-adv-x="1366" 
d="M549 903q176 176 379 176q150 0 219 -94t69 -285v-700h-215v598q1 166 -21 211q-22 44 -52 59t-80 15q-117 0 -299 -162v-721h-215v1049h215v-146zM122 1413q141 0 141 -150q0 -177 -79 -329q-22 -42 -44 -72h-147q72 96 97 230q6 32 7 51q-63 1 -91 33t-28 82
q0 87 33 121t111 34z" />
    <glyph glyph-name="Eng" unicode="&#x14a;" horiz-adv-x="1399" 
d="M869 -211q60 0 84.5 12t42.5 46t18 153l-621 1087v-1087h-227v1384h317l523 -956v956h227v-1429q0 -184 -78.5 -267t-261.5 -83q-111 0 -205 30l49 183q72 -29 132 -29z" />
    <glyph glyph-name="eng" unicode="&#x14b;" horiz-adv-x="1190" 
d="M373 903q176 176 379 176q150 0 219 -94t69 -285v-745q0 -185 -76.5 -267.5t-258.5 -82.5q-115 0 -205 30l49 183q72 -29 132 -29q59 0 83.5 13t42.5 49t18 155v592q0 166 -21.5 210.5t-51.5 59.5t-80 15q-117 0 -299 -162v-721h-215v1049h215v-146z" />
    <glyph glyph-name="Omacron" unicode="&#x14c;" horiz-adv-x="1364" 
d="M1018 692q0 265 -78 389q-78 125 -259 125t-259 -125t-78 -389q0 -265 79 -390q79 -124 259 -124q181 0 258 124q78 125 78 390zM102 692q0 721 580 721q448 0 548 -416q32 -134 32 -305q0 -721 -580 -721t-580 721zM365 1591v162h641v-162h-641z" />
    <glyph glyph-name="omacron" unicode="&#x14d;" horiz-adv-x="1174" 
d="M846 524q0 184 -60 276q-60 91 -198 91t-200 -91q-62 -92 -62 -276t62 -276t198 -92t198 92t62 276zM952 113q-117 -144 -364 -144q-484 0 -484 553q0 406 264 518q92 38 220 39q128 -1 218 -39q92 -38 150 -110q114 -141 113 -407q0 -266 -117 -410zM260 1255v162h641
v-162h-641z" />
    <glyph glyph-name="Obreve" unicode="&#x14e;" horiz-adv-x="1364" 
d="M1018 692q0 265 -78 389q-78 125 -259 125t-259 -125t-78 -389q0 -265 79 -390q79 -124 259 -124q181 0 258 124q78 125 78 390zM102 692q0 721 580 721q448 0 548 -416q32 -134 32 -305q0 -721 -580 -721t-580 721zM680 1720q158 0 186 115h158q0 -127 -91 -215
t-253 -88q-163 0 -254 89t-91 214h158q29 -115 187 -115z" />
    <glyph glyph-name="obreve" unicode="&#x14f;" horiz-adv-x="1174" 
d="M846 524q0 184 -60 276q-60 91 -198 91t-200 -91q-62 -92 -62 -276t62 -276t198 -92t198 92t62 276zM952 113q-117 -144 -364 -144q-484 0 -484 553q0 406 264 518q92 38 220 39q128 -1 218 -39q92 -38 150 -110q114 -141 113 -407q0 -266 -117 -410zM590 1384
q158 0 186 115h158q0 -127 -91 -215t-253 -88q-163 0 -254 89t-91 214h158q29 -115 187 -115z" />
    <glyph glyph-name="Ohungarumlaut" unicode="&#x150;" horiz-adv-x="1364" 
d="M1018 692q0 265 -78 389q-78 125 -259 125t-259 -125t-78 -389q0 -265 79 -390q79 -124 259 -124q181 0 258 124q78 125 78 390zM102 692q0 721 580 721q448 0 548 -416q32 -134 32 -305q0 -721 -580 -721t-580 721zM553 1544h-174l185 361h274zM934 1544h-172l183 361
h276z" />
    <glyph glyph-name="ohungarumlaut" unicode="&#x151;" horiz-adv-x="1174" 
d="M846 524q0 184 -60 276q-60 91 -198 91t-200 -91q-62 -92 -62 -276t62 -276t198 -92t198 92t62 276zM952 113q-117 -144 -364 -144q-484 0 -484 553q0 406 264 518q92 38 220 39q128 -1 218 -39q92 -38 150 -110q114 -141 113 -407q0 -266 -117 -410zM460 1208h-174
l185 361h274zM841 1208h-172l183 361h276z" />
    <glyph glyph-name="OE" unicode="&#x152;" horiz-adv-x="1884" 
d="M742 1206q-117 0 -188.5 -32t-115.5 -96t-64 -160.5t-20 -293t87 -321.5t288 -125q125 0 221 53v920q-91 55 -208 55zM717 -29q-604 0 -604 721t604 721q113 0 235 -29h820v-208h-586v-355h495v-209h-495v-399h586v-213h-818q-101 -29 -237 -29z" />
    <glyph glyph-name="oe" unicode="&#x153;" horiz-adv-x="1847" 
d="M794 788q-52 103 -197 103q-146 0 -208.5 -91.5t-62.5 -275.5t61.5 -276t205.5 -92t198.5 99.5t54.5 264.5t-52 268zM1538 637q0 268 -227 268q-172 0 -205.5 -101t-40.5 -167h473zM1751 592v-113h-690q2 -158 65 -240.5t211 -82.5t234 108l166 -112q-122 -183 -392 -183
t-391 172q-127 -172 -366 -172q-484 0 -484 553q0 406 176.5 481.5t302.5 75.5t221 -46.5t150 -125.5q118 172 369 172q428 0 428 -487z" />
    <glyph glyph-name="Racute" unicode="&#x154;" horiz-adv-x="1260" 
d="M831 1135q-60 45 -200 45h-232v-430h219q156 0 215 48q58 48 58 170t-60 167zM1130 983q0 -348 -288 -408l372 -575h-270l-352 545h-193v-545h-233v1384h467q255 0 376 -93q121 -92 121 -308zM637 1544h-174l184 361h274z" />
    <glyph glyph-name="racute" unicode="&#x155;" horiz-adv-x="825" 
d="M373 702v-702h-215v1049h215v-160q79 84 132 116q99 60 178 60t118 -21l-43 -206q-43 16 -109 16q-119 0 -276 -152zM466 1208h-174l184 361h274z" />
    <glyph glyph-name="Rcommaaccent" unicode="&#x156;" horiz-adv-x="1260" 
d="M831 1135q-60 45 -200 45h-232v-430h219q156 0 215 48q58 48 58 170t-60 167zM1130 983q0 -348 -288 -408l372 -575h-270l-352 545h-193v-545h-233v1384h467q255 0 376 -93q121 -92 121 -308zM786 -260q0 -151 -113 -287h-135q79 100 82 168q-62 1 -90 33t-29 82
q0 87 33 121t111 34q141 0 141 -151z" />
    <glyph glyph-name="rcommaaccent" unicode="&#x157;" horiz-adv-x="825" 
d="M373 702v-702h-215v1049h215v-160q79 84 132 116q99 60 178 60t118 -21l-43 -206q-43 16 -109 16q-119 0 -276 -152zM409 -260q0 -151 -113 -287h-135q79 100 82 168q-63 1 -91 33t-28 82q0 87 33 121t111 34q141 0 141 -151z" />
    <glyph glyph-name="Rcaron" unicode="&#x158;" horiz-adv-x="1260" 
d="M831 1135q-60 45 -200 45h-232v-430h219q156 0 215 48q58 48 58 170t-60 167zM1130 983q0 -348 -288 -408l372 -575h-270l-352 545h-193v-545h-233v1384h467q255 0 376 -93q121 -92 121 -308zM731 1544h-227l-232 361h181l163 -207l168 207h179z" />
    <glyph glyph-name="rcaron" unicode="&#x159;" horiz-adv-x="825" 
d="M373 702v-702h-215v1049h215v-160q79 84 132 116q99 60 178 60t118 -21l-43 -206q-43 16 -109 16q-119 0 -276 -152zM570 1208h-227l-232 361h181l163 -207l168 207h179z" />
    <glyph glyph-name="Sacute" unicode="&#x15a;" horiz-adv-x="1227" 
d="M414 1158q-68 -48 -68 -133t68 -124t186 -67q120 -28 178 -45t110 -39q240 -103 240 -349q0 -231 -154 -337q-133 -92 -366 -93q-300 0 -450 162q-44 48 -78 103l184 133q58 -90 112 -125q103 -66 234 -66q190 0 256 103q24 37 23 91q0 95 -83 147q-53 34 -179 66
q-125 33 -216 61t-158 72q-144 95 -144 285q0 191 127 300q127 110 366 110q341 0 492 -248l-181 -135q-110 176 -313 176q-118 0 -186 -48zM641 1544h-174l184 361h274z" />
    <glyph glyph-name="sacute" unicode="&#x15b;" horiz-adv-x="1008" 
d="M506 901q-84 -1 -134 -33t-50 -90t42 -87q42 -28 144 -54q218 -54 301 -115q106 -79 106 -236t-115 -237t-294 -80q-307 0 -418 185l164 110q80 -117 234 -117q156 0 202 69q18 26 17 60q0 61 -52 92t-153 56q-100 24 -165 47q-224 79 -224 295q0 139 104 226t302 87
q198 1 320 -107q38 -34 62 -75l-164 -111q-78 115 -229 115zM546 1208h-174l184 361h274z" />
    <glyph glyph-name="Scircumflex" unicode="&#x15c;" horiz-adv-x="1227" 
d="M414 1158q-68 -48 -68 -133t68 -124t186 -67q120 -28 178 -45t110 -39q240 -103 240 -349q0 -231 -154 -337q-133 -92 -366 -93q-300 0 -450 162q-44 48 -78 103l184 133q58 -90 112 -125q103 -66 234 -66q190 0 256 103q24 37 23 91q0 95 -83 147q-53 34 -179 66
q-125 33 -216 61t-158 72q-144 95 -144 285q0 191 127 300q127 110 366 110q341 0 492 -248l-181 -135q-110 176 -313 176q-118 0 -186 -48zM766 1544l-164 205l-167 -205h-179l232 361h227l232 -361h-181z" />
    <glyph glyph-name="scircumflex" unicode="&#x15d;" horiz-adv-x="1008" 
d="M506 901q-84 -1 -134 -33t-50 -90t42 -87q42 -28 144 -54q218 -54 301 -115q106 -79 106 -236t-115 -237t-294 -80q-307 0 -418 185l164 110q80 -117 234 -117q156 0 202 69q18 26 17 60q0 61 -52 92t-153 56q-100 24 -165 47q-224 79 -224 295q0 139 104 226t302 87
q198 1 320 -107q38 -34 62 -75l-164 -111q-78 115 -229 115zM674 1208l-164 205l-167 -205h-179l232 361h227l232 -361h-181z" />
    <glyph glyph-name="Scedilla" unicode="&#x15e;" horiz-adv-x="1227" 
d="M698 -29q156 -37 156 -192q0 -78 -69 -126t-214 -48t-241 45l61 123q100 -39 201 -39q100 0 100 63q0 74 -178 84l45 92q-270 14 -359 112.5t-120 150.5l184 133q58 -90 136.5 -140.5t209.5 -50.5q190 0 234.5 70t44.5 124q0 95 -68 138t-194 75q-125 32 -216 60.5
t-196.5 98t-105.5 259.5q0 191 127 300.5t366 109.5q341 0 492 -248l-181 -135q-110 176 -313 176q-117 0 -185.5 -48t-68.5 -133t68 -123.5t186 -67.5q119 -28 177.5 -45t204.5 -79.5t146 -301.5q0 -123 -62.5 -263t-365.5 -170z" />
    <glyph glyph-name="scedilla" unicode="&#x15f;" horiz-adv-x="1008" 
d="M598 -29q156 -38 156 -192q0 -78 -69.5 -126t-214.5 -48t-241 45l62 123q100 -39 174 -39t100.5 14.5t26.5 48.5q0 74 -178 84l45 90q-269 11 -371 183l164 110q80 -117 234 -117q155 0 187 47.5t32 81.5q0 61 -52 92t-153 56q-100 24 -244.5 75t-144.5 267
q0 139 104.5 226t301.5 87q198 0 278 -70.5t104 -111.5l-164 -111q-78 115 -229 115q-84 0 -134 -32.5t-50 -90.5t41.5 -86.5t144.5 -54.5q218 -54 312.5 -124t94.5 -222q0 -207 -124.5 -257t-190.5 -59z" />
    <glyph glyph-name="Scaron" unicode="&#x160;" horiz-adv-x="1227" 
d="M414 1158q-68 -48 -68 -133t68 -124t186 -67q120 -28 178 -45t110 -39q240 -103 240 -349q0 -231 -154 -337q-133 -92 -366 -93q-300 0 -450 162q-44 48 -78 103l184 133q58 -90 112 -125q103 -66 234 -66q190 0 256 103q24 37 23 91q0 95 -83 147q-53 34 -179 66
q-125 33 -216 61t-158 72q-144 95 -144 285q0 191 127 300q127 110 366 110q341 0 492 -248l-181 -135q-110 176 -313 176q-118 0 -186 -48zM704 1544h-227l-232 361h181l163 -207l168 207h179z" />
    <glyph glyph-name="scaron" unicode="&#x161;" horiz-adv-x="1008" 
d="M506 901q-84 -1 -134 -33t-50 -90t42 -87q42 -28 144 -54q218 -54 301 -115q106 -79 106 -236t-115 -237t-294 -80q-307 0 -418 185l164 110q80 -117 234 -117q156 0 202 69q18 26 17 60q0 61 -52 92t-153 56q-100 24 -165 47q-224 79 -224 295q0 139 104 226t302 87
q198 1 320 -107q38 -34 62 -75l-164 -111q-78 115 -229 115zM609 1208h-227l-232 361h181l163 -207l168 207h179z" />
    <glyph glyph-name="uni0162" unicode="&#x162;" horiz-adv-x="1194" 
d="M668 -203q0 76 -179 86l60 117h-70v1171h-442v213h1118v-213h-442v-1171h-25l-12 -27q72 -18 112.5 -67t40.5 -127t-68 -126t-216 -48t-238 45l60 123q106 -39 177 -39t97.5 14.5t26.5 48.5z" />
    <glyph glyph-name="uni0163" unicode="&#x163;" horiz-adv-x="733" 
d="M537 -29q141 -45 141 -193q0 -76 -69 -124.5t-214 -48.5t-241 45l61 123q100 -39 201 -39q100 0 100 63q0 78 -178 88l49 97q-109 23 -158 105t-49 230v557h-141v175h141v292h215v-292h254v-175h-254v-524q0 -112 21.5 -146.5t46 -45.5t78 -11t123.5 29l45 -176
q-90 -25 -172 -29z" />
    <glyph glyph-name="Tcaron" unicode="&#x164;" horiz-adv-x="1194" 
d="M713 1171v-1171h-234v1171h-442v213h1118v-213h-442zM711 1544h-227l-232 361h181l163 -207l168 207h179z" />
    <glyph glyph-name="tcaron" unicode="&#x165;" horiz-adv-x="733" 
d="M180 317v557h-141v175h141v292h215v-292h254v-175h-254v-524q0 -112 21.5 -146.5t46 -45.5t78 -11t123.5 29l45 -176q-100 -31 -197 -31q-182 0 -257 83t-75 265zM635 1128h-141l61 361h242z" />
    <glyph glyph-name="Tbar" unicode="&#x166;" horiz-adv-x="1194" 
d="M713 1171v-342h205v-161h-205v-668h-234v668h-203v161h203v342h-442v213h1118v-213h-442z" />
    <glyph glyph-name="tbar" unicode="&#x167;" horiz-adv-x="733" 
d="M180 317v240h-160v162h160v155h-141v175h141v292h215v-292h254v-175h-254v-155h267v-162h-267v-207q0 -112 21.5 -146.5t46 -45.5t78 -11t123.5 29l45 -176q-100 -31 -197 -31q-182 0 -257 83t-75 265z" />
    <glyph glyph-name="Utilde" unicode="&#x168;" horiz-adv-x="1421" 
d="M1255 578q0 -333 -126 -471t-419 -138q-294 0 -419 139t-125 470v806h233v-786q0 -237 69 -329q69 -93 241 -93q173 0 243 92t70 326v790h233v-806zM556 1692q-75 0 -81 -131h-152q10 206 139 269q46 22 96 22t82 -10t57 -27q27 -16 49 -34q22 -19 57 -45t71 -26
q70 0 82 127h152q-23 -291 -248 -291q-104 0 -181 73q-48 45 -73 59t-50 14z" />
    <glyph glyph-name="utilde" unicode="&#x169;" horiz-adv-x="1190" 
d="M508 166q132 0 309 162v721h215v-1049h-215v145q-176 -176 -379 -176q-150 0 -219 94t-69 285v701h215v-598q0 -167 21 -211t51 -59t71 -15zM440 1356q-75 0 -81 -131h-152q10 206 139 269q46 22 96 22t82 -10t57 -27q27 -16 49 -34q22 -19 57 -45t71 -26q70 0 82 127
h152q-23 -291 -248 -291q-104 0 -181 73q-48 45 -73 59t-50 14z" />
    <glyph glyph-name="Umacron" unicode="&#x16a;" horiz-adv-x="1421" 
d="M1255 578q0 -333 -126 -471t-419 -138q-294 0 -419 139t-125 470v806h233v-786q0 -237 69 -329q69 -93 241 -93q173 0 243 92t70 326v790h233v-806zM395 1591v162h641v-162h-641z" />
    <glyph glyph-name="umacron" unicode="&#x16b;" horiz-adv-x="1190" 
d="M508 166q132 0 309 162v721h215v-1049h-215v145q-176 -176 -379 -176q-150 0 -219 94t-69 285v701h215v-598q0 -167 21 -211t51 -59t71 -15zM270 1255v162h641v-162h-641z" />
    <glyph glyph-name="Ubreve" unicode="&#x16c;" horiz-adv-x="1421" 
d="M1255 578q0 -333 -126 -471t-419 -138q-294 0 -419 139t-125 470v806h233v-786q0 -237 69 -329q69 -93 241 -93q173 0 243 92t70 326v790h233v-806zM718 1720q158 0 187 115h158q0 -127 -91 -215t-253 -88q-163 0 -254 89t-91 214h158q28 -115 186 -115z" />
    <glyph glyph-name="ubreve" unicode="&#x16d;" horiz-adv-x="1190" 
d="M508 166q132 0 309 162v721h215v-1049h-215v145q-176 -176 -379 -176q-150 0 -219 94t-69 285v701h215v-598q0 -167 21 -211t51 -59t71 -15zM592 1384q158 0 186 115h158q0 -127 -91 -215t-253 -88q-163 0 -254 89t-91 214h158q29 -115 187 -115z" />
    <glyph glyph-name="Uring" unicode="&#x16e;" horiz-adv-x="1421" 
d="M1255 578q0 -333 -126 -471t-419 -138q-294 0 -419 139t-125 470v806h233v-786q0 -237 69 -329q69 -93 241 -93q173 0 243 92t70 326v790h233v-806zM712 1608q92 0 93 95q-1 95 -93 95t-92 -95t92 -95zM927 1702q0 -98 -54 -154t-161 -55q-160 1 -200 125q-12 38 -13 86
q1 97 53 154t162 57t161 -57q52 -58 52 -156z" />
    <glyph glyph-name="uring" unicode="&#x16f;" horiz-adv-x="1190" 
d="M508 166q132 0 309 162v721h215v-1049h-215v145q-176 -176 -379 -176q-150 0 -219 94t-69 285v701h215v-598q0 -167 21 -211t51 -59t71 -15zM572 1272q92 0 92 95t-92 95t-93 -95q1 -95 93 -95zM786 1366q0 -98 -54 -154t-161 -55q-161 1 -201 125q-12 38 -12 86
q0 97 52 154t162 57t162 -57q52 -58 52 -156z" />
    <glyph glyph-name="Uhungarumlaut" unicode="&#x170;" horiz-adv-x="1421" 
d="M1255 578q0 -333 -126 -471t-419 -138q-294 0 -419 139t-125 470v806h233v-786q0 -237 69 -329q69 -93 241 -93q173 0 243 92t70 326v790h233v-806zM583 1544h-174l185 361h274zM964 1544h-172l183 361h276z" />
    <glyph glyph-name="uhungarumlaut" unicode="&#x171;" horiz-adv-x="1190" 
d="M508 166q132 0 309 162v721h215v-1049h-215v145q-176 -176 -379 -176q-150 0 -219 94t-69 285v701h215v-598q0 -167 21 -211t51 -59t71 -15zM473 1208h-174l185 361h274zM854 1208h-172l183 361h276z" />
    <glyph glyph-name="Uogonek" unicode="&#x172;" horiz-adv-x="1421" 
d="M166 578v806h233v-786q0 -237 69 -329.5t241 -92.5t242.5 92t70.5 326v790h233v-806q0 -313 -106 -449q-106 -162 -127 -219t-21 -80q-1 -61 61 -61t118 34l75 -133q-109 -65 -219 -65q-147 0 -177 65.5t-30 115.5q0 91 68 200q-71 -17 -202 -17q-279 0 -404 139
t-125 470z" />
    <glyph glyph-name="uogonek" unicode="&#x173;" horiz-adv-x="1190" 
d="M778 -164q0 -67 80 -67q44 0 98 34l74 -133q-109 -65 -219 -65q-145 0 -176 67.5t-31 114.5q0 164 213 246v112q-176 -176 -379 -176q-150 0 -219 94t-69 285v701h215v-598q0 -167 21 -211t51 -59t71 -15q132 0 309 162v721h215v-1049q-254 -65 -254 -164z" />
    <glyph glyph-name="Wcircumflex" unicode="&#x174;" horiz-adv-x="1794" 
d="M1393 0h-254l-246 1012l-248 -1012h-252l-338 1384h232l239 -1011l246 1011h244l250 -1017l243 1017h230zM1063 1544l-164 205l-167 -205h-179l232 361h227l232 -361h-181z" />
    <glyph glyph-name="wcircumflex" unicode="&#x175;" horiz-adv-x="1520" 
d="M1204 0h-196l-246 735l-248 -735h-197l-272 1049h223l170 -738l242 738h170l246 -736l164 736h215zM929 1208l-164 205l-167 -205h-179l232 361h227l232 -361h-181z" />
    <glyph glyph-name="Ycircumflex" unicode="&#x176;" horiz-adv-x="1167" 
d="M700 0h-235v524l-436 860h258l299 -626l303 626h248l-437 -854v-530zM749 1544l-164 205l-167 -205h-179l232 361h227l232 -361h-181z" />
    <glyph glyph-name="ycircumflex" unicode="&#x177;" horiz-adv-x="1063" 
d="M164 -211q54 1 80 11t63 45q36 35 80 143l31 75l-381 986h227l268 -719l273 719h221l-451 -1125q-72 -177 -155 -248t-209 -71t-223 30l49 183q73 -29 127 -29zM695 1208l-164 205l-167 -205h-179l232 361h227l232 -361h-181z" />
    <glyph glyph-name="Ydieresis" unicode="&#x178;" horiz-adv-x="1167" 
d="M700 0h-235v524l-436 860h258l299 -626l303 626h248l-437 -854v-530zM499 1660q0 -64 -30 -92q-29 -26 -99 -26t-95 31t-25 91t27 88t97 28t97 -28q28 -28 28 -92zM919 1660q-1 -64 -31 -92q-30 -26 -99 -26t-95 31t-25 91q-1 60 27 88t98 28t97 -28q28 -28 28 -92z" />
    <glyph glyph-name="Zacute" unicode="&#x179;" horiz-adv-x="1155" 
d="M82 0v207l682 964h-651v213h929v-196l-690 -975h707v-213h-977zM587 1542h-174l184 361h274z" />
    <glyph glyph-name="zacute" unicode="&#x17a;" horiz-adv-x="932" 
d="M70 0v160l518 714h-506v175h764v-156l-520 -719h536v-174h-792zM487 1208h-174l184 361h274z" />
    <glyph glyph-name="Zdotaccent" unicode="&#x17b;" horiz-adv-x="1155" 
d="M82 0v207l682 964h-651v213h929v-196l-690 -975h707v-213h-977zM670 1661q0 -121 -116 -121q-89 0 -116 31t-27 93t28 92t100 30q71 0 101 -29t30 -96z" />
    <glyph glyph-name="zdotaccent" unicode="&#x17c;" horiz-adv-x="932" 
d="M70 0v160l518 714h-506v175h764v-156l-520 -719h536v-174h-792zM577 1327q0 -121 -116 -121q-89 0 -116 31t-27 93t28 92t100 30t102 -29t29 -96z" />
    <glyph glyph-name="Zcaron" unicode="&#x17d;" horiz-adv-x="1155" 
d="M82 0v207l682 964h-651v213h929v-196l-690 -975h707v-213h-977zM663 1542h-227l-232 361h181l163 -207l168 207h179z" />
    <glyph glyph-name="zcaron" unicode="&#x17e;" horiz-adv-x="932" 
d="M70 0v160l518 714h-506v175h764v-156l-520 -719h536v-174h-792zM568 1208h-227l-232 361h181l163 -207l168 207h179z" />
    <glyph glyph-name="longs" unicode="&#x17f;" horiz-adv-x="602" 
d="M427.5 1291q-30.5 -40 -30.5 -140v-1151h-215v874h-129v175h129v102q0 189 82 279t273 90q104 0 198 -33l-49 -187q-71 31 -149 31q-79 0 -109.5 -40z" />
    <glyph glyph-name="florin" unicode="&#x192;" horiz-adv-x="1069" 
d="M732 1299.5q-31 -31.5 -54 -132.5l-25 -118h205l-33 -175h-207l-194 -946q-65 -325 -371 -325q-110 0 -221 35l62 184q93 -31 147 -31t79 8.5t50 38.5t49 144l182 892h-151l35 175h151l27 122q39 180 128 264.5t259 84.5q102 0 213 -35l-70 -189q-105 35 -168 35
q-62 0 -93 -31.5z" />
    <glyph glyph-name="Ohorn" unicode="&#x1a0;" horiz-adv-x="1513" 
d="M1018 692q0 265 -78 389.5t-259 124.5t-259 -125t-78 -389.5t79 -389t259.5 -124.5t258 124.5t77.5 389.5zM682 1413q384 0 512 -315h31q112 0 125.5 64t13.5 112v172h186v-172q0 -244 -108 -287t-189 -43h-14q23 -119 23 -252q0 -721 -580 -721t-580 721t580 721z" />
    <glyph glyph-name="ohorn" unicode="&#x1a1;" horiz-adv-x="1300" 
d="M846 524q0 184 -60.5 275.5t-197.5 91.5t-199.5 -91.5t-62.5 -275.5t61.5 -276t198.5 -92t198.5 92t61.5 276zM1069 498q0 -240 -117.5 -384.5t-363.5 -144.5q-484 0 -484 553q0 407 178 482t306 75q320 0 428 -256q75 0 105 41t30 135v131h186v-131q0 -314 -278 -329
q10 -68 10 -172z" />
    <glyph glyph-name="Uhorn" unicode="&#x1af;" horiz-adv-x="1573" 
d="M1610 1274q0 -330 -316 -330h-39v-366q0 -333 -125.5 -471t-419 -138t-419 139t-125.5 470v806h233v-786q0 -237 69 -329.5t241 -92.5t242.5 92t70.5 326v790h233v-286h29q79 0 109 39.5t30 136.5v172h187v-172z" />
    <glyph glyph-name="uhorn" unicode="&#x1b0;" horiz-adv-x="1339" 
d="M508 166q132 0 309 162v721h215v-226h23q78 0 107.5 40t29.5 136v131h184v-131q0 -329 -311 -329h-33v-670h-215v145q-176 -176 -379 -176q-150 0 -219 94t-69 285v701h215v-598q0 -167 21 -211t51 -59t71 -15z" />
    <glyph glyph-name="Acaron" unicode="&#x1cd;" horiz-adv-x="1313" 
d="M444 528h412l-205 623zM39 0l465 1384h303l467 -1384h-242l-106 319h-549l-105 -319h-233zM770 1544h-227l-232 361h181l163 -207l168 207h179z" />
    <glyph glyph-name="acaron" unicode="&#x1ce;" horiz-adv-x="1118" 
d="M485 147q105 0 269 134v229l-150 -14q-216 -18 -268 -112q-19 -34 -19 -102q0 -66 44 -100t124 -35zM522 901q-177 0 -239 -113l-170 109q69 123 255 166q68 16 168 16q218 0 326 -81q107 -81 107 -285v-713h-205v119q-168 -150 -331 -150t-250 90t-87 236q0 257 250 325
q76 20 168 29l240 23v49q0 145 -134 171q-44 8 -98 9zM672 1208h-227l-232 361h181l163 -207l168 207h179z" />
    <glyph glyph-name="Icaron" unicode="&#x1cf;" horiz-adv-x="821" 
d="M719 0h-617v188h191v1008h-191v188h617v-188h-193v-1008h193v-188zM523 1544h-227l-232 361h181l163 -207l168 207h179z" />
    <glyph glyph-name="icaron" unicode="&#x1d0;" horiz-adv-x="530" 
d="M158 0v1049h215v-1049h-215zM380 1208h-227l-232 361h181l163 -207l168 207h179z" />
    <glyph glyph-name="Ocaron" unicode="&#x1d1;" horiz-adv-x="1364" 
d="M1018 692q0 265 -78 389q-78 125 -259 125t-259 -125t-78 -389q0 -265 79 -390q79 -124 259 -124q181 0 258 124q78 125 78 390zM102 692q0 721 580 721q448 0 548 -416q32 -134 32 -305q0 -721 -580 -721t-580 721zM792 1544h-227l-232 361h181l163 -207l168 207h179z
" />
    <glyph glyph-name="ocaron" unicode="&#x1d2;" horiz-adv-x="1174" 
d="M846 524q0 184 -60 276q-60 91 -198 91t-200 -91q-62 -92 -62 -276t62 -276t198 -92t198 92t62 276zM952 113q-117 -144 -364 -144q-484 0 -484 553q0 406 264 518q92 38 220 39q128 -1 218 -39q92 -38 150 -110q114 -141 113 -407q0 -266 -117 -410zM698 1208h-227
l-232 361h181l163 -207l168 207h179z" />
    <glyph glyph-name="Ucaron" unicode="&#x1d3;" horiz-adv-x="1421" 
d="M1255 578q0 -333 -126 -471t-419 -138q-294 0 -419 139t-125 470v806h233v-786q0 -237 69 -329q69 -93 241 -93q173 0 243 92t70 326v790h233v-806zM827 1544h-227l-232 361h181l163 -207l168 207h179z" />
    <glyph glyph-name="ucaron" unicode="&#x1d4;" horiz-adv-x="1190" 
d="M508 166q132 0 309 162v721h215v-1049h-215v145q-176 -176 -379 -176q-150 0 -219 94t-69 285v701h215v-598q0 -167 21 -211t51 -59t71 -15zM706 1208h-227l-232 361h181l163 -207l168 207h179z" />
    <glyph glyph-name="Udieresismacron" unicode="&#x1d5;" horiz-adv-x="1421" 
d="M1255 578q0 -333 -126 -471t-419 -138q-294 0 -419 139t-125 470v806h233v-786q0 -237 69 -329q69 -93 241 -93q173 0 243 92t70 326v790h233v-806zM389 1815v161h641v-161h-641zM624 1622q0 -118 -112 -117q-84 0 -110 30q-27 30 -27 90q0 61 27 89q26 28 96 29
q70 0 98 -28q28 -29 28 -93zM1044 1622q0 -118 -112 -117q-83 0 -111 29q-27 29 -27 91q0 61 28 89t96 29q70 0 98 -28q28 -29 28 -93z" />
    <glyph glyph-name="udieresismacron" unicode="&#x1d6;" horiz-adv-x="1190" 
d="M508 166q132 0 309 162v721h215v-1049h-215v145q-176 -176 -379 -176q-150 0 -219 94t-69 285v701h215v-598q0 -167 21 -211t51 -59t71 -15zM274 1479v161h641v-161h-641zM509 1286q1 -118 -111 -117q-84 0 -111 30t-27 90q0 61 27 89t97 29q70 0 97 -28q28 -29 28 -93z
M929 1286q0 -118 -112 -117q-83 0 -111 29q-27 29 -27 91q-1 61 27 89t98 29q70 0 97 -28q28 -29 28 -93z" />
    <glyph glyph-name="Udieresisacute" unicode="&#x1d7;" horiz-adv-x="1421" 
d="M1255 578q0 -333 -126 -471t-419 -138q-294 0 -419 139t-125 470v806h233v-786q0 -237 69 -329q69 -93 241 -93q173 0 243 92t70 326v790h233v-806zM612 1767l123 301h276l-231 -301h-168zM626 1622q0 -118 -112 -117q-84 0 -110 30q-27 30 -27 90q0 61 27 89
q26 28 96 29q70 0 98 -28q28 -29 28 -93zM1046 1622q0 -118 -112 -117q-83 0 -111 29q-27 29 -27 91q0 61 28 89t96 29q70 0 98 -28q28 -29 28 -93z" />
    <glyph glyph-name="udieresisacute" unicode="&#x1d8;" horiz-adv-x="1190" 
d="M508 166q132 0 309 162v721h215v-1049h-215v145q-176 -176 -379 -176q-150 0 -219 94t-69 285v701h215v-598q0 -167 21 -211t51 -59t71 -15zM493 1432l123 301h276l-231 -301h-168zM507 1286q1 -118 -111 -117q-84 0 -111 30t-27 90q0 61 27 89t97 29q70 0 97 -28
q28 -29 28 -93zM927 1286q0 -118 -112 -117q-83 0 -111 29q-27 29 -27 91q-1 61 27 89t98 29q70 0 97 -28q28 -29 28 -93z" />
    <glyph glyph-name="Udieresiscaron" unicode="&#x1d9;" horiz-adv-x="1421" 
d="M1255 578q0 -333 -126 -471t-419 -138q-294 0 -419 139t-125 470v806h233v-786q0 -237 69 -329q69 -93 241 -93q173 0 243 92t70 326v790h233v-806zM549 2068l163 -155l168 155h179l-232 -290h-227l-232 290h181zM628 1622q0 -64 -30 -90t-100 -27q-70 0 -94 31
q-25 30 -25 90t27 88q26 28 96 27q70 0 98 -27q28 -28 28 -92zM1048 1622q0 -64 -30 -90t-100 -27q-68 0 -94 31q-26 30 -26 90t28 88t96 27q70 0 98 -27q28 -28 28 -92z" />
    <glyph glyph-name="udieresiscaron" unicode="&#x1da;" horiz-adv-x="1190" 
d="M508 166q132 0 309 162v721h215v-1049h-215v145q-176 -176 -379 -176q-150 0 -219 94t-69 285v701h215v-598q0 -167 21 -211t51 -59t71 -15zM430 1733l163 -156l168 156h179l-232 -291h-227l-232 291h181zM509 1286q0 -64 -30 -90q-29 -26 -99 -27q-70 0 -95 31
q-25 30 -25 90t27 88t97 27q70 0 97 -27q28 -28 28 -92zM929 1286q-1 -64 -31 -90t-99 -27q-69 0 -95 31q-26 30 -25 90q-1 60 27 88t98 27q70 0 97 -27q28 -28 28 -92z" />
    <glyph glyph-name="Udieresisgrave" unicode="&#x1db;" horiz-adv-x="1421" 
d="M1255 578q0 -333 -126 -471t-419 -138q-294 0 -419 139t-125 470v806h233v-786q0 -237 69 -329q69 -93 241 -93q173 0 243 92t70 326v790h233v-806zM637 1767l-230 301h275l123 -301h-168zM624 1622q0 -118 -112 -117q-84 0 -110 30q-27 30 -27 90q0 61 27 89
q26 28 96 29q70 0 98 -28q28 -29 28 -93zM1044 1622q0 -118 -112 -117q-83 0 -111 29q-27 29 -27 91q0 61 28 89t96 29q70 0 98 -28q28 -29 28 -93z" />
    <glyph glyph-name="udieresisgrave" unicode="&#x1dc;" horiz-adv-x="1190" 
d="M508 166q132 0 309 162v721h215v-1049h-215v145q-176 -176 -379 -176q-150 0 -219 94t-69 285v701h215v-598q0 -167 21 -211t51 -59t71 -15zM520 1432l-230 301h275l123 -301h-168zM507 1286q1 -118 -111 -117q-84 0 -111 30t-27 90q0 61 27 89t97 29q70 0 97 -28
q28 -29 28 -93zM927 1286q0 -118 -112 -117q-83 0 -111 29q-27 29 -27 91q-1 61 27 89t98 29q70 0 97 -28q28 -29 28 -93z" />
    <glyph glyph-name="Aringacute" unicode="&#x1fa;" horiz-adv-x="1313" 
d="M731 1749h-174l129 276h275zM656 1393q92 0 92 93t-92.5 93t-92.5 -93q1 -93 93 -93zM444 528h412l-205 623zM442 1487q0 95 52 151t162 56t162 -56t52 -151t-49 -144l453 -1343h-242l-106 319h-549l-105 -319h-233l453 1346q-50 46 -50 141z" />
    <glyph glyph-name="aringacute" unicode="&#x1fb;" horiz-adv-x="1118" 
d="M485 147q105 0 269 134v229l-150 -14q-216 -18 -268 -112q-19 -34 -19 -102q0 -66 44 -100t124 -35zM522 901q-177 0 -239 -113l-170 109q69 123 255 166q68 16 168 16q218 0 326 -81q107 -81 107 -285v-713h-205v119q-168 -150 -331 -150t-250 90t-87 236q0 257 250 325
q76 20 168 29l240 23v49q0 145 -134 171q-44 8 -98 9zM530 1270q92 0 92 95t-92 95t-93 -95q1 -95 93 -95zM744 1364q0 -98 -54 -154t-161 -55q-161 1 -201 125q-12 38 -12 86q0 97 52 154t162 57t162 -57q52 -58 52 -156zM566 1632h-174l184 361h274z" />
    <glyph glyph-name="AEacute" unicode="&#x1fc;" horiz-adv-x="1778" 
d="M846 1176h-121l-231 -596h352v596zM846 0v371h-430l-146 -371h-237l542 1384h1090v-208h-586v-355h498v-209h-498v-399h586v-213h-819zM1026 1544h-174l184 361h274z" />
    <glyph glyph-name="aeacute" unicode="&#x1fd;" horiz-adv-x="1755" 
d="M1446 637q0 268 -229 268q-116 1 -173 -67t-71 -201h473zM317 297q0 -150 158 -150q141 0 305 127q-26 78 -26 236l-150 -14q-218 -18 -268 -112q-19 -36 -19 -87zM96 301q0 251 255 319q76 20 163 29l240 23v49q0 143 -132 171q-42 9 -96 9q-176 0 -243 -113l-170 109
q107 182 419 182q268 0 357 -137q114 137 338 137q432 0 432 -487v-113h-690q3 -241 147 -301q52 -22 110 -22q98 0 151 25q54 25 102 83l166 -112q-122 -183 -404 -183t-399 174q-206 -174 -420 -174q-153 0 -239 90q-87 90 -87 242zM914 1208h-174l184 361h274z" />
    <glyph glyph-name="Oslashacute" unicode="&#x1fe;" horiz-adv-x="1364" 
d="M682 1206q-182 0 -260 -125t-78 -356q0 -232 43 -344l512 747q-77 78 -217 78zM1018 692q0 184 -37 299l-512 -745q74 -68 213 -68q181 0 258 124q78 125 78 390zM102 692q0 721 580 721q211 0 346 -98l119 174h174l-188 -277q129 -180 129 -520q0 -721 -580 -721
q-209 0 -340 90l-121 -176h-174l189 277q-134 178 -134 530zM721 1544h-174l184 361h274z" />
    <glyph glyph-name="oslashacute" unicode="&#x1ff;" horiz-adv-x="1174" 
d="M588 156q258 0 258 344q0 160 -29 237l-371 -547q57 -34 142 -34zM588 891q-138 0 -200 -91t-62 -255t32 -244l373 551q-55 39 -143 39zM104 522q0 406 264 518q92 38 232 39q140 0 244 -59l71 104h162l-129 -190q121 -141 121 -412q0 -402 -263 -514q-91 -38 -231 -39
q-140 0 -241 56l-68 -101h-162l123 182q-123 138 -123 416zM613 1208h-174l184 361h274z" />
    <glyph glyph-name="Scommaaccent" unicode="&#x218;" horiz-adv-x="1227" 
d="M414 1158q-68 -48 -68 -133t68 -124t186 -67q120 -28 178 -45t110 -39q240 -103 240 -349q0 -231 -154 -337q-133 -92 -366 -93q-300 0 -450 162q-44 48 -78 103l184 133q58 -90 112 -125q103 -66 234 -66q190 0 256 103q24 37 23 91q0 95 -83 147q-53 34 -179 66
q-125 33 -216 61t-158 72q-144 95 -144 285q0 191 127 300q127 110 366 110q341 0 492 -248l-181 -135q-110 176 -313 176q-118 0 -186 -48zM793 -260q0 -151 -113 -287h-135q79 100 82 168q-63 1 -91 33t-28 82q0 87 33 121t111 34q141 0 141 -151z" />
    <glyph glyph-name="scommaaccent" unicode="&#x219;" horiz-adv-x="1008" 
d="M506 901q-84 -1 -134 -33t-50 -90t42 -87q42 -28 144 -54q218 -54 301 -115q106 -79 106 -236t-115 -237t-294 -80q-307 0 -418 185l164 110q80 -117 234 -117q156 0 202 69q18 26 17 60q0 61 -52 92t-153 56q-100 24 -165 47q-224 79 -224 295q0 139 104 226t302 87
q198 1 320 -107q38 -34 62 -75l-164 -111q-78 115 -229 115zM527 -109q141 0 141 -151t-113 -287h-135q79 100 82 168q-62 1 -90 33t-29 82q0 87 33 121t111 34z" />
    <glyph glyph-name="uni021A" unicode="&#x21a;" horiz-adv-x="1194" 
d="M713 1171v-1171h-234v1171h-442v213h1118v-213h-442zM750 -260q0 -151 -113 -287h-135q79 100 82 168q-62 1 -90 33t-29 82q0 87 33 121t111 34q141 0 141 -151z" />
    <glyph glyph-name="uni021B" unicode="&#x21b;" horiz-adv-x="733" 
d="M180 317v557h-141v175h141v292h215v-292h254v-175h-254v-524q-1 -112 21 -147q22 -34 46 -45t78 -11q53 0 124 29l45 -176q-100 -31 -197 -31q-182 0 -257 83t-75 265zM443 -109q141 0 141 -151t-113 -287h-135q79 100 82 168q-62 1 -90 33t-29 82q0 87 33 121t111 34z
" />
    <glyph glyph-name="dotlessj" unicode="&#x237;" horiz-adv-x="549" 
d="M28 -211q60 0 84.5 13t42 48t17.5 156v1043h215v-1094q0 -185 -76.5 -267.5t-259.5 -82.5q-111 0 -205 30l50 183q72 -29 132 -29z" />
    <glyph glyph-name="uni02C0" unicode="&#x2c0;" horiz-adv-x="1004" 
d="M0 1186q128 227 449 227t392.5 -147.5t71.5 -247.5q0 -179 -96.5 -287.5t-290.5 -218.5v-512h-217v612q204 101 289.5 186.5t85.5 192.5t-64 168.5t-169 61.5t-164 -38.5t-99 -105.5z" />
    <glyph glyph-name="circumflex" unicode="&#x2c6;" 
d="M696 1208l-164 205l-167 -205h-179l232 361h227l232 -361h-181z" />
    <glyph glyph-name="caron" unicode="&#x2c7;" 
d="M645 1208h-227l-232 361h181l163 -207l168 207h179z" />
    <glyph glyph-name="uni02C9" unicode="&#x2c9;" 
d="M211 1255v162h641v-162h-641z" />
    <glyph glyph-name="breve" unicode="&#x2d8;" 
d="M532 1384q158 0 187 115h158q0 -126 -90.5 -214.5t-253.5 -88.5t-254 89t-91 214h158q28 -115 186 -115z" />
    <glyph glyph-name="dotaccent" unicode="&#x2d9;" 
d="M662 1327q0 -121 -116 -121q-89 0 -116 31t-27 93t28 92t100 30t101.5 -29t29.5 -96z" />
    <glyph glyph-name="ring" unicode="&#x2da;" 
d="M530 1270q92 0 93 95q0 95 -92.5 95t-92.5 -95t92 -95zM745 1364q0 -98 -54 -153.5t-161 -55.5q-160 0 -186.5 81.5t-26.5 129.5q0 97 52.5 154t162.5 57t161.5 -57.5t51.5 -155.5z" />
    <glyph glyph-name="ogonek" unicode="&#x2db;" horiz-adv-x="987" 
d="M547 -395q-147 0 -177 67.5t-30 119.5q0 102 97.5 175.5t248.5 106.5l80 -74q-254 -65 -254 -164q0 -67 68 -67q54 0 110 34l76 -133q-111 -65 -219 -65z" />
    <glyph glyph-name="tilde" unicode="&#x2dc;" 
d="M372 1356q-75 0 -81 -131h-152q10 206 97.5 248.5t137.5 42.5t81.5 -10.5t57.5 -26.5t48.5 -34t57.5 -44.5t71 -26.5q70 0 82 127h152q-23 -291 -248 -291q-104 0 -166.5 59t-87.5 73t-50 14z" />
    <glyph glyph-name="hungarumlaut" unicode="&#x2dd;" 
d="M358 1208h-174l185 361h274zM739 1208h-172l183 361h276z" />
    <glyph glyph-name="gravecomb" unicode="&#x300;" horiz-adv-x="0" 
d="M-16 1208l-285 361h274l185 -361h-174z" />
    <glyph glyph-name="acutecomb" unicode="&#x301;" horiz-adv-x="0" 
d="M16 1208h-174l185 361h274z" />
    <glyph glyph-name="uni0302" unicode="&#x302;" horiz-adv-x="0" 
d="M164 1208l-164 205l-168 -205h-178l231 361h228l231 -361h-180z" />
    <glyph glyph-name="tildecomb" unicode="&#x303;" horiz-adv-x="0" 
d="M-179 1356q-57 0 -63 -131h-151q10 206 97.5 248.5t137.5 42.5t81 -10.5t57.5 -26.5t49 -34t56.5 -44.5t72 -26.5q70 0 82 127h151q-23 -291 -248 -291q-74 0 -117 27t-63.5 46t-52.5 46t-89 27z" />
    <glyph glyph-name="uni0304" unicode="&#x304;" horiz-adv-x="0" 
d="M-322 1255v162h641v-162h-641z" />
    <glyph glyph-name="uni0306" unicode="&#x306;" horiz-adv-x="0" 
d="M0 1395q157 0 186 114h158q0 -124 -90.5 -213.5t-252.5 -89.5q-163 0 -254 89.5t-91 213.5h158q29 -114 186 -114z" />
    <glyph glyph-name="uni0307" unicode="&#x307;" horiz-adv-x="0" 
d="M129 1327q1 -121 -115 -121q-89 0 -116 31t-27 93t27.5 92t99.5 30t101.5 -29t29.5 -96z" />
    <glyph glyph-name="uni0308" unicode="&#x308;" horiz-adv-x="0" 
d="M-86 1324q0 -64 -30.5 -91t-99.5 -27t-94.5 31t-25.5 91t27 88t97 28t98 -28t28 -92zM336 1324q0 -64 -30.5 -91t-99.5 -27t-95.5 31t-26.5 91t28 88t97 28t98 -28t29 -92z" />
    <glyph glyph-name="hookabovecomb" unicode="&#x309;" horiz-adv-x="0" 
d="M-20 1516q108 0 160.5 -42t52.5 -110q0 -110 -63.5 -135t-96.5 -29v-39h-113v125h33q74 0 74 56t-63 55q-63 0 -107 -29l-52 94q67 54 175 54z" />
    <glyph glyph-name="uni030A" unicode="&#x30a;" horiz-adv-x="0" 
d="M-1 1258q95 0 95 98t-95 98t-95 -98t95 -98zM201 1354q0 -94 -50.5 -146.5t-153.5 -52.5t-151.5 55t-48.5 147t48.5 145.5t152.5 53.5t153.5 -54t49.5 -148z" />
    <glyph glyph-name="uni030C" unicode="&#x30c;" horiz-adv-x="0" 
d="M113 1208h-228l-231 361h180l164 -207l168 207h178z" />
    <glyph glyph-name="dotbelowcomb" unicode="&#x323;" 
d="M662 -255q0 -122 -116 -122q-88 0 -115.5 31.5t-27.5 93.5q0 63 28 92t100 29t101.5 -28.5t29.5 -95.5z" />
    <glyph glyph-name="uni0374" unicode="&#x374;" horiz-adv-x="428" 
d="M217 1128h-141l61 361h242z" />
    <glyph glyph-name="uni0375" unicode="&#x375;" horiz-adv-x="428" 
d="M225 129h140l-60 -360h-244z" />
    <glyph glyph-name="uni037E" unicode="&#x37e;" horiz-adv-x="569" 
d="M285 258q141 0 141 -150q0 -177 -50.5 -274.5t-72.5 -126.5h-139q62 92 78.5 176.5t17.5 104.5q-63 2 -91 33.5t-28 81.5q0 87 33 121t111 34zM426 910q0 -134 -126 -134q-95 0 -127 33t-32 104q0 70 32.5 103t110.5 33t110 -32.5t32 -106.5z" />
    <glyph glyph-name="tonos" unicode="&#x384;" horiz-adv-x="459" 
d="M172 1208h-172l182 361h277z" />
    <glyph glyph-name="dieresistonos" unicode="&#x385;" 
d="M766 1569l-213 -361h-162l123 361h252zM328 1316q0 -64 -30 -89t-96 -25t-91 30.5t-25 87.5t26.5 86.5t92.5 29.5t94.5 -28t28.5 -92zM979 1316q0 -64 -30 -89t-96 -25t-91 30.5t-25 87.5t27.5 86.5t93.5 29.5t93.5 -28t27.5 -92z" />
    <glyph glyph-name="Alphatonos" unicode="&#x386;" horiz-adv-x="1335" 
d="M467 528h412l-205 623zM62 0l465 1384h303l467 -1384h-242l-106 319h-549l-105 -319h-233zM399 1384l-213 -360h-166l123 360h256z" />
    <glyph glyph-name="anoteleia" unicode="&#x387;" horiz-adv-x="569" 
d="M426 742q0 -134 -126 -134q-95 0 -127 33t-32 104q0 70 32.5 103t110.5 33t110 -32.5t32 -106.5z" />
    <glyph glyph-name="Epsilontonos" unicode="&#x388;" horiz-adv-x="1415" 
d="M430 0v1384h872v-208h-639v-351h543v-209h-543v-403h639v-213h-872zM378 1384l-213 -360h-166l123 360h256z" />
    <glyph glyph-name="Etatonos" unicode="&#x389;" horiz-adv-x="1651" 
d="M1251 0v610h-588v-610h-233v1384h233v-561h588v561h234v-1384h-234zM378 1384l-213 -360h-166l123 360h256z" />
    <glyph glyph-name="Iotatonos" unicode="&#x38a;" horiz-adv-x="1135" 
d="M1032 0h-617v188h191v1008h-191v188h617v-188h-193v-1008h193v-188zM378 1384l-213 -360h-166l123 360h256z" />
    <glyph glyph-name="Omicrontonos" unicode="&#x38c;" horiz-adv-x="1583" 
d="M1237 692q0 265 -78 389q-78 125 -259 125t-259 -125t-78 -389q0 -265 79 -390q79 -124 259 -124q181 0 258 124q78 125 78 390zM321 692q0 721 580 721q447 0 547 -416q32 -134 33 -305q0 -721 -580 -721t-580 721zM378 1384l-213 -360h-166l123 360h256z" />
    <glyph glyph-name="Upsilontonos" unicode="&#x38e;" horiz-adv-x="1548" 
d="M1081 0h-235v524l-436 860h258l299 -626l303 626h248l-437 -854v-530zM378 1384l-213 -360h-166l123 360h256z" />
    <glyph glyph-name="Omegatonos" unicode="&#x38f;" horiz-adv-x="1581" 
d="M1332 1257q147 -156 147 -448q1 -357 -163 -491q-54 -44 -124 -68v-41h266v-209h-473v360q126 17 187 116q61 100 61 313q1 213 -83 315t-259 102q-332 0 -332 -403q0 -237 58 -326t190 -117v-360h-469v209h268v41q-155 47 -222 175t-67 385q0 258 132 419
q151 184 443 184q293 0 440 -156zM378 1384l-213 -360h-166l123 360h256z" />
    <glyph glyph-name="iotadieresistonos" unicode="&#x390;" horiz-adv-x="647" 
d="M447 -31q-172 0 -233 80q-62 80 -62 256v744h217v-727q-1 -103 15 -132q16 -30 36 -40t64 -9q43 0 96 19l49 -164q-86 -27 -182 -27zM505 1569l-213 -361h-162l123 361h252zM67 1316q0 -64 -30 -89t-96 -25t-91 30t-25 88q1 56 27 86t92 30t94 -28t29 -92zM718 1316
q0 -64 -30 -89t-96 -25t-91 30t-25 88q0 56 27 86t93 30t94 -28t28 -92z" />
    <glyph glyph-name="Alpha" unicode="&#x391;" horiz-adv-x="1313" 
d="M444 528h412l-205 623zM39 0l465 1384h303l467 -1384h-242l-106 319h-549l-105 -319h-233z" />
    <glyph glyph-name="Beta" unicode="&#x392;" horiz-adv-x="1284" 
d="M942 414q0 123 -75 165t-255 42h-213v-412h166q205 0 266 28q61 27 86 69t25 108zM864 1014q0 93 -59 129q-59 37 -209 37h-197v-355h189q220 1 262 107q14 36 14 82zM1184 403q0 -403 -533 -403h-485v1384h448q264 0 376 -76t112 -243q0 -257 -236 -315
q318 -40 318 -347z" />
    <glyph glyph-name="Gamma" unicode="&#x393;" 
d="M387 1186v-1186h-233v1384h870v-198h-637z" />
    <glyph glyph-name="uni0394" unicode="&#x394;" horiz-adv-x="1272" 
d="M952 197l-282 825q-13 38 -22 76t-17 65h-6q-7 -25 -16 -63t-23 -76l-283 -827h649zM1233 0h-1194v100l455 1284h288l451 -1284v-100z" />
    <glyph glyph-name="Epsilon" unicode="&#x395;" horiz-adv-x="1151" 
d="M166 0v1384h872v-208h-639v-351h543v-209h-543v-403h639v-213h-872z" />
    <glyph glyph-name="Zeta" unicode="&#x396;" horiz-adv-x="1155" 
d="M82 0v207l682 964h-651v213h929v-196l-690 -975h707v-213h-977z" />
    <glyph glyph-name="Eta" unicode="&#x397;" horiz-adv-x="1386" 
d="M987 0v610h-588v-610h-233v1384h233v-561h588v561h234v-1384h-234z" />
    <glyph glyph-name="Theta" unicode="&#x398;" horiz-adv-x="1446" 
d="M477 600v199h490v-199h-490zM1098 692q0 267 -86 397t-290 130q-203 0 -289.5 -129t-86.5 -398t87 -398.5t289 -129.5q203 0 289.5 130.5t86.5 397.5zM1343 692q0 -168 -32.5 -301.5t-105.5 -227t-191.5 -143t-369.5 -49.5t-396.5 185t-145.5 537q0 353 145 536.5
t476 183.5q486 0 553 -276.5t67 -444.5z" />
    <glyph glyph-name="Iota" unicode="&#x399;" horiz-adv-x="821" 
d="M719 0h-617v188h191v1008h-191v188h617v-188h-193v-1008h193v-188z" />
    <glyph glyph-name="Kappa" unicode="&#x39a;" horiz-adv-x="1272" 
d="M399 0h-233v1384h233v-610l519 610h280l-541 -616l574 -768h-295l-430 596l-107 -123v-473z" />
    <glyph glyph-name="Lambda" unicode="&#x39b;" horiz-adv-x="1249" 
d="M39 0l457 1384h262l452 -1384h-241l-348 1114l-353 -1114h-229z" />
    <glyph glyph-name="Mu" unicode="&#x39c;" horiz-adv-x="1630" 
d="M1239 0v1038l-356 -673h-140l-354 673v-1038h-223v1384h287l364 -706l367 706h280v-1384h-225z" />
    <glyph glyph-name="Nu" unicode="&#x39d;" horiz-adv-x="1399" 
d="M393 0h-227v1384h317l523 -1011v1011h227v-1384h-277l-563 1087v-1087z" />
    <glyph glyph-name="Xi" unicode="&#x39e;" horiz-adv-x="1098" 
d="M113 0v213h872v-213h-872zM172 616v209h754v-209h-754zM113 1176v208h872v-208h-872z" />
    <glyph glyph-name="Omicron" unicode="&#x39f;" horiz-adv-x="1364" 
d="M1018 692q0 265 -78 389q-78 125 -259 125t-259 -125t-78 -389q0 -265 79 -390q79 -124 259 -124q181 0 258 124q78 125 78 390zM102 692q0 721 580 721q448 0 548 -416q32 -134 32 -305q0 -721 -580 -721t-580 721z" />
    <glyph glyph-name="Pi" unicode="&#x3a0;" horiz-adv-x="1372" 
d="M166 0v1384h1040v-1384h-237v1180h-568v-1180h-235z" />
    <glyph glyph-name="Rho" unicode="&#x3a1;" horiz-adv-x="1210" 
d="M804 1124q-75 54 -233 54h-172v-523h146q189 0 262 51q72 51 72 208q0 156 -75 210zM1004 564q-118 -115 -381 -115h-224v-449h-233v1384h465q244 0 368 -107q123 -107 123 -352q0 -246 -118 -361z" />
    <glyph glyph-name="Sigma" unicode="&#x3a3;" horiz-adv-x="1139" 
d="M72 0v190l483 512l-483 498v184h944v-196h-637l414 -430v-107l-433 -454h691v-197h-979z" />
    <glyph glyph-name="Tau" unicode="&#x3a4;" horiz-adv-x="1194" 
d="M713 1171v-1171h-234v1171h-442v213h1118v-213h-442z" />
    <glyph glyph-name="Upsilon" unicode="&#x3a5;" horiz-adv-x="1167" 
d="M700 0h-235v524l-436 860h258l299 -626l303 626h248l-437 -854v-530z" />
    <glyph glyph-name="Phi" unicode="&#x3a6;" horiz-adv-x="1493" 
d="M346 690q0 -270 105 -329.5t180 -71.5v805q-151 -23 -218 -123t-67 -281zM1149 691q0 182 -68 281.5t-223 121.5v-805q154 22 222.5 121t68.5 281zM858 -63h-227v159q-412 40 -470.5 255t-58.5 339q0 264 124 415.5t405 176.5v166h227v-164q414 -39 473.5 -254.5
t59.5 -339.5q0 -262 -125.5 -414.5t-407.5 -179.5v-159z" />
    <glyph glyph-name="Chi" unicode="&#x3a7;" horiz-adv-x="1247" 
d="M41 0l455 694l-443 690h269l307 -507l317 507h260l-448 -684l446 -700h-266l-317 516l-322 -516h-258z" />
    <glyph glyph-name="Psi" unicode="&#x3a8;" horiz-adv-x="1489" 
d="M1372 797q0 -393 -197 -463t-315 -80v-289h-231v289q-249 21 -380.5 147.5t-131.5 395.5v587h233v-567q0 -168 78.5 -261t200.5 -99v927h231v-929q122 8 201.5 102t79.5 256v571h231v-587z" />
    <glyph glyph-name="uni03A9" unicode="&#x3a9;" horiz-adv-x="1366" 
d="M1117 1257q147 -156 147 -448q0 -357 -164 -491q-54 -44 -123 -68v-41h266v-209h-473v360q126 17 187 116q61 100 61 313t-84 315t-258 102q-332 0 -332 -403q0 -237 58 -326t190 -117v-360h-469v209h268v41q-155 47 -222 175t-67 385q0 258 132 419q151 184 443 184
q293 0 440 -156z" />
    <glyph glyph-name="Iotadieresis" unicode="&#x3aa;" horiz-adv-x="821" 
d="M719 0h-617v188h191v1008h-191v188h617v-188h-193v-1008h193v-188zM330 1660q0 -64 -30 -92q-30 -26 -100 -26t-94 31q-25 31 -25 91t27 88q26 28 96 28t98 -28t28 -92zM750 1660q0 -64 -30 -92q-30 -26 -100 -26q-68 0 -94 31t-26 91t28 88t96 28q70 0 98 -28t28 -92z
" />
    <glyph glyph-name="Upsilondieresis" unicode="&#x3ab;" horiz-adv-x="1167" 
d="M700 0h-235v524l-436 860h258l299 -626l303 626h248l-437 -854v-530zM499 1660q0 -64 -30 -92q-29 -26 -99 -26t-95 31t-25 91t27 88t97 28t97 -28q28 -28 28 -92zM919 1660q-1 -64 -31 -92q-30 -26 -99 -26t-95 31t-25 91q-1 60 27 88t98 28t97 -28q28 -28 28 -92z" />
    <glyph glyph-name="alphatonos" unicode="&#x3ac;" horiz-adv-x="1272" 
d="M552 156q58 0 110 45q152 130 174 559q-53 68 -119 104q-67 36 -127 37q-126 0 -194 -89t-68 -296q0 -279 127 -341q39 -19 97 -19zM1098 -31q-142 0 -197 61t-63 195q-88 -256 -320 -256q-201 0 -307 143q-107 143 -107 412t123 412t314 143q192 0 311 -129q3 36 12 99
h217q-59 -318 -59 -474v-253q0 -108 18 -137t36 -37q19 -8 54 -7q35 0 82 19l50 -164q-82 -27 -164 -27zM672 1208h-172l182 361h277z" />
    <glyph glyph-name="epsilontonos" unicode="&#x3ad;" horiz-adv-x="1053" 
d="M593 909q-259 0 -259 -166q0 -76 58 -99t186 -23h223v-166h-234q-125 0 -179 -37t-54 -118t69 -121t170 -40q170 0 256 119l154 -102q-117 -187 -408 -187q-331 -1 -429 175q-34 62 -35 126q0 104 46 166t109 86q-155 58 -155 248q1 66 39 128q109 180 409 181
q300 0 410 -186l-160 -107q-83 123 -216 123zM612 1208h-172l182 361h277z" />
    <glyph glyph-name="etatonos" unicode="&#x3ae;" horiz-adv-x="1194" 
d="M723 1079q167 -1 244 -95t77 -292v-1085h-215v1030q0 140 -33 195t-118 55q-128 0 -305 -154v-733h-215v1049h207v-142q191 172 358 172zM647 1208h-172l182 361h277z" />
    <glyph glyph-name="iotatonos" unicode="&#x3af;" horiz-adv-x="647" 
d="M447 -31q-172 0 -233 80q-62 80 -62 256v744h217v-727q-1 -103 15 -132q16 -30 36 -40t64 -9q43 0 96 19l49 -164q-86 -27 -182 -27zM291 1208h-172l182 361h277z" />
    <glyph glyph-name="upsilondieresistonos" unicode="&#x3b0;" horiz-adv-x="1178" 
d="M985 1049q84 -225 84 -541q-1 -126 -37 -238q-36 -114 -101 -180q-118 -121 -347 -121q-434 0 -434 389v691h217v-684q0 -115 67 -167q67 -53 156 -53q254 0 254 392q0 239 -78 512h219zM817 1569l-213 -361h-162l123 361h252zM379 1316q0 -64 -30 -89t-96 -25t-91 30
t-25 88q1 56 27 86t92 30t94 -28t29 -92zM1030 1316q0 -64 -30 -89t-96 -25t-91 30t-25 88q0 56 27 86t93 30t94 -28t28 -92z" />
    <glyph glyph-name="alpha" unicode="&#x3b1;" horiz-adv-x="1272" 
d="M552 156q58 0 159.5 87.5t124.5 516.5q-53 68 -119.5 104.5t-126.5 36.5q-126 0 -194 -89.5t-68 -295.5q0 -279 83 -319.5t141 -40.5zM1098 -31q-142 0 -197 60.5t-63 195.5q-88 -256 -320 -256q-201 0 -307.5 143t-106.5 412t122.5 412t314.5 143t311 -129q3 36 12 99
h217q-59 -318 -59 -474v-253q0 -108 17.5 -137t36.5 -36.5t54 -7.5t82 19l50 -164q-82 -27 -164 -27z" />
    <glyph glyph-name="beta" unicode="&#x3b2;" horiz-adv-x="1212" 
d="M651 145q110 0 171 83t61 198t-29.5 172.5t-101.5 103.5t-250 46v176q278 0 278 231q0 90 -49 140.5t-131 50.5t-124 -20.5t-74.5 -75t-32.5 -214.5v-809q132 -82 282 -82zM672 -31q-174 0 -303 86v-446h-215v1419q0 232 100.5 362t337.5 130q280 0 343.5 -127t63.5 -205
q0 -142 -71 -225t-193 -107q169 -20 270 -129t101 -276q0 -213 -111.5 -347.5t-322.5 -134.5z" />
    <glyph glyph-name="gamma" unicode="&#x3b3;" horiz-adv-x="1110" 
d="M821 1014v35h219v-45q0 -301 -155.5 -566.5t-257.5 -390.5v-440h-215v440l-369 1002h231l273 -803q208 331 241 514.5t33 253.5z" />
    <glyph glyph-name="delta" unicode="&#x3b4;" horiz-adv-x="1233" 
d="M831.5 715q-71.5 94 -196.5 162q-194 -60 -250.5 -188.5t-56.5 -206.5q0 -151 68.5 -244t232.5 -93q122 0 198 89.5t76 238.5q0 148 -71.5 242zM582 1358q-103 0 -103 -77q0 -48 38 -92.5t152 -108.5q237 -132 348 -265t111 -328q0 -242 -140 -380t-382 -138t-372 137
t-130 348q0 210 111 335.5t266 175.5q-108 74 -163.5 143t-55.5 160q0 181 118.5 216.5t196.5 35.5q136 0 252.5 -30t171.5 -65l-79 -168q-191 101 -340 101z" />
    <glyph glyph-name="epsilon" unicode="&#x3b5;" horiz-adv-x="1053" 
d="M593 909q-259 0 -259 -166q0 -76 58 -99t186 -23h223v-166h-234q-126 0 -179.5 -37t-53.5 -118t69.5 -121t169.5 -40q170 0 256 119l154 -102q-117 -187 -408 -187q-331 0 -397.5 118.5t-66.5 182.5q0 104 46.5 166t108.5 86q-155 58 -155 248q0 66 74 187.5t374 121.5
t410 -186l-160 -107q-83 123 -216 123z" />
    <glyph glyph-name="zeta" unicode="&#x3b6;" horiz-adv-x="940" 
d="M688 -150q0 86 -73 103t-113 25t-85.5 20t-116.5 45.5t-128 131t-57 286.5q0 188 111.5 435.5t357.5 422.5h-428v170h706v-141q-208 -135 -365 -385t-157 -483t107 -273t159 -52t106 -27t121.5 -61t67.5 -192q0 -96 -76 -270h-215q78 171 78 245z" />
    <glyph glyph-name="eta" unicode="&#x3b7;" horiz-adv-x="1194" 
d="M723 1079q167 0 244 -94.5t77 -292.5v-1085h-215v1030q0 140 -32.5 195t-118.5 55q-128 0 -305 -154v-733h-215v1049h207v-142q191 172 358 172z" />
    <glyph glyph-name="theta" unicode="&#x3b8;" horiz-adv-x="1200" 
d="M342 684q0 -272 32.5 -364.5t83 -133.5t138.5 -41q163 0 211.5 132t50.5 407h-516zM600 1520q110 0 187.5 -29t152.5 -102.5t107 -235t32 -334.5q0 -174 -5 -272t-21.5 -184.5t-48 -158.5t-84.5 -124.5t-131.5 -81.5t-188.5 -29t-188.5 29t-153.5 102.5t-107 236.5
t-32 338t5 271.5t22 182.5t49 157.5t85.5 123.5t131.5 81t188 29zM600 1343q-156 0 -206 -121.5t-52 -373.5h516q-5 252 -40 336.5t-84.5 121.5t-133.5 37z" />
    <glyph glyph-name="iota" unicode="&#x3b9;" horiz-adv-x="647" 
d="M447 -31q-172 0 -233.5 80t-61.5 256v744h217v-727q0 -103 15.5 -132.5t36 -39t63.5 -9.5t96 19l49 -164q-86 -27 -182 -27z" />
    <glyph glyph-name="kappa" unicode="&#x3ba;" horiz-adv-x="1096" 
d="M373 0h-215v1049h215v-453l403 453h250l-414 -453l449 -596h-252l-330 463l-106 -113v-350z" />
    <glyph glyph-name="lambda" unicode="&#x3bb;" horiz-adv-x="1143" 
d="M310 1520q82 0 128 -15t99 -65t98 -209l266 -920q41 -131 67 -143t49.5 -12t53.5 12l53 -168q-227 -62 -306 14.5t-122 245.5l-135 537l-291 -797h-227l436 1051q-45 162 -70 209t-48 64t-73 17t-124 -41l-49 166q113 54 195 54z" />
    <glyph glyph-name="uni03BC" unicode="&#x3bc;" horiz-adv-x="1186" 
d="M580 -31q-129 0 -230 76v-440h-215v1444h215v-773q60 -74 160 -100q34 -8 68 -8q142 0 249 133v748h215v-1049h-200l-8 115q-54 -73 -114 -109t-140 -37z" />
    <glyph glyph-name="nu" unicode="&#x3bd;" horiz-adv-x="1090" 
d="M811 993v56h221v-50q0 -307 -161 -587t-269 -412h-188l-371 1049h231l273 -822q264 462 264 766z" />
    <glyph glyph-name="xi" unicode="&#x3be;" horiz-adv-x="948" 
d="M627 -395q73 168 73 250t-75 105.5t-115 33.5t-87 24t-119 47t-130.5 119t-58.5 227t70 236t184 135q-128 58 -156.5 148.5t-28.5 136.5q0 90 43.5 159.5t124.5 100.5h-221v162h705v-168h-70q-197 0 -278.5 -53.5t-81.5 -178.5t65 -168.5t137 -43.5h201v-170h-219
q-105 0 -178.5 -81t-73.5 -174q0 -94 24 -142t71 -83.5t142 -60.5q96 -24 213 -62t117 -229q0 -91 -71 -270h-207z" />
    <glyph glyph-name="omicron" unicode="&#x3bf;" horiz-adv-x="1174" 
d="M846 524q0 184 -60 276q-60 91 -198 91t-200 -91q-62 -92 -62 -276t62 -276t198 -92t198 92t62 276zM952 113q-117 -144 -364 -144q-484 0 -484 553q0 406 264 518q92 38 220 39q128 -1 218 -39q92 -38 150 -110q114 -141 113 -407q0 -266 -117 -410z" />
    <glyph glyph-name="pi" unicode="&#x3c0;" horiz-adv-x="1374" 
d="M1120 -18q-144 0 -210 77.5t-66 247.5v576h-320v-590q0 -206 -26 -293h-244q53 159 53 305v576q-166 -21 -231 -58l-64 154q150 72 334 72h965v-166h-250v-559q0 -100 19.5 -128t40.5 -36t63 -8t80 16l45 -156q-90 -30 -189 -30z" />
    <glyph glyph-name="rho" unicode="&#x3c1;" horiz-adv-x="1214" 
d="M629 152q181 0 218.5 136.5t37.5 237.5q0 377 -260 377q-129 0 -202 -86t-73 -295v-227q123 -143 279 -143zM350 -393h-217v928q0 402 183 473t306 71q238 0 363 -142.5t125 -405.5q0 -264 -123 -413t-318 -149t-319 131v-493z" />
    <glyph glyph-name="sigma1" unicode="&#x3c2;" horiz-adv-x="1018" 
d="M328 522q0 -248 122 -296t176 -66t164.5 -60.5t110.5 -222.5q0 -92 -74 -270h-215q76 166 76 244q0 77 -60 102t-98 37t-88 28t-129 56.5t-144 147.5t-65 300q0 557 384 557t495 -186l-168 -113q-76 123 -215 123q-272 0 -272 -381z" />
    <glyph glyph-name="sigma" unicode="&#x3c3;" horiz-adv-x="1278" 
d="M883 500q0 250 -125 381h-154q-238 0 -257 -159.5t-19 -235.5q0 -157 70.5 -249t213.5 -92t207 101t64 254zM1106 487q0 -358 -184 -438t-316 -80q-252 0 -377 142.5t-125 403.5t125 397.5t408 136.5h577v-168h-266q158 -154 158 -394z" />
    <glyph glyph-name="tau" unicode="&#x3c4;" horiz-adv-x="1036" 
d="M332 1049h651v-168h-358v-559q0 -97 19 -125.5t40 -36.5t61 -8t76 16l45 -156q-78 -30 -203 -30q-255 0 -255 323v576h-86q-132 0 -252 -56l-64 152q138 72 326 72z" />
    <glyph glyph-name="upsilon" unicode="&#x3c5;" horiz-adv-x="1178" 
d="M985 1049q84 -225 84 -541q0 -126 -36.5 -239t-128 -206.5t-320.5 -93.5q-434 0 -434 389v691h217v-684q0 -115 67 -167.5t156 -52.5q254 0 254 392q0 239 -78 512h219z" />
    <glyph glyph-name="phi" unicode="&#x3c6;" horiz-adv-x="1399" 
d="M1073 566q0 128 -61.5 224t-206.5 119v-770q211 34 239.5 166.5t28.5 260.5zM389.5 254.5q61.5 -92.5 208.5 -115.5v772q-149 -25 -209.5 -117.5t-60.5 -269.5t61.5 -269.5zM598 -393v368q-382 35 -438 231t-56 317q0 252 117.5 390.5t376.5 161.5v414h207v-414
q377 -35 433 -234t56 -319q0 -248 -117.5 -386t-371.5 -161v-368h-207z" />
    <glyph glyph-name="chi" unicode="&#x3c7;" horiz-adv-x="1135" 
d="M953 -393q-65 0 -101 12.5t-79 54.5t-103 193l-123 301l-260 -555h-234l402 749l-156 365q-44 105 -66.5 138.5t-60.5 33.5t-78 -14l-49 153q101 41 176.5 41t132.5 -44.5t101 -153.5l129 -332l223 500h233l-364 -691l172 -399q39 -92 69 -129t63 -37t77 14l51 -161
q-90 -39 -155 -39z" />
    <glyph glyph-name="psi" unicode="&#x3c8;" horiz-adv-x="1454" 
d="M1122 539q0 252 -80 510h222q47 -113 66.5 -263t19.5 -268t-77.5 -312.5t-430.5 -230.5v-368h-211v366q-353 26 -417 177t-64 262v637h215v-611q0 -193 102.5 -238t163.5 -53v1336h211v-1333q200 36 240 168.5t40 220.5z" />
    <glyph glyph-name="omega" unicode="&#x3c9;" horiz-adv-x="1677" 
d="M332 434q0 -289 188 -289q93 0 151 98t58 296v282h219v-282q0 -294 82.5 -344t126.5 -50q91 0 138.5 74.5t47.5 214.5q0 214 -71.5 365.5t-112.5 214.5l215 41q136 -195 167.5 -379t31.5 -282q0 -207 -108.5 -316t-297.5 -109q-118 0 -204 60t-123 172
q-37 -112 -123.5 -172t-192.5 -60q-204 0 -312 108t-108 345t80 407t119 226l215 -41q-132 -209 -159 -359.5t-27 -220.5z" />
    <glyph glyph-name="iotadieresis" unicode="&#x3ca;" horiz-adv-x="647" 
d="M447 -31q-172 0 -233 80q-62 80 -62 256v744h217v-727q-1 -103 15 -132q16 -30 36 -40t64 -9q43 0 96 19l49 -164q-86 -27 -182 -27zM177 1324q0 -64 -30 -92q-29 -26 -99 -26t-95 31t-25 91t27 88t97 28t97 -28q28 -28 28 -92zM597 1324q-1 -64 -31 -92q-30 -26 -99 -26
t-95 31t-25 91q-1 60 27 88t98 28t97 -28q28 -28 28 -92z" />
    <glyph glyph-name="upsilondieresis" unicode="&#x3cb;" horiz-adv-x="1178" 
d="M985 1049q84 -225 84 -541q-1 -126 -37 -238q-36 -114 -101 -180q-118 -121 -347 -121q-434 0 -434 389v691h217v-684q0 -115 67 -167q67 -53 156 -53q254 0 254 392q0 239 -78 512h219zM485 1324q0 -64 -30 -92q-29 -26 -99 -26t-95 31t-25 91t27 88t97 28t97 -28
q28 -28 28 -92zM905 1324q-1 -64 -31 -92q-30 -26 -99 -26t-95 31t-25 91q-1 60 27 88t98 28t97 -28q28 -28 28 -92z" />
    <glyph glyph-name="omicrontonos" unicode="&#x3cc;" horiz-adv-x="1174" 
d="M846 524q0 184 -60 276q-60 91 -198 91t-200 -91q-62 -92 -62 -276t62 -276t198 -92t198 92t62 276zM952 113q-117 -144 -364 -144q-484 0 -484 553q0 406 264 518q92 38 220 39q128 -1 218 -39q92 -38 150 -110q114 -141 113 -407q0 -266 -117 -410zM651 1208h-172
l182 361h277z" />
    <glyph glyph-name="upsilontonos" unicode="&#x3cd;" horiz-adv-x="1178" 
d="M985 1049q84 -225 84 -541q-1 -126 -37 -238q-36 -114 -101 -180q-118 -121 -347 -121q-434 0 -434 389v691h217v-684q0 -115 67 -167q67 -53 156 -53q254 0 254 392q0 239 -78 512h219zM602 1208h-172l182 361h277z" />
    <glyph glyph-name="omegatonos" unicode="&#x3ce;" horiz-adv-x="1677" 
d="M332 434q0 -289 188 -289q93 0 151 98t58 296v282h219v-282q0 -294 127 -371q38 -23 82 -23q91 1 139 75t47 214q0 214 -109 445q-34 72 -75 135l215 41q136 -195 184 -474q15 -89 15 -187q0 -207 -108 -316t-298 -109q-118 0 -204 60t-123 172q-37 -112 -124 -172
q-86 -60 -192 -60q-204 0 -312 108t-108 345q0 236 124 500q36 76 75 133l215 -41q-132 -209 -172 -435q-14 -75 -14 -145zM899 1208h-172l182 361h277z" />
    <glyph glyph-name="uni0400" unicode="&#x400;" horiz-adv-x="1151" 
d="M166 0v1384h872v-208h-639v-351h543v-209h-543v-403h639v-213h-872zM588 1544l-285 361h275l184 -361h-174z" />
    <glyph glyph-name="uni0401" unicode="&#x401;" horiz-adv-x="1151" 
d="M166 0v1384h872v-208h-639v-351h543v-209h-543v-403h639v-213h-872zM505 1660q0 -64 -30 -92q-29 -26 -99 -26t-95 31t-25 91t27 88t97 28t97 -28q28 -28 28 -92zM925 1660q-1 -64 -31 -92q-30 -26 -99 -26t-95 31t-25 91q-1 60 27 88t98 28t97 -28q28 -28 28 -92z" />
    <glyph glyph-name="uni0402" unicode="&#x402;" horiz-adv-x="1374" 
d="M813 1190h-281v-365h191q291 0 435.5 -95t144.5 -316q0 -335 -228.5 -374.5t-365.5 -39.5v193q191 0 269.5 49t78.5 168q0 118 -70 169.5t-237 51.5h-218v-631h-233v1190h-279v194h793v-194z" />
    <glyph glyph-name="uni0403" unicode="&#x403;" 
d="M387 1186v-1186h-233v1384h870v-198h-637zM602 1544h-174l184 361h274z" />
    <glyph glyph-name="uni0404" unicode="&#x404;" horiz-adv-x="1315" 
d="M358 594q34 -416 368 -416q134 0 209 48.5t136 140.5l189 -131q-81 -127 -201 -196t-322 -69q-317 0 -470.5 180t-153.5 541q0 721 614 721q289 0 384.5 -100t127.5 -154l-186 -135q-57 88 -126.5 135t-195.5 47q-337 0 -371 -403h625v-209h-627z" />
    <glyph glyph-name="uni0405" unicode="&#x405;" horiz-adv-x="1227" 
d="M414 1158q-68 -48 -68 -133t68 -124t186 -67q120 -28 178 -45t110 -39q240 -103 240 -349q0 -231 -154 -337q-133 -92 -366 -93q-300 0 -450 162q-44 48 -78 103l184 133q58 -90 112 -125q103 -66 234 -66q190 0 256 103q24 37 23 91q0 95 -83 147q-53 34 -179 66
q-125 33 -216 61t-158 72q-144 95 -144 285q0 191 127 300q127 110 366 110q341 0 492 -248l-181 -135q-110 176 -313 176q-118 0 -186 -48z" />
    <glyph glyph-name="uni0406" unicode="&#x406;" horiz-adv-x="821" 
d="M719 0h-617v188h191v1008h-191v188h617v-188h-193v-1008h193v-188z" />
    <glyph glyph-name="uni0407" unicode="&#x407;" horiz-adv-x="821" 
d="M719 0h-617v188h191v1008h-191v188h617v-188h-193v-1008h193v-188zM328 1660q0 -64 -30 -92q-30 -26 -100 -26t-94 31q-25 31 -25 91t27 88q26 28 96 28t98 -28t28 -92zM748 1660q0 -64 -30 -92q-30 -26 -100 -26q-68 0 -94 31t-26 91t28 88t96 28q70 0 98 -28t28 -92z
" />
    <glyph glyph-name="uni0408" unicode="&#x408;" horiz-adv-x="903" 
d="M735 377q-1 -315 -233 -384q-80 -24 -149 -24q-179 0 -318 51l78 205q49 -26 114 -38q65 -11 104 -11q94 0 132 57q39 57 39 220v931h233v-1007z" />
    <glyph glyph-name="uni0409" unicode="&#x409;" horiz-adv-x="2011" 
d="M1190 670v-465h205q224 0 261.5 84.5t37.5 150.5q0 130 -73 180t-239 50h-192zM168 184q52 0 142.5 114t90.5 849v237h789v-512h215q279 0 404.5 -105t125.5 -332t-132.5 -331t-397.5 -104h-451v1186h-323v-99q0 -810 -158 -961t-264 -151t-193 41l62 185q38 -17 90 -17z
" />
    <glyph glyph-name="uni040A" unicode="&#x40a;" horiz-adv-x="1999" 
d="M1178 659v-454h204q224 0 261.5 84.5t37.5 148.5q0 125 -72 173t-239 48h-192zM942 0v659h-543v-659h-233v1384h233v-522h543v522h236v-522h213q280 0 406 -101.5t126 -327.5q0 -225 -133.5 -329t-398.5 -104h-449z" />
    <glyph glyph-name="uni040B" unicode="&#x40b;" horiz-adv-x="1356" 
d="M758 692q-92 0 -248 -43v-649h-234v1190h-256v194h775v-194h-285v-352q172 47 300 47t208.5 -21t158.5 -97.5t78 -328.5v-438h-233v356q0 207 -38.5 258t-86 64.5t-139.5 13.5z" />
    <glyph glyph-name="uni040C" unicode="&#x40c;" horiz-adv-x="1266" 
d="M399 1384v-583h191q89 0 159 122t152 461h242q-106 -471 -251 -612q-43 -42 -87 -63q153 -69 233 -237q58 -121 146 -472h-244q-40 150 -73 262t-73 188q-40 74 -92 112t-131 38h-172v-600h-233v1384h233zM678 1544h-174l184 361h274z" />
    <glyph glyph-name="uni040D" unicode="&#x40d;" horiz-adv-x="1397" 
d="M166 0v1384h219v-1054l549 1054h297v-1384h-219v1110l-580 -1110h-266zM676 1544l-285 361h275l184 -361h-174z" />
    <glyph glyph-name="uni040E" unicode="&#x40e;" horiz-adv-x="1229" 
d="M336 -29q-146 0 -266 47l69 187q86 -41 176 -41q125 0 185 164l18 47l-475 1009h252l344 -751l322 751h243l-514 -1148q-98 -222 -258 -254q-52 -10 -96 -11zM986 1788q0 -118 -91 -192t-256 -74t-253 76q-89 76 -89 190h209q6 -78 38 -114t98 -36t97 36t36 114h211z" />
    <glyph glyph-name="uni040F" unicode="&#x40f;" horiz-adv-x="1378" 
d="M1212 0h-405v-262h-234v262h-407v1384h235v-1171h576v1171h235v-1384z" />
    <glyph glyph-name="uni0410" unicode="&#x410;" horiz-adv-x="1313" 
d="M444 528h412l-205 623zM39 0l465 1384h303l467 -1384h-242l-106 319h-549l-105 -319h-233z" />
    <glyph glyph-name="uni0411" unicode="&#x411;" horiz-adv-x="1270" 
d="M930 446q0 100 -82 143.5t-252 43.5h-197v-436h187q169 0 230.5 31.5t87.5 74.5t26 143zM1171 404q0 -403 -540 -404h-465v1384h909v-194h-676v-363h224q420 0 484 -156.5t64 -266.5z" />
    <glyph glyph-name="uni0412" unicode="&#x412;" horiz-adv-x="1284" 
d="M942 414q0 123 -75 165t-255 42h-213v-412h166q205 0 266 28q61 27 86 69t25 108zM864 1014q0 93 -59 129q-59 37 -209 37h-197v-355h189q220 1 262 107q14 36 14 82zM1184 403q0 -403 -533 -403h-485v1384h448q264 0 376 -76t112 -243q0 -257 -236 -315
q318 -40 318 -347z" />
    <glyph glyph-name="uni0413" unicode="&#x413;" 
d="M387 1186v-1186h-233v1384h870v-198h-637z" />
    <glyph glyph-name="uni0414" unicode="&#x414;" horiz-adv-x="1337" 
d="M911 199v987h-319q-30 -582 -213 -987h532zM27 -262v459h120q149 302 188 631.5t40 555.5h770v-1187h166v-459h-232v262h-821v-262h-231z" />
    <glyph glyph-name="uni0415" unicode="&#x415;" horiz-adv-x="1151" 
d="M166 0v1384h872v-208h-639v-351h543v-209h-543v-403h639v-213h-872z" />
    <glyph glyph-name="uni0416" unicode="&#x416;" horiz-adv-x="1843" 
d="M1038 801h131q88 0 157 121.5t149 461.5h243q-104 -471 -198.5 -562.5t-139.5 -112.5q83 -37 138.5 -94.5t96.5 -142.5t74 -201.5t72 -270.5h-243q-43 157 -77.5 270t-73.5 186.5t-89.5 108.5t-126.5 35h-113v-600h-233v600h-113q-68 0 -118 -30t-106 -125t-142 -445
h-244q85 346 136 452t106.5 163.5t138.5 93.5q-102 50 -185 199.5t-153 475.5h244q111 -480 189.5 -531.5t117.5 -51.5h129v583h233v-583z" />
    <glyph glyph-name="uni0417" unicode="&#x417;" horiz-adv-x="1192" 
d="M846 401q0 217 -248 217h-276v197h276q227 0 227 207q0 144 -100.5 171.5t-152.5 27.5q-105 0 -187.5 -28.5t-173.5 -100.5l-125 172q184 149 489 149q248 0 373 -104.5t125 -280.5q0 -175 -80.5 -236.5t-128.5 -78.5q113 -42 170.5 -126.5t57.5 -178.5
q0 -192 -128.5 -314.5t-408.5 -122.5q-354 0 -516 256l188 123q117 -186 326 -186q137 0 215 61.5t78 175.5z" />
    <glyph glyph-name="uni0418" unicode="&#x418;" horiz-adv-x="1397" 
d="M166 0v1384h219v-1054l549 1054h297v-1384h-219v1110l-580 -1110h-266z" />
    <glyph glyph-name="uni0419" unicode="&#x419;" horiz-adv-x="1397" 
d="M166 0v1384h219v-1054l549 1054h297v-1384h-219v1110l-580 -1110h-266zM1053 1788q0 -118 -91 -192t-256 -74t-253 76q-89 76 -89 190h209q7 -78 39 -114t97 -36q66 0 97 36t36 114h211z" />
    <glyph glyph-name="uni041A" unicode="&#x41a;" horiz-adv-x="1266" 
d="M399 1384v-583h191q89 0 159 122.5t152 460.5h242q-106 -471 -200 -562.5t-138 -112.5q152 -69 221 -213.5t158 -495.5h-244q-40 150 -73 262.5t-72.5 187.5t-92 112.5t-131.5 37.5h-172v-600h-233v1384h233z" />
    <glyph glyph-name="uni041B" unicode="&#x41b;" horiz-adv-x="1395" 
d="M168 184q52 0 142.5 114t90.5 849v237h828v-1384h-234v1186h-364v-99q0 -810 -158 -961t-264 -151t-193 41l62 185q38 -17 90 -17z" />
    <glyph glyph-name="uni041C" unicode="&#x41c;" horiz-adv-x="1630" 
d="M1239 0v1038l-356 -673h-140l-354 673v-1038h-223v1384h287l364 -706l367 706h280v-1384h-225z" />
    <glyph glyph-name="uni041D" unicode="&#x41d;" horiz-adv-x="1386" 
d="M987 0v610h-588v-610h-233v1384h233v-561h588v561h234v-1384h-234z" />
    <glyph glyph-name="uni041E" unicode="&#x41e;" horiz-adv-x="1364" 
d="M1018 692q0 265 -78 389q-78 125 -259 125t-259 -125t-78 -389q0 -265 79 -390q79 -124 259 -124q181 0 258 124q78 125 78 390zM102 692q0 721 580 721q448 0 548 -416q32 -134 32 -305q0 -721 -580 -721t-580 721z" />
    <glyph glyph-name="uni041F" unicode="&#x41f;" horiz-adv-x="1372" 
d="M166 0v1384h1040v-1384h-237v1180h-568v-1180h-235z" />
    <glyph glyph-name="uni0420" unicode="&#x420;" horiz-adv-x="1210" 
d="M804 1124q-75 54 -233 54h-172v-523h146q189 0 262 51q72 51 72 208q0 156 -75 210zM1004 564q-118 -115 -381 -115h-224v-449h-233v1384h465q244 0 368 -107q123 -107 123 -352q0 -246 -118 -361z" />
    <glyph glyph-name="uni0421" unicode="&#x421;" horiz-adv-x="1327" 
d="M113 692q0 721 614 721q289 1 435 -153q44 -46 77 -101l-186 -135q-57 88 -103 119q-92 63 -219 63q-195 0 -286 -129t-91 -385q0 -397 216 -485q72 -29 152 -29q138 0 213 48t136 141l189 -131q-81 -127 -201 -196t-322 -69q-317 0 -471 180t-153 541z" />
    <glyph glyph-name="uni0422" unicode="&#x422;" horiz-adv-x="1194" 
d="M713 1171v-1171h-234v1171h-442v213h1118v-213h-442z" />
    <glyph glyph-name="uni0423" unicode="&#x423;" horiz-adv-x="1229" 
d="M336 -29q-146 0 -266 47l69 187q86 -41 176 -41q125 0 185 164l18 47l-475 1009h252l344 -751l322 751h243l-514 -1148q-98 -222 -204.5 -243.5t-149.5 -21.5z" />
    <glyph glyph-name="uni0424" unicode="&#x424;" horiz-adv-x="1526" 
d="M1210 696q0 172 -81.5 257t-256.5 102v-719q175 15 256.5 101.5t81.5 258.5zM315 696q0 -173 81.5 -259t260.5 -101v721q-181 -18 -261.5 -103t-80.5 -258zM657 -47v192q-448 29 -513.5 227t-65.5 324q0 256 137.5 391.5t441.5 157.5v187h215v-187q445 -29 510.5 -226
t65.5 -388.5t-138 -328.5t-438 -157v-192h-215z" />
    <glyph glyph-name="uni0425" unicode="&#x425;" horiz-adv-x="1247" 
d="M41 0l455 694l-443 690h269l307 -507l317 507h260l-448 -684l446 -700h-266l-317 516l-322 -516h-258z" />
    <glyph glyph-name="uni0426" unicode="&#x426;" horiz-adv-x="1380" 
d="M166 0v1384h233v-1171h555v1171h234v-1175h166v-471h-232v262h-956z" />
    <glyph glyph-name="uni0427" unicode="&#x427;" horiz-adv-x="1270" 
d="M532 487q-138 0 -218 22.5t-155 100.5t-75 328v446h233v-352q0 -206 43.5 -271t195.5 -65t314 43v645h234v-1384h-234v539q-199 -52 -338 -52z" />
    <glyph glyph-name="uni0428" unicode="&#x428;" horiz-adv-x="1884" 
d="M1485 209v1175h233v-1384h-1552v1384h233v-1175h426v1175h232v-1175h428z" />
    <glyph glyph-name="uni0429" unicode="&#x429;" horiz-adv-x="1909" 
d="M166 0v1384h233v-1175h426v1175h232v-1175h428v1175h233v-1177h164v-469h-231v262h-1485z" />
    <glyph glyph-name="uni042A" unicode="&#x42a;" horiz-adv-x="1497" 
d="M881 205q299 0 299 231q0 134 -73 184t-239 50h-198v-465h211zM37 1186v198h633v-512h219q280 0 406 -105.5t126 -331.5t-133.5 -330.5t-398.5 -104.5h-453v1186h-399z" />
    <glyph glyph-name="uni042B" unicode="&#x42b;" horiz-adv-x="1763" 
d="M909 440q0 131 -72.5 180.5t-238.5 49.5h-199v-465h211q224 0 261.5 84.5t37.5 150.5zM166 0v1384h233v-512h219q412 0 472.5 -162t60.5 -275q0 -224 -131 -329.5t-402 -105.5h-452zM1364 1384h233v-1384h-233v1384z" />
    <glyph glyph-name="uni042C" unicode="&#x42c;" horiz-adv-x="1227" 
d="M909 440q0 131 -72.5 180.5t-238.5 49.5h-199v-465h211q224 0 261.5 84.5t37.5 150.5zM166 0v1384h233v-512h219q412 0 472.5 -162t60.5 -275q0 -224 -131 -329.5t-402 -105.5h-452z" />
    <glyph glyph-name="uni042D" unicode="&#x42d;" horiz-adv-x="1294" 
d="M612 1413q615 0 615 -721q0 -361 -154.5 -541t-458.5 -180t-401 104.5t-133 160.5l188 131q61 -91 136.5 -140t180.5 -49t237.5 48.5t158.5 367.5h-627v209h625q-34 403 -371 403q-179 0 -239.5 -74t-81.5 -108l-187 135q146 254 512 254z" />
    <glyph glyph-name="uni042E" unicode="&#x42e;" horiz-adv-x="1917" 
d="M1571 690q0 120 -17 218.5t-56 167.5t-103.5 106t-202.5 37t-214.5 -135t-76.5 -394q0 -386 119.5 -456t214.5 -70t159.5 37.5t103.5 106t56 165.5t17 217zM1235 -29q-537 0 -576 619h-260v-590h-233v1384h233v-598h260q39 627 576 627q447 0 513.5 -278t66.5 -445
q0 -719 -580 -719z" />
    <glyph glyph-name="uni042F" unicode="&#x42f;" horiz-adv-x="1260" 
d="M426.5 798.5q57.5 -48.5 214.5 -48.5h219v430h-231q-141 0 -200.5 -45.5t-59.5 -166.5t57.5 -169.5zM129 983q0 216 122 308.5t376 92.5h467v-1384h-234v545h-192l-353 -545h-270l373 575q-289 61 -289 408z" />
    <glyph glyph-name="uni0430" unicode="&#x430;" horiz-adv-x="1118" 
d="M485 147q105 0 269 134v229l-150 -14q-216 -18 -268 -112q-19 -34 -19 -102q0 -66 44 -100t124 -35zM522 901q-177 0 -239 -113l-170 109q69 123 255 166q68 16 168 16q218 0 326 -81q107 -81 107 -285v-713h-205v119q-168 -150 -331 -150t-250 90t-87 236q0 257 250 325
q76 20 168 29l240 23v49q0 145 -134 171q-44 8 -98 9z" />
    <glyph glyph-name="uni0431" unicode="&#x431;" horiz-adv-x="1180" 
d="M813 757.5q-59 78.5 -177 78.5t-225 -71q-46 -32 -83 -71q-2 -23 -2 -28v-54q0 -336 112.5 -403.5t179.5 -67.5q125 0 189.5 106.5t64.5 268.5q0 163 -59 241.5zM662 1010q432 0 432 -484q0 -253 -122 -405t-349 -152q-521 0 -521 684q0 375 71 511t144.5 191t175.5 87.5
t232.5 48.5t292.5 29v-187q-279 -20 -405.5 -47.5t-202.5 -117t-82 -279.5q66 57 154.5 89t179.5 32z" />
    <glyph glyph-name="uni0432" unicode="&#x432;" horiz-adv-x="1120" 
d="M807 316q0 86 -56 116.5t-190 30.5h-199v-303h148q153 0 205 24t72 55t20 77zM362 891v-268h168q119 0 171.5 36t52.5 108t-53.5 98t-170.5 26h-168zM1028 315q0 -315 -461 -315h-417v1049h399q228 0 324 -57.5t96 -190.5q0 -90 -46.5 -149.5t-121.5 -90.5
q227 -50 227 -246z" />
    <glyph glyph-name="uni0433" unicode="&#x433;" horiz-adv-x="885" 
d="M150 1049h718v-166h-501v-883h-217v1049z" />
    <glyph glyph-name="uni0434" unicode="&#x434;" horiz-adv-x="1155" 
d="M760 885h-242q-25 -437 -182 -721h424v721zM317 1049h656v-887h155v-424h-204v262h-695v-262h-204v424h106q186 359 186 887z" />
    <glyph glyph-name="uni0435" unicode="&#x435;" horiz-adv-x="1112" 
d="M803 637q0 268 -228 268q-167 0 -219 -153q-17 -50 -26 -115h473zM606 156q144 0 230 108l165 -112q-122 -183 -407 -183q-250 1 -370 139t-120 408q0 408 255 522q91 40 215 41q233 0 338 -129q104 -129 104 -358v-113h-690q2 -243 150 -302q52 -21 130 -21z" />
    <glyph glyph-name="uni0436" unicode="&#x436;" horiz-adv-x="1536" 
d="M874 1049v-433h99q71 0 126 89t124 344h219q-91 -368 -163 -432.5t-105 -79.5q117 -46 172 -153.5t133 -383.5h-222q-79 267 -116.5 331t-79 89.5t-103.5 25.5h-84v-446h-212v446h-87q-111 0 -166 -90t-130 -356h-222q79 280 116.5 354t80.5 116t108 67q-118 52 -177 213
t-93 299h221q95 -361 156 -397t92 -36h101v433h212z" />
    <glyph glyph-name="uni0437" unicode="&#x437;" horiz-adv-x="983" 
d="M891 287q0 -318 -451 -318q-274 0 -391 187l168 110q86 -116 212 -116q115 0 180 39t65 114q0 156 -203 156h-231v164h221q105 0 140.5 19t49 43t13.5 63q0 151 -215 151q-149 0 -224 -115l-162 109q111 186 386 186q321 0 376.5 -126.5t55.5 -204.5t-42 -136.5
t-110 -83.5q110 -41 136 -118.5t26 -122.5z" />
    <glyph glyph-name="uni0438" unicode="&#x438;" horiz-adv-x="1202" 
d="M150 0v1049h198v-768l500 768h209v-1049h-197v758l-498 -758h-212z" />
    <glyph glyph-name="uni0439" unicode="&#x439;" horiz-adv-x="1202" 
d="M150 0v1049h198v-768l500 768h209v-1049h-197v758l-498 -758h-212zM953 1454q0 -116 -91 -191t-254 -75t-254 77q-90 77 -90 189h211q7 -77 37 -113t98 -36q66 -1 96 35t38 114h209z" />
    <glyph glyph-name="uni043A" unicode="&#x43a;" horiz-adv-x="1053" 
d="M362 1049v-433h142q72 0 129 91t123 342h219q-93 -369 -166 -433t-107 -79q122 -46 177 -154t131 -383h-219q-36 116 -64 200t-75 165t-165 81h-125v-446h-212v1049h212z" />
    <glyph glyph-name="uni043B" unicode="&#x43b;" horiz-adv-x="1155" 
d="M123 166q38 0 114 77t76 619v187h693v-1049h-213v883h-273v-70q0 -623 -144 -727t-226 -104t-138 22l39 168q34 -6 72 -6z" />
    <glyph glyph-name="uni043C" unicode="&#x43c;" horiz-adv-x="1352" 
d="M1200 0h-194v772l-273 -504h-115l-274 504v-772h-194v1049h233l297 -519l291 519h229v-1049z" />
    <glyph glyph-name="uni043D" unicode="&#x43d;" horiz-adv-x="1194" 
d="M1042 0h-213v457h-467v-457h-212v1049h212v-426h467v426h213v-1049z" />
    <glyph glyph-name="uni043E" unicode="&#x43e;" horiz-adv-x="1174" 
d="M846 524q0 184 -60 276q-60 91 -198 91t-200 -91q-62 -92 -62 -276t62 -276t198 -92t198 92t62 276zM952 113q-117 -144 -364 -144q-484 0 -484 553q0 406 264 518q92 38 220 39q128 -1 218 -39q92 -38 150 -110q114 -141 113 -407q0 -266 -117 -410z" />
    <glyph glyph-name="uni043F" unicode="&#x43f;" horiz-adv-x="1186" 
d="M819 0v883h-454v-883h-215v1049h884v-1049h-215z" />
    <glyph glyph-name="uni0440" unicode="&#x440;" horiz-adv-x="1194" 
d="M621 160q169 0 227 200q20 70 20 168q0 361 -231 361q-102 1 -208 -73q-31 -22 -56 -46v-508q117 -102 248 -102zM362 944q148 135 338 135t290 -146t100 -394t-99 -399q-112 -171 -323 -171q-165 0 -295 113v-477h-215v1444h204v-105z" />
    <glyph glyph-name="uni0441" unicode="&#x441;" horiz-adv-x="1044" 
d="M104 520q0 404 266 520q91 40 220 39q270 0 381 -186l-168 -113q-72 111 -211 111q-138 1 -202 -89t-64 -278t62 -278t208 -90q108 0 174 58q24 21 47 52l168 -110q-122 -187 -383 -187t-380 146q-118 147 -118 405z" />
    <glyph glyph-name="uni0442" unicode="&#x442;" horiz-adv-x="938" 
d="M922 887h-347v-887h-213v887h-346v162h906v-162z" />
    <glyph glyph-name="uni0443" unicode="&#x443;" horiz-adv-x="1063" 
d="M164 -211q54 1 80 11t63 45q36 35 80 143l31 75l-381 986h227l268 -719l273 719h221l-451 -1125q-72 -177 -155 -248t-209 -71t-223 30l49 183q73 -29 127 -29z" />
    <glyph glyph-name="uni0444" unicode="&#x444;" horiz-adv-x="1376" 
d="M1059 522q0 176 -62.5 270t-208.5 115v-766q215 34 243 165.5t28 215.5zM378 256q61 -93 210 -115v768q-149 -21 -210 -115t-61 -269q0 -176 61 -269zM588 -393v368q-379 32 -435.5 229.5t-56.5 319.5q0 251 116.5 389t375.5 162v408h200v-408q380 -35 435 -233t55 -319
q0 -249 -117 -388t-373 -160v-368h-200z" />
    <glyph glyph-name="uni0445" unicode="&#x445;" horiz-adv-x="1044" 
d="M741 0l-225 367l-233 -367h-240l354 518l-350 531h256l225 -365l232 365h241l-354 -519l354 -530h-260z" />
    <glyph glyph-name="uni0446" unicode="&#x446;" horiz-adv-x="1219" 
d="M150 0v1049h217v-885h458v885h215v-887h154v-424h-199v262h-845z" />
    <glyph glyph-name="uni0447" unicode="&#x447;" horiz-adv-x="1104" 
d="M430 334q-185 0 -264.5 86t-79.5 295v334h211v-275q0 -158 34.5 -211t146.5 -53t263 49v490h213v-1049h-213v397q-218 -63 -311 -63z" />
    <glyph glyph-name="uni0448" unicode="&#x448;" horiz-adv-x="1626" 
d="M1278 162v887h213v-1049h-1341v1049h212v-887h353v887h213v-887h350z" />
    <glyph glyph-name="uni0449" unicode="&#x449;" horiz-adv-x="1667" 
d="M150 0v1049h212v-887h351v887h213v-887h350v887h213v-887h153v-424h-200v262h-1292z" />
    <glyph glyph-name="uni044A" unicode="&#x44a;" horiz-adv-x="1229" 
d="M688 502h-147v-340h161q131 0 188.5 39.5t57.5 134.5t-60 130.5t-200 35.5zM16 887v162h525v-383h174q236 0 345 -82.5t109 -256.5t-114 -250.5t-344 -76.5h-383v887h-312z" />
    <glyph glyph-name="uni044B" unicode="&#x44b;" horiz-adv-x="1497" 
d="M508 502h-146v-340h162q132 0 188 40t56 133t-57.5 130t-202.5 37zM362 666h173q236 0 345 -82.5t109 -254.5t-110 -250.5t-349 -78.5h-380v1049h212v-383zM1135 0v1049h213v-1049h-213z" />
    <glyph glyph-name="uni044C" unicode="&#x44c;" horiz-adv-x="1049" 
d="M508 502h-146v-340h162q132 0 188 40t56 133t-57.5 130t-202.5 37zM362 666h173q236 0 345 -82.5t109 -254.5t-110 -250.5t-349 -78.5h-380v1049h212v-383z" />
    <glyph glyph-name="uni044D" unicode="&#x44d;" horiz-adv-x="1044" 
d="M459 1079q242 0 361.5 -147t119.5 -412q0 -397 -178.5 -474t-282.5 -77q-174 0 -268.5 48.5t-151.5 138.5l168 110q46 -62 98.5 -86t121.5 -24q133 0 194.5 73t73.5 220h-494v163h492q-14 144 -76.5 211.5t-160.5 67.5t-148.5 -28.5t-87.5 -82.5l-166 113
q109 186 385 186z" />
    <glyph glyph-name="uni044E" unicode="&#x44e;" horiz-adv-x="1645" 
d="M1056.5 141q272.5 0 272.5 383t-272.5 383t-272.5 -383t272.5 -383zM1062 -31q-461 0 -493 473h-209v-442h-210v1049h210v-447h209q36 477 488 477q257 0 374 -150.5t117 -406.5q0 -392 -178 -472.5t-308 -80.5z" />
    <glyph glyph-name="uni044F" unicode="&#x44f;" horiz-adv-x="1071" 
d="M309 740q0 -89 47 -123.5t179 -34.5h174v309h-179q-177 0 -199 -53.5t-22 -97.5zM94 758q0 235 159.5 263t264.5 28h402v-1049h-211v422h-164l-262 -422h-236l281 440q-234 59 -234 318z" />
    <glyph glyph-name="uni0450" unicode="&#x450;" horiz-adv-x="1112" 
d="M803 637q0 268 -228 268q-167 0 -219 -153q-17 -50 -26 -115h473zM606 156q144 0 230 108l165 -112q-122 -183 -407 -183q-250 1 -370 139t-120 408q0 408 255 522q91 40 215 41q233 0 338 -129q104 -129 104 -358v-113h-690q2 -243 150 -302q52 -21 130 -21zM569 1208
l-285 361h275l184 -361h-174z" />
    <glyph glyph-name="uni0451" unicode="&#x451;" horiz-adv-x="1112" 
d="M803 637q0 268 -228 268q-167 0 -219 -153q-17 -50 -26 -115h473zM606 156q144 0 230 108l165 -112q-122 -183 -407 -183q-250 1 -370 139t-120 408q0 408 255 522q91 40 215 41q233 0 338 -129q104 -129 104 -358v-113h-690q2 -243 150 -302q52 -21 130 -21zM462 1324
q0 -64 -30 -92q-30 -26 -100 -26t-94 31q-25 31 -25 91t27 88q26 28 96 28t98 -28t28 -92zM882 1324q0 -64 -30 -92q-30 -26 -100 -26q-68 0 -94 31t-26 91t28 88t96 28q70 0 98 -28t28 -92z" />
    <glyph glyph-name="uni0452" unicode="&#x452;" horiz-adv-x="1210" 
d="M666 885q-145 0 -299 -164v-721h-213v1210h-131v156h131v123h213v-123h290v-156h-290v-309q161 178 354 178q385 0 385 -581q0 -437 -120.5 -646t-377.5 -241l-37 170q165 41 241.5 190t76.5 491t-83.5 382.5t-139.5 40.5z" />
    <glyph glyph-name="uni0453" unicode="&#x453;" horiz-adv-x="885" 
d="M150 1049h718v-166h-501v-883h-217v1049zM517 1208h-174l184 361h274z" />
    <glyph glyph-name="uni0454" unicode="&#x454;" horiz-adv-x="1044" 
d="M104 520q0 404 178.5 481.5t307.5 77.5q270 0 381 -186l-168 -113q-72 111 -202 111q-131 0 -193.5 -67.5t-77.5 -211.5h491v-163h-491q12 -220 105 -256.5t145 -36.5q90 0 141 25t96 85l168 -110q-122 -187 -383 -187t-379.5 146.5t-118.5 404.5z" />
    <glyph glyph-name="uni0455" unicode="&#x455;" horiz-adv-x="1008" 
d="M506 901q-84 -1 -134 -33t-50 -90t42 -87q42 -28 144 -54q218 -54 301 -115q106 -79 106 -236t-115 -237t-294 -80q-307 0 -418 185l164 110q80 -117 234 -117q156 0 202 69q18 26 17 60q0 61 -52 92t-153 56q-100 24 -165 47q-224 79 -224 295q0 139 104 226t302 87
q198 1 320 -107q38 -34 62 -75l-164 -111q-78 115 -229 115z" />
    <glyph glyph-name="uni0456" unicode="&#x456;" horiz-adv-x="530" 
d="M158 0v1049h215v-1049h-215zM393 1324q1 -64 -31 -90t-101 -26t-97 30t-27 90q0 60 29 86q29 28 98 28t99 -27t30 -91z" />
    <glyph glyph-name="uni0457" unicode="&#x457;" horiz-adv-x="530" 
d="M158 0v1049h215v-1049h-215zM171 1324q0 -64 -30 -92q-29 -26 -99 -26t-95 31t-25 91t27 88t97 28t97 -28q28 -28 28 -92zM591 1324q-1 -64 -31 -92q-30 -26 -99 -26t-95 31t-25 91q-1 60 27 88t98 28t97 -28q28 -28 28 -92z" />
    <glyph glyph-name="uni0458" unicode="&#x458;" horiz-adv-x="549" 
d="M28 -211q60 0 84 13t42 48t18 156v1043h215v-1094q0 -185 -77 -268q-77 -82 -259 -82q-111 0 -205 30l50 183q72 -29 132 -29zM408 1324q0 -116 -114 -116q-86 0 -113 29t-27 89t28 88t98 28t99 -27t29 -91z" />
    <glyph glyph-name="uni0459" unicode="&#x459;" horiz-adv-x="1677" 
d="M995 502v-340h160q120 0 181 37t61 134t-59.5 133t-196.5 36h-146zM122 166q38 0 113.5 76.5t75.5 619.5v187h684v-383h172q234 0 342.5 -82.5t108.5 -255.5q0 -256 -172 -292t-285 -36h-379v885h-262v-72q0 -419 -99.5 -625t-279.5 -206q-68 0 -129 22l39 168
q33 -6 71 -6z" />
    <glyph glyph-name="uni045A" unicode="&#x45a;" horiz-adv-x="1712" 
d="M1032 481v-319h160q127 0 183.5 39.5t56.5 126.5t-56.5 120t-197.5 33h-146zM819 0v481h-457v-481h-212v1049h212v-404h457v404h213v-404h172q347 0 398 -116.5t51 -202.5q0 -172 -113 -249t-342 -77h-379z" />
    <glyph glyph-name="uni045B" unicode="&#x45b;" horiz-adv-x="1169" 
d="M674 885q-123 0 -307 -164v-721h-213v1204h-136v154h136v131h213v-131h286v-154h-286v-303q178 178 364 178q248 0 279.5 -144t31.5 -235v-700h-213v598q0 170 -21.5 213.5t-52 58.5t-81.5 15z" />
    <glyph glyph-name="uni045C" unicode="&#x45c;" horiz-adv-x="1053" 
d="M362 1049v-433h142q72 0 129 91t123 342h219q-93 -369 -205 -467q-34 -30 -68 -45q122 -45 187 -173q45 -89 121 -364h-219q-36 116 -64 200t-60 139q-62 107 -180 107h-125v-446h-212v1049h212zM579 1208h-174l184 361h274z" />
    <glyph glyph-name="uni045D" unicode="&#x45d;" horiz-adv-x="1202" 
d="M150 0v1049h198v-768l500 768h209v-1049h-197v758l-498 -758h-212zM577 1208l-285 361h275l184 -361h-174z" />
    <glyph glyph-name="uni045E" unicode="&#x45e;" horiz-adv-x="1063" 
d="M164 -211q54 1 80 11t63 45q36 35 80 143l31 75l-381 986h227l268 -719l273 719h221l-451 -1125q-72 -177 -155 -248t-209 -71t-223 30l49 183q73 -29 127 -29zM877 1454q0 -116 -91 -191t-254 -75t-254 77q-90 77 -90 189h211q7 -77 37 -113t98 -36q66 -1 96 35t38 114
h209z" />
    <glyph glyph-name="uni045F" unicode="&#x45f;" horiz-adv-x="1165" 
d="M1030 0h-342v-262h-213v262h-340v1049h215v-885h463v885h217v-1049z" />
    <glyph glyph-name="uni0490" unicode="&#x490;" horiz-adv-x="1026" 
d="M760 1634h231v-463h-590v-1171h-235v1384h594v250z" />
    <glyph glyph-name="uni0491" unicode="&#x491;" horiz-adv-x="877" 
d="M135 0v1049h508v297h211v-465h-504v-881h-215z" />
    <glyph glyph-name="Wgrave" unicode="&#x1e80;" horiz-adv-x="1794" 
d="M1393 0h-254l-246 1012l-248 -1012h-252l-338 1384h232l239 -1011l246 1011h244l250 -1017l243 1017h230zM872 1544l-285 361h275l184 -361h-174z" />
    <glyph glyph-name="wgrave" unicode="&#x1e81;" horiz-adv-x="1520" 
d="M1204 0h-196l-246 735l-248 -735h-197l-272 1049h223l170 -738l242 738h170l246 -736l164 736h215zM719 1208l-285 361h275l184 -361h-174z" />
    <glyph glyph-name="Wacute" unicode="&#x1e82;" horiz-adv-x="1794" 
d="M1393 0h-254l-246 1012l-248 -1012h-252l-338 1384h232l239 -1011l246 1011h244l250 -1017l243 1017h230zM938 1544h-174l184 361h274z" />
    <glyph glyph-name="wacute" unicode="&#x1e83;" horiz-adv-x="1520" 
d="M1204 0h-196l-246 735l-248 -735h-197l-272 1049h223l170 -738l242 738h170l246 -736l164 736h215zM826 1208h-174l184 361h274z" />
    <glyph glyph-name="Wdieresis" unicode="&#x1e84;" horiz-adv-x="1794" 
d="M1393 0h-254l-246 1012l-248 -1012h-252l-338 1384h232l239 -1011l246 1011h244l250 -1017l243 1017h230zM813 1660q0 -64 -30 -92q-29 -26 -99 -26t-95 31t-25 91t27 88t97 28t97 -28q28 -28 28 -92zM1233 1660q-1 -64 -31 -92q-30 -26 -99 -26t-95 31t-25 91
q-1 60 27 88t98 28t97 -28q28 -28 28 -92z" />
    <glyph glyph-name="wdieresis" unicode="&#x1e85;" horiz-adv-x="1520" 
d="M1204 0h-196l-246 735l-248 -735h-197l-272 1049h223l170 -738l242 738h170l246 -736l164 736h215zM679 1324q0 -64 -30 -92q-29 -26 -99 -26t-95 31t-25 91t27 88t97 28t97 -28q28 -28 28 -92zM1099 1324q-1 -64 -31 -92q-30 -26 -99 -26t-95 31t-25 91q-1 60 27 88
t98 28t97 -28q28 -28 28 -92z" />
    <glyph glyph-name="Eszett" unicode="&#x1e9e;" horiz-adv-x="1454" 
d="M723 1415q162 0 330 -43v-166q-116 0 -180 -46.5t-64 -128.5t43 -126.5t149 -82.5q194 -69 277.5 -170.5t83.5 -262.5q0 -197 -124 -307.5t-349 -110.5t-303 96.5t-109 157.5l187 127q79 -174 239 -174t190.5 74t30.5 118q0 85 -48.5 142t-155.5 96q-200 71 -273.5 163.5
t-73.5 223.5t82 213q-146 -4 -201 -74t-55 -239v-895h-233v879q0 278 97 375.5t197.5 129t262.5 31.5z" />
    <glyph glyph-name="Adotbelow" unicode="&#x1ea0;" horiz-adv-x="1313" 
d="M444 528h412l-205 623zM39 0l465 1384h303l467 -1384h-242l-106 319h-549l-105 -319h-233zM785 -255q0 -122 -116 -122q-88 0 -116 31q-27 31 -27 94t28 92t100 29q72 -1 102 -29t29 -95z" />
    <glyph glyph-name="adotbelow" unicode="&#x1ea1;" horiz-adv-x="1118" 
d="M485 147q105 0 269 134v229l-150 -14q-216 -18 -268 -112q-19 -34 -19 -102q0 -66 44 -100t124 -35zM522 901q-177 0 -239 -113l-170 109q69 123 255 166q68 16 168 16q218 0 326 -81q107 -81 107 -285v-713h-205v119q-168 -150 -331 -150t-250 90t-87 236q0 257 250 325
q76 20 168 29l240 23v49q0 145 -134 171q-44 8 -98 9zM636 -255q0 -122 -116 -122q-88 0 -116 31q-27 31 -27 94t28 92t100 29q71 -1 101 -29t30 -95z" />
    <glyph glyph-name="Ahookabove" unicode="&#x1ea2;" horiz-adv-x="1313" 
d="M444 528h412l-205 623zM39 0l465 1384h303l467 -1384h-242l-106 319h-549l-105 -319h-233zM627 1851q109 1 161 -41t52 -110q0 -110 -98 -148q-29 -12 -62 -16v-39h-112v125h32q74 0 74 56t-62 55q-62 0 -108 -29l-51 94q66 53 174 53z" />
    <glyph glyph-name="ahookabove" unicode="&#x1ea3;" horiz-adv-x="1118" 
d="M485 147q105 0 269 134v229l-150 -14q-216 -18 -268 -112q-19 -34 -19 -102q0 -66 44 -100t124 -35zM522 901q-177 0 -239 -113l-170 109q69 123 255 166q68 16 168 16q218 0 326 -81q107 -81 107 -285v-713h-205v119q-168 -150 -331 -150t-250 90t-87 236q0 257 250 325
q76 20 168 29l240 23v49q0 145 -134 171q-44 8 -98 9zM523 1516q107 0 159 -42t53 -110q0 -110 -98 -148q-29 -12 -62 -16v-39h-112v125h32q74 0 74 56t-62 55q-62 0 -108 -29l-51 94q68 54 175 54z" />
    <glyph glyph-name="Acircumflexacute" unicode="&#x1ea4;" horiz-adv-x="1313" 
d="M444 528h412l-205 623zM39 0l465 1384h303l467 -1384h-242l-106 319h-549l-105 -319h-233zM864 1724l140 283h274l-240 -283h-174zM823 1503l-164 148l-167 -148h-179l232 289h227l232 -289h-181z" />
    <glyph glyph-name="acircumflexacute" unicode="&#x1ea5;" horiz-adv-x="1118" 
d="M485 147q105 0 269 134v229l-150 -14q-216 -18 -268 -112q-19 -34 -19 -102q0 -66 44 -100t124 -35zM522 901q-177 0 -239 -113l-170 109q69 123 255 166q68 16 168 16q218 0 326 -81q107 -81 107 -285v-713h-205v119q-168 -150 -331 -150t-250 90t-87 236q0 257 250 325
q76 20 168 29l240 23v49q0 145 -134 171q-44 8 -98 9zM741 1389l140 282h274l-240 -282h-174zM700 1167l-164 152l-167 -152h-179l232 289h227l232 -289h-181z" />
    <glyph glyph-name="Acircumflexgrave" unicode="&#x1ea6;" horiz-adv-x="1313" 
d="M444 528h412l-205 623zM39 0l465 1384h303l467 -1384h-242l-106 319h-549l-105 -319h-233zM281 1724l-242 283h276l138 -283h-172zM823 1503l-164 148l-167 -148h-179l232 289h227l232 -289h-181z" />
    <glyph glyph-name="acircumflexgrave" unicode="&#x1ea7;" horiz-adv-x="1118" 
d="M485 147q105 0 269 134v229l-150 -14q-216 -18 -268 -112q-19 -34 -19 -102q0 -66 44 -100t124 -35zM522 901q-177 0 -239 -113l-170 109q69 123 255 166q68 16 168 16q218 0 326 -81q107 -81 107 -285v-713h-205v119q-168 -150 -331 -150t-250 90t-87 236q0 257 250 325
q76 20 168 29l240 23v49q0 145 -134 171q-44 8 -98 9zM158 1389l-242 282h276l138 -282h-172zM700 1167l-164 148l-167 -148h-179l232 289h227l232 -289h-181z" />
    <glyph glyph-name="Acircumflexhookabove" unicode="&#x1ea8;" horiz-adv-x="1313" 
d="M444 528h412l-205 623zM39 0l465 1384h303l467 -1384h-242l-106 319h-549l-105 -319h-233zM1174 1878q0 -110 -98 -148q-29 -12 -62 -14v-41h-113v125h33q74 0 74 58q0 53 -63 53t-107 -29l-52 94q61 54 172 54q112 0 164 -42t52 -110zM823 1503l-164 148l-167 -148h-179
l232 289h227l232 -289h-181z" />
    <glyph glyph-name="acircumflexhookabove" unicode="&#x1ea9;" horiz-adv-x="1118" 
d="M485 147q105 0 269 134v229l-150 -14q-216 -18 -268 -112q-19 -34 -19 -102q0 -66 44 -100t124 -35zM522 901q-177 0 -239 -113l-170 109q69 123 255 166q68 16 168 16q218 0 326 -81q107 -81 107 -285v-713h-205v119q-168 -150 -331 -150t-250 90t-87 236q0 257 250 325
q76 20 168 29l240 23v49q0 145 -134 171q-44 8 -98 9zM835 1694q111 0 163 -42t53 -110q0 -110 -98 -148q-29 -12 -62 -14v-41h-113v125h33q74 0 74 58q0 53 -63 53t-107 -29l-52 94q61 54 172 54zM700 1167l-164 148l-167 -148h-179l232 289h227l232 -289h-181z" />
    <glyph glyph-name="Acircumflextilde" unicode="&#x1eaa;" horiz-adv-x="1313" 
d="M444 528h412l-205 623zM39 0l465 1384h303l467 -1384h-242l-106 319h-549l-105 -319h-233zM505 2085q55 1 96 -15t77 -35t70 -35t74 -15q71 0 77 86h152q-23 -250 -248 -250q-66 -1 -108 19q-41 20 -63 33t-56 33t-78 19q-43 0 -60 -24t-20 -66h-152q10 177 139 231
q45 19 100 19zM823 1503l-164 131l-167 -131h-179l232 269h227l232 -269h-181z" />
    <glyph glyph-name="acircumflextilde" unicode="&#x1eab;" horiz-adv-x="1118" 
d="M485 147q105 0 269 134v229l-150 -14q-216 -18 -268 -112q-19 -34 -19 -102q0 -66 44 -100t124 -35zM522 901q-177 0 -239 -113l-170 109q69 123 255 166q68 16 168 16q218 0 326 -81q107 -81 107 -285v-713h-205v119q-168 -150 -331 -150t-250 90t-87 236q0 257 250 325
q76 20 168 29l240 23v49q0 145 -134 171q-44 8 -98 9zM375 1599q-43 0 -60 -24t-20 -66h-152q10 177 139 231q45 19 100 19q55 1 96 -15q42 -16 78 -35t70 -35t72 -15q71 0 78 86h152q-23 -250 -248 -250q-66 -1 -108 19q-41 20 -63 33t-56 33q-35 20 -78 19zM700 1167
l-164 142l-167 -142h-179l232 279h227l232 -279h-181z" />
    <glyph glyph-name="Acircumflexdotbelow" unicode="&#x1eac;" horiz-adv-x="1313" 
d="M444 528h412l-205 623zM39 0l465 1384h303l467 -1384h-242l-106 319h-549l-105 -319h-233zM823 1544l-164 205l-167 -205h-179l232 361h227l232 -361h-181zM783 -255q0 -122 -116 -122q-88 0 -116 31q-27 31 -27 94t28 92t100 29q72 -1 102 -29t29 -95z" />
    <glyph glyph-name="acircumflexdotbelow" unicode="&#x1ead;" horiz-adv-x="1118" 
d="M485 147q105 0 269 134v229l-150 -14q-216 -18 -268 -112q-19 -34 -19 -102q0 -66 44 -100t124 -35zM522 901q-177 0 -239 -113l-170 109q69 123 255 166q68 16 168 16q218 0 326 -81q107 -81 107 -285v-713h-205v119q-168 -150 -331 -150t-250 90t-87 236q0 257 250 325
q76 20 168 29l240 23v49q0 145 -134 171q-44 8 -98 9zM700 1208l-164 205l-167 -205h-179l232 361h227l232 -361h-181zM638 -255q0 -122 -116 -122q-88 0 -116 31q-27 31 -27 94t28 92t100 29q71 -1 101 -29t30 -95z" />
    <glyph glyph-name="Abreveacute" unicode="&#x1eae;" horiz-adv-x="1313" 
d="M444 528h412l-205 623zM39 0l465 1384h303l467 -1384h-242l-106 319h-549l-105 -319h-233zM551 1776l113 262h276l-221 -262h-168zM651 1692q85 0 130 27t59 89h158q0 -124 -90 -210q-90 -87 -254 -87t-255 87q-90 87 -90 210h158q26 -116 184 -116z" />
    <glyph glyph-name="abreveacute" unicode="&#x1eaf;" horiz-adv-x="1118" 
d="M485 147q105 0 269 134v229l-150 -14q-216 -18 -268 -112q-19 -34 -19 -102q0 -66 44 -100t124 -35zM522 901q-177 0 -239 -113l-170 109q69 123 255 166q68 16 168 16q218 0 326 -81q107 -81 107 -285v-713h-205v119q-168 -150 -331 -150t-250 90t-87 236q0 257 250 325
q76 20 168 29l240 23v49q0 145 -134 171q-44 8 -98 9zM434 1470l113 263h276l-221 -263h-168zM881 1503q0 -124 -90 -210q-90 -87 -254 -87t-255 87q-90 87 -90 210h158q26 -117 184 -117q85 0 130 28t59 89h158z" />
    <glyph glyph-name="Abrevegrave" unicode="&#x1eb0;" horiz-adv-x="1313" 
d="M444 528h412l-205 623zM39 0l465 1384h303l467 -1384h-242l-106 319h-549l-105 -319h-233zM590 1776l-221 262h274l115 -262h-168zM653 1692q85 0 130 27t59 89h158q0 -124 -90 -210q-90 -87 -254 -87t-255 87q-90 87 -90 210h158q26 -116 184 -116z" />
    <glyph glyph-name="abrevegrave" unicode="&#x1eb1;" horiz-adv-x="1118" 
d="M485 147q105 0 269 134v229l-150 -14q-216 -18 -268 -112q-19 -34 -19 -102q0 -66 44 -100t124 -35zM522 901q-177 0 -239 -113l-170 109q69 123 255 166q68 16 168 16q218 0 326 -81q107 -81 107 -285v-713h-205v119q-168 -150 -331 -150t-250 90t-87 236q0 257 250 325
q76 20 168 29l240 23v49q0 145 -134 171q-44 8 -98 9zM471 1470l-221 263h274l115 -263h-168zM881 1503q0 -124 -90 -210q-90 -87 -254 -87t-255 87q-90 87 -90 210h158q26 -117 184 -117q85 0 130 28t59 89h158z" />
    <glyph glyph-name="Abrevehookabove" unicode="&#x1eb2;" horiz-adv-x="1313" 
d="M444 528h412l-205 623zM39 0l465 1384h303l467 -1384h-242l-106 319h-549l-105 -319h-233zM640 2136q110 0 162 -42t52 -109q0 -111 -98 -148q-30 -11 -64 -14v-41h-110v125h33q73 0 73 55t-63 55t-107 -28l-51 94q64 53 173 53zM653 1692q85 0 130 27t59 89h158
q0 -124 -90 -210q-90 -87 -254 -87t-255 87q-90 87 -90 210h158q26 -116 184 -116z" />
    <glyph glyph-name="abrevehookabove" unicode="&#x1eb3;" horiz-adv-x="1118" 
d="M485 147q105 0 269 134v229l-150 -14q-216 -18 -268 -112q-19 -34 -19 -102q0 -66 44 -100t124 -35zM522 901q-177 0 -239 -113l-170 109q69 123 255 166q68 16 168 16q218 0 326 -81q107 -81 107 -285v-713h-205v119q-168 -150 -331 -150t-250 90t-87 236q0 257 250 325
q76 20 168 29l240 23v49q0 145 -134 171q-44 8 -98 9zM521 1831q109 0 161 -42t53 -110q-1 -110 -99 -147q-30 -11 -63 -14v-41h-110v125h33q73 0 73 55t-62 55t-108 -29l-51 95q64 53 173 53zM881 1503q0 -124 -90 -210q-90 -87 -254 -87t-255 87q-90 87 -90 210h158
q26 -117 184 -117q85 0 130 28t59 89h158z" />
    <glyph glyph-name="Abrevetilde" unicode="&#x1eb4;" horiz-adv-x="1313" 
d="M444 528h412l-205 623zM39 0l465 1384h303l467 -1384h-242l-106 319h-549l-105 -319h-233zM799 1858q-66 0 -108 20q-41 20 -63 32t-56 32t-78 20q-43 0 -60 -24t-20 -66h-152q10 177 139 231q45 19 100 19t96 -16t77 -34l70 -35q34 -16 74 -16q71 0 77 86h152
q-23 -249 -248 -249zM653 1686q85 0 130 28t59 90h158q0 -124 -90 -208q-90 -85 -254 -85t-255 85q-90 85 -90 208h158q26 -118 184 -118z" />
    <glyph glyph-name="abrevetilde" unicode="&#x1eb5;" horiz-adv-x="1118" 
d="M485 147q105 0 269 134v229l-150 -14q-216 -18 -268 -112q-19 -34 -19 -102q0 -66 44 -100t124 -35zM522 901q-177 0 -239 -113l-170 109q69 123 255 166q68 16 168 16q218 0 326 -81q107 -81 107 -285v-713h-205v119q-168 -150 -331 -150t-250 90t-87 236q0 257 250 325
q76 20 168 29l240 23v49q0 145 -134 171q-44 8 -98 9zM373 1657q-41 0 -58 -24t-20 -66h-152q10 177 139 231q45 19 100 19t96 -16q42 -17 78 -35t70 -34t72 -16q71 0 78 86h152q-23 -250 -248 -250q-79 0 -171 52q-35 20 -65 36t-71 17zM534 1380q85 0 130 28t59 91h158
q0 -125 -90 -209t-254 -84q-163 0 -254 84t-91 209h158q26 -119 184 -119z" />
    <glyph glyph-name="Abrevedotbelow" unicode="&#x1eb6;" horiz-adv-x="1313" 
d="M444 528h412l-205 623zM39 0l465 1384h303l467 -1384h-242l-106 319h-549l-105 -319h-233zM656 1710q158 0 186 115h158q0 -127 -91 -215t-253 -88q-163 0 -254 89t-91 214h158q29 -115 187 -115zM785 -255q0 -122 -116 -122q-88 0 -116 31q-27 31 -27 94t28 92t100 29
q72 -1 102 -29t29 -95z" />
    <glyph glyph-name="abrevedotbelow" unicode="&#x1eb7;" horiz-adv-x="1118" 
d="M485 147q105 0 269 134v229l-150 -14q-216 -18 -268 -112q-19 -34 -19 -102q0 -66 44 -100t124 -35zM522 901q-177 0 -239 -113l-170 109q69 123 255 166q68 16 168 16q218 0 326 -81q107 -81 107 -285v-713h-205v119q-168 -150 -331 -150t-250 90t-87 236q0 257 250 325
q76 20 168 29l240 23v49q0 145 -134 171q-44 8 -98 9zM536 1384q158 0 187 115h158q0 -127 -91 -215t-253 -88q-163 0 -254 89t-91 214h158q28 -115 186 -115zM638 -255q0 -122 -116 -122q-88 0 -116 31q-27 31 -27 94t28 92t100 29q71 -1 101 -29t30 -95z" />
    <glyph glyph-name="Edotbelow" unicode="&#x1eb8;" horiz-adv-x="1151" 
d="M166 0v1384h872v-208h-639v-351h543v-209h-543v-403h639v-213h-872zM723 -255q0 -122 -116 -122q-88 0 -116 31q-27 31 -27 94t28 92t100 29q72 -1 102 -29t29 -95z" />
    <glyph glyph-name="edotbelow" unicode="&#x1eb9;" horiz-adv-x="1112" 
d="M803 637q0 268 -228 268q-167 0 -219 -153q-17 -50 -26 -115h473zM606 156q144 0 230 108l165 -112q-122 -183 -407 -183q-250 1 -370 139t-120 408q0 408 255 522q91 40 215 41q233 0 338 -129q104 -129 104 -358v-113h-690q2 -243 150 -302q52 -21 130 -21zM701 -255
q0 -122 -116 -122q-88 0 -116 31q-27 31 -27 94t28 92t100 29q72 -1 102 -29t29 -95z" />
    <glyph glyph-name="Ehookabove" unicode="&#x1eba;" horiz-adv-x="1151" 
d="M166 0v1384h872v-208h-639v-351h543v-209h-543v-403h639v-213h-872zM582 1851q108 1 160 -41t53 -110q0 -110 -98 -148q-29 -12 -62 -16v-39h-112v125h32q74 0 74 56t-62 55q-62 0 -108 -29l-51 94q66 53 174 53z" />
    <glyph glyph-name="ehookabove" unicode="&#x1ebb;" horiz-adv-x="1112" 
d="M803 637q0 268 -228 268q-167 0 -219 -153q-17 -50 -26 -115h473zM606 156q144 0 230 108l165 -112q-122 -183 -407 -183q-250 1 -370 139t-120 408q0 408 255 522q91 40 215 41q233 0 338 -129q104 -129 104 -358v-113h-690q2 -243 150 -302q52 -21 130 -21zM558 1516
q108 0 160 -42t52 -110q0 -110 -98 -148q-29 -12 -62 -16v-39h-112v125h32q74 0 74 56t-62 55q-62 0 -108 -29l-51 94q68 54 175 54z" />
    <glyph glyph-name="Etilde" unicode="&#x1ebc;" horiz-adv-x="1151" 
d="M166 0v1384h872v-208h-639v-351h543v-209h-543v-403h639v-213h-872zM448 1692q-75 0 -81 -131h-152q10 205 139 268q46 22 96 22q50 -1 82 -11t57 -26q27 -16 49 -34t57 -44t71 -26q70 0 82 127h152q-23 -291 -248 -291q-104 0 -181 73q-48 45 -73 59t-50 14z" />
    <glyph glyph-name="etilde" unicode="&#x1ebd;" horiz-adv-x="1112" 
d="M803 637q0 268 -228 268q-167 0 -219 -153q-17 -50 -26 -115h473zM606 156q144 0 230 108l165 -112q-122 -183 -407 -183q-250 1 -370 139t-120 408q0 408 255 522q91 40 215 41q233 0 338 -129q104 -129 104 -358v-113h-690q2 -243 150 -302q52 -21 130 -21zM415 1356
q-75 0 -81 -131h-152q10 206 139 269q45 22 95 22t82 -10t58 -27q26 -16 48 -34q22 -19 58 -45q35 -26 71 -26q70 0 82 127h152q-23 -291 -248 -291q-104 0 -181 73q-48 45 -73 59t-50 14z" />
    <glyph glyph-name="Ecircumflexacute" unicode="&#x1ebe;" horiz-adv-x="1151" 
d="M166 0v1384h872v-208h-639v-351h543v-209h-543v-403h639v-213h-872zM803 1724l140 283h274l-240 -283h-174zM762 1503l-164 148l-167 -148h-179l232 289h227l232 -289h-181z" />
    <glyph glyph-name="ecircumflexacute" unicode="&#x1ebf;" horiz-adv-x="1112" 
d="M803 637q0 268 -228 268q-167 0 -219 -153q-17 -50 -26 -115h473zM606 156q144 0 230 108l165 -112q-122 -183 -407 -183q-250 1 -370 139t-120 408q0 408 255 522q91 40 215 41q233 0 338 -129q104 -129 104 -358v-113h-690q2 -243 150 -302q52 -21 130 -21zM782 1389
l140 282h274l-240 -282h-174zM741 1167l-164 152l-167 -152h-179l232 289h227l232 -289h-181z" />
    <glyph glyph-name="Ecircumflexgrave" unicode="&#x1ec0;" horiz-adv-x="1151" 
d="M166 0v1384h872v-208h-639v-351h543v-209h-543v-403h639v-213h-872zM220 1724l-242 283h276l138 -283h-172zM762 1503l-164 148l-167 -148h-179l232 289h227l232 -289h-181z" />
    <glyph glyph-name="ecircumflexgrave" unicode="&#x1ec1;" horiz-adv-x="1112" 
d="M803 637q0 268 -228 268q-167 0 -219 -153q-17 -50 -26 -115h473zM606 156q144 0 230 108l165 -112q-122 -183 -407 -183q-250 1 -370 139t-120 408q0 408 255 522q91 40 215 41q233 0 338 -129q104 -129 104 -358v-113h-690q2 -243 150 -302q52 -21 130 -21zM205 1389
l-242 282h276l138 -282h-172zM747 1167l-164 148l-167 -148h-179l232 289h227l232 -289h-181z" />
    <glyph glyph-name="Ecircumflexhookabove" unicode="&#x1ec2;" horiz-adv-x="1151" 
d="M166 0v1384h872v-208h-639v-351h543v-209h-543v-403h639v-213h-872zM897 2030q111 0 163 -42t53 -110q0 -110 -98 -148q-29 -12 -62 -14v-41h-113v125h33q74 0 74 58q0 53 -63 53t-107 -29l-52 94q61 54 172 54zM762 1503l-164 148l-167 -148h-179l232 289h227l232 -289
h-181z" />
    <glyph glyph-name="ecircumflexhookabove" unicode="&#x1ec3;" horiz-adv-x="1112" 
d="M803 637q0 268 -228 268q-167 0 -219 -153q-17 -50 -26 -115h473zM606 156q144 0 230 108l165 -112q-122 -183 -407 -183q-250 1 -370 139t-120 408q0 408 255 522q91 40 215 41q233 0 338 -129q104 -129 104 -358v-113h-690q2 -243 150 -302q52 -21 130 -21zM876 1694
q112 0 164 -42t52 -110q0 -110 -98 -148q-29 -12 -62 -14v-41h-113v125h33q74 0 74 58q0 53 -63 53t-107 -29l-52 94q61 54 172 54zM741 1167l-164 148l-167 -148h-179l232 289h227l232 -289h-181z" />
    <glyph glyph-name="Ecircumflextilde" unicode="&#x1ec4;" horiz-adv-x="1151" 
d="M166 0v1384h872v-208h-639v-351h543v-209h-543v-403h639v-213h-872zM748 1821q-66 -1 -108 19q-41 20 -63 33t-56 33t-78 19q-43 0 -60 -24t-20 -66h-152q10 177 139 231q45 19 100 19q55 1 96 -15q42 -16 78 -35t70 -35t72 -15q71 0 78 86h152q-23 -250 -248 -250z
M768 1503l-164 131l-167 -131h-179l232 269h227l232 -269h-181z" />
    <glyph glyph-name="ecircumflextilde" unicode="&#x1ec5;" horiz-adv-x="1112" 
d="M803 637q0 268 -228 268q-167 0 -219 -153q-17 -50 -26 -115h473zM606 156q144 0 230 108l165 -112q-122 -183 -407 -183q-250 1 -370 139t-120 408q0 408 255 522q91 40 215 41q233 0 338 -129q104 -129 104 -358v-113h-690q2 -243 150 -302q52 -21 130 -21zM721 1495
q-66 -1 -108 19q-41 20 -63 33t-56 33t-78 19q-43 0 -60 -24t-20 -66h-152q10 177 139 231q45 19 100 19q55 1 96 -15t77 -35t70 -35t74 -15q71 0 77 86h152q-23 -250 -248 -250zM741 1167l-164 142l-167 -142h-179l232 279h227l232 -279h-181z" />
    <glyph glyph-name="Ecircumflexdotbelow" unicode="&#x1ec6;" horiz-adv-x="1151" 
d="M166 0v1384h872v-208h-639v-351h543v-209h-543v-403h639v-213h-872zM768 1544l-164 205l-167 -205h-179l232 361h227l232 -361h-181zM723 -255q0 -122 -116 -122q-88 0 -116 31q-27 31 -27 94t28 92t100 29q72 -1 102 -29t29 -95z" />
    <glyph glyph-name="ecircumflexdotbelow" unicode="&#x1ec7;" horiz-adv-x="1112" 
d="M803 637q0 268 -228 268q-167 0 -219 -153q-17 -50 -26 -115h473zM606 156q144 0 230 108l165 -112q-122 -183 -407 -183q-250 1 -370 139t-120 408q0 408 255 522q91 40 215 41q233 0 338 -129q104 -129 104 -358v-113h-690q2 -243 150 -302q52 -21 130 -21zM741 1208
l-164 205l-167 -205h-179l232 361h227l232 -361h-181zM707 -255q0 -122 -116 -122q-88 0 -116 31q-27 31 -27 94t28 92t100 29q72 -1 102 -29t29 -95z" />
    <glyph glyph-name="Ihookabove" unicode="&#x1ec8;" horiz-adv-x="821" 
d="M719 0h-617v188h191v1008h-191v188h617v-188h-193v-1008h193v-188zM388 1851q108 1 160 -41t53 -110q0 -110 -98 -148q-29 -12 -62 -16v-39h-112v125h32q74 0 74 56t-62 55q-62 0 -108 -29l-51 94q66 53 174 53z" />
    <glyph glyph-name="ihookabove" unicode="&#x1ec9;" horiz-adv-x="530" 
d="M158 0v1049h215v-1049h-215zM248 1516q108 0 160 -42t52 -110q0 -110 -98 -148q-29 -12 -62 -16v-39h-112v125h32q74 0 74 56t-62 55q-62 0 -108 -29l-51 94q68 54 175 54z" />
    <glyph glyph-name="Idotbelow" unicode="&#x1eca;" horiz-adv-x="821" 
d="M719 0h-617v188h191v1008h-191v188h617v-188h-193v-1008h193v-188zM540 -255q0 -122 -116 -122q-88 0 -116 31q-27 31 -27 94t28 92t100 29q71 -1 101 -29t30 -95z" />
    <glyph glyph-name="idotbelow" unicode="&#x1ecb;" horiz-adv-x="530" 
d="M158 0v1049h215v-1049h-215zM393 1324q1 -64 -31 -90t-101 -26t-97 30t-27 90q0 60 29 86q29 28 98 28t99 -27t30 -91zM395 -255q0 -122 -116 -122q-88 0 -116 31q-27 31 -27 94t28 92t100 29q72 -1 102 -29t29 -95z" />
    <glyph glyph-name="Odotbelow" unicode="&#x1ecc;" horiz-adv-x="1364" 
d="M1018 692q0 265 -78 389q-78 125 -259 125t-259 -125t-78 -389q0 -265 79 -390q79 -124 259 -124q181 0 258 124q78 125 78 390zM102 692q0 721 580 721q448 0 548 -416q32 -134 32 -305q0 -721 -580 -721t-580 721zM809 -255q0 -122 -116 -122q-88 0 -116 31
q-27 31 -27 94t28 92t100 29q72 -1 102 -29t29 -95z" />
    <glyph glyph-name="odotbelow" unicode="&#x1ecd;" horiz-adv-x="1174" 
d="M846 524q0 184 -60 276q-60 91 -198 91t-200 -91q-62 -92 -62 -276t62 -276t198 -92t198 92t62 276zM952 113q-117 -144 -364 -144q-484 0 -484 553q0 406 264 518q92 38 220 39q128 -1 218 -39q92 -38 150 -110q114 -141 113 -407q0 -266 -117 -410zM715 -255
q0 -122 -116 -122q-88 0 -116 31q-27 31 -27 94t28 92t100 29q72 -1 102 -29t29 -95z" />
    <glyph glyph-name="Ohookabove" unicode="&#x1ece;" horiz-adv-x="1364" 
d="M1018 692q0 265 -78 389q-78 125 -259 125t-259 -125t-78 -389q0 -265 79 -390q79 -124 259 -124q181 0 258 124q78 125 78 390zM102 692q0 721 580 721q448 0 548 -416q32 -134 32 -305q0 -721 -580 -721t-580 721zM651 1851q109 1 161 -41t52 -110q0 -110 -98 -148
q-29 -12 -62 -16v-39h-112v125h32q74 0 74 56t-62 55q-62 0 -108 -29l-51 94q66 53 174 53z" />
    <glyph glyph-name="ohookabove" unicode="&#x1ecf;" horiz-adv-x="1174" 
d="M846 524q0 184 -60 276q-60 91 -198 91t-200 -91q-62 -92 -62 -276t62 -276t198 -92t198 92t62 276zM952 113q-117 -144 -364 -144q-484 0 -484 553q0 406 264 518q92 38 220 39q128 -1 218 -39q92 -38 150 -110q114 -141 113 -407q0 -266 -117 -410zM566 1516
q108 0 160 -42t52 -110q0 -110 -98 -148q-29 -12 -62 -16v-39h-112v125h32q74 0 74 56t-62 55q-62 0 -108 -29l-51 94q68 54 175 54z" />
    <glyph glyph-name="Ocircumflexacute" unicode="&#x1ed0;" horiz-adv-x="1364" 
d="M1018 692q0 265 -78 389q-78 125 -259 125t-259 -125t-78 -389q0 -265 79 -390q79 -124 259 -124q181 0 258 124q78 125 78 390zM102 692q0 721 580 721q448 0 548 -416q32 -134 32 -305q0 -721 -580 -721t-580 721zM880 1724l140 283h274l-240 -283h-174zM839 1503
l-164 148l-167 -148h-179l232 289h227l232 -289h-181z" />
    <glyph glyph-name="ocircumflexacute" unicode="&#x1ed1;" horiz-adv-x="1174" 
d="M846 524q0 184 -60 276q-60 91 -198 91t-200 -91q-62 -92 -62 -276t62 -276t198 -92t198 92t62 276zM952 113q-117 -144 -364 -144q-484 0 -484 553q0 406 264 518q92 38 220 39q128 -1 218 -39q92 -38 150 -110q114 -141 113 -407q0 -266 -117 -410zM788 1389l140 282
h274l-240 -282h-174zM747 1167l-164 152l-167 -152h-179l232 289h227l232 -289h-181z" />
    <glyph glyph-name="Ocircumflexgrave" unicode="&#x1ed2;" horiz-adv-x="1364" 
d="M1018 692q0 265 -78 389q-78 125 -259 125t-259 -125t-78 -389q0 -265 79 -390q79 -124 259 -124q181 0 258 124q78 125 78 390zM102 692q0 721 580 721q448 0 548 -416q32 -134 32 -305q0 -721 -580 -721t-580 721zM301 1724l-242 283h276l138 -283h-172zM843 1503
l-164 148l-167 -148h-179l232 289h227l232 -289h-181z" />
    <glyph glyph-name="ocircumflexgrave" unicode="&#x1ed3;" horiz-adv-x="1174" 
d="M846 524q0 184 -60 276q-60 91 -198 91t-200 -91q-62 -92 -62 -276t62 -276t198 -92t198 92t62 276zM952 113q-117 -144 -364 -144q-484 0 -484 553q0 406 264 518q92 38 220 39q128 -1 218 -39q92 -38 150 -110q114 -141 113 -407q0 -266 -117 -410zM205 1389l-242 282
h276l138 -282h-172zM747 1167l-164 148l-167 -148h-179l232 289h227l232 -289h-181z" />
    <glyph glyph-name="Ocircumflexhookabove" unicode="&#x1ed4;" horiz-adv-x="1364" 
d="M1018 692q0 265 -78 389q-78 125 -259 125t-259 -125t-78 -389q0 -265 79 -390q79 -124 259 -124q181 0 258 124q78 125 78 390zM102 692q0 721 580 721q448 0 548 -416q32 -134 32 -305q0 -721 -580 -721t-580 721zM978 2030q112 0 164 -42t52 -110q0 -110 -98 -148
q-29 -12 -62 -14v-41h-113v125h33q74 0 74 58q0 53 -63 53t-107 -29l-52 94q61 54 172 54zM843 1503l-164 148l-167 -148h-179l232 289h227l232 -289h-181z" />
    <glyph glyph-name="ocircumflexhookabove" unicode="&#x1ed5;" horiz-adv-x="1174" 
d="M846 524q0 184 -60 276q-60 91 -198 91t-200 -91q-62 -92 -62 -276t62 -276t198 -92t198 92t62 276zM952 113q-117 -144 -364 -144q-484 0 -484 553q0 406 264 518q92 38 220 39q128 -1 218 -39q92 -38 150 -110q114 -141 113 -407q0 -266 -117 -410zM882 1694
q112 0 164 -42t52 -110q0 -110 -98 -148q-29 -12 -62 -14v-41h-113v125h33q74 0 74 58q0 53 -63 53t-107 -29l-52 94q61 54 172 54zM747 1167l-164 148l-167 -148h-179l232 289h227l232 -289h-181z" />
    <glyph glyph-name="Ocircumflextilde" unicode="&#x1ed6;" horiz-adv-x="1364" 
d="M1018 692q0 265 -78 389q-78 125 -259 125t-259 -125t-78 -389q0 -265 79 -390q79 -124 259 -124q181 0 258 124q78 125 78 390zM102 692q0 721 580 721q448 0 548 -416q32 -134 32 -305q0 -721 -580 -721t-580 721zM518 1925q-43 0 -60 -24t-20 -66h-152q10 177 139 231
q45 19 100 19q55 1 96 -15t77 -35t70 -35t74 -15q71 0 77 86h152q-23 -250 -248 -250q-66 -1 -108 19q-41 20 -63 33t-56 33q-35 20 -78 19zM843 1503l-164 131l-167 -131h-179l232 269h227l232 -269h-181z" />
    <glyph glyph-name="ocircumflextilde" unicode="&#x1ed7;" horiz-adv-x="1174" 
d="M846 524q0 184 -60 276q-60 91 -198 91t-200 -91q-62 -92 -62 -276t62 -276t198 -92t198 92t62 276zM952 113q-117 -144 -364 -144q-484 0 -484 553q0 406 264 518q92 38 220 39q128 -1 218 -39q92 -38 150 -110q114 -141 113 -407q0 -266 -117 -410zM731 1495
q-66 -1 -108 19q-41 20 -63 33t-56 33t-78 19q-43 0 -60 -24t-20 -66h-152q10 177 139 231q45 19 100 19q55 1 96 -15t77 -35t70 -35t74 -15q71 0 77 86h152q-23 -250 -248 -250zM751 1167l-164 142l-167 -142h-179l232 279h227l232 -279h-181z" />
    <glyph glyph-name="Ocircumflexdotbelow" unicode="&#x1ed8;" horiz-adv-x="1364" 
d="M1018 692q0 265 -78 389q-78 125 -259 125t-259 -125t-78 -389q0 -265 79 -390q79 -124 259 -124q181 0 258 124q78 125 78 390zM102 692q0 721 580 721q448 0 548 -416q32 -134 32 -305q0 -721 -580 -721t-580 721zM841 1544l-164 205l-167 -205h-179l232 361h227
l232 -361h-181zM801 -255q0 -122 -116 -122q-88 0 -116 31q-27 31 -27 94t28 92t100 29q72 -1 102 -29t29 -95z" />
    <glyph glyph-name="ocircumflexdotbelow" unicode="&#x1ed9;" horiz-adv-x="1174" 
d="M846 524q0 184 -60 276q-60 91 -198 91t-200 -91q-62 -92 -62 -276t62 -276t198 -92t198 92t62 276zM952 113q-117 -144 -364 -144q-484 0 -484 553q0 406 264 518q92 38 220 39q128 -1 218 -39q92 -38 150 -110q114 -141 113 -407q0 -266 -117 -410zM753 1208l-164 205
l-167 -205h-179l232 361h227l232 -361h-181zM715 -255q0 -122 -116 -122q-88 0 -116 31q-27 31 -27 94t28 92t100 29q72 -1 102 -29t29 -95z" />
    <glyph glyph-name="Ohornacute" unicode="&#x1eda;" horiz-adv-x="1513" 
d="M1018 692q0 265 -78 389q-78 125 -259 125t-259 -125t-78 -389q0 -265 79 -390q79 -124 259 -124q181 0 258 124q78 125 78 390zM682 1413q384 0 512 -315h31q112 0 132 94q7 34 7 82v172h186v-172q0 -244 -160 -308q-56 -22 -137 -22h-14q23 -119 23 -252
q0 -721 -580 -721t-580 721t580 721zM707 1544h-174l184 361h274z" />
    <glyph glyph-name="ohornacute" unicode="&#x1edb;" horiz-adv-x="1300" 
d="M846 524q0 184 -60 276q-60 91 -198 91t-200 -91q-62 -92 -62 -276t62 -276t198 -92t198 92t62 276zM1069 498q0 -240 -117 -385q-117 -144 -364 -144q-484 0 -484 553q0 406 264 518q92 38 220 39q320 0 428 -256q75 0 105 41t30 135v131h186v-131q0 -314 -278 -329
q10 -68 10 -172zM617 1208h-174l184 361h274z" />
    <glyph glyph-name="Ohorngrave" unicode="&#x1edc;" horiz-adv-x="1513" 
d="M1018 692q0 265 -78 389q-78 125 -259 125t-259 -125t-78 -389q0 -265 79 -390q79 -124 259 -124q181 0 258 124q78 125 78 390zM682 1413q384 0 512 -315h31q112 0 132 94q7 34 7 82v172h186v-172q0 -244 -160 -308q-56 -22 -137 -22h-14q23 -119 23 -252
q0 -721 -580 -721t-580 721t580 721zM663 1544l-285 361h275l184 -361h-174z" />
    <glyph glyph-name="ohorngrave" unicode="&#x1edd;" horiz-adv-x="1300" 
d="M846 524q0 184 -60 276q-60 91 -198 91t-200 -91q-62 -92 -62 -276t62 -276t198 -92t198 92t62 276zM1069 498q0 -240 -117 -385q-117 -144 -364 -144q-484 0 -484 553q0 406 264 518q92 38 220 39q320 0 428 -256q75 0 105 41t30 135v131h186v-131q0 -314 -278 -329
q10 -68 10 -172zM575 1208l-285 361h275l184 -361h-174z" />
    <glyph glyph-name="Ohornhookabove" unicode="&#x1ede;" horiz-adv-x="1513" 
d="M1018 692q0 265 -78 389q-78 125 -259 125t-259 -125t-78 -389q0 -265 79 -390q79 -124 259 -124q181 0 258 124q78 125 78 390zM682 1413q384 0 512 -315h31q112 0 132 94q7 34 7 82v172h186v-172q0 -244 -160 -308q-56 -22 -137 -22h-14q23 -119 23 -252
q0 -721 -580 -721t-580 721t580 721zM672 1851q108 1 160 -41t53 -110q0 -110 -98 -148q-29 -12 -62 -16v-39h-112v125h32q74 0 74 56t-62 55q-62 0 -108 -29l-51 94q66 53 174 53z" />
    <glyph glyph-name="ohornhookabove" unicode="&#x1edf;" horiz-adv-x="1300" 
d="M846 524q0 184 -60 276q-60 91 -198 91t-200 -91q-62 -92 -62 -276t62 -276t198 -92t198 92t62 276zM1069 498q0 -240 -117 -385q-117 -144 -364 -144q-484 0 -484 553q0 406 264 518q92 38 220 39q320 0 428 -256q75 0 105 41t30 135v131h186v-131q0 -314 -278 -329
q10 -68 10 -172zM581 1516q107 0 159 -42t53 -110q0 -110 -98 -148q-29 -12 -62 -16v-39h-112v125h32q74 0 74 56t-62 55q-62 0 -108 -29l-51 94q68 54 175 54z" />
    <glyph glyph-name="Ohorntilde" unicode="&#x1ee0;" horiz-adv-x="1513" 
d="M1018 692q0 265 -78 389q-78 125 -259 125t-259 -125t-78 -389q0 -265 79 -390q79 -124 259 -124q181 0 258 124q78 125 78 390zM682 1413q384 0 512 -315h31q112 0 132 94q7 34 7 82v172h186v-172q0 -244 -160 -308q-56 -22 -137 -22h-14q23 -119 23 -252
q0 -721 -580 -721t-580 721t580 721zM524 1692q-75 0 -81 -131h-152q10 205 139 268q46 22 96 22q50 -1 82 -11t57 -26q27 -16 49 -34t57 -44t71 -26q70 0 82 127h152q-23 -291 -248 -291q-104 0 -181 73q-48 45 -73 59t-50 14z" />
    <glyph glyph-name="ohorntilde" unicode="&#x1ee1;" horiz-adv-x="1300" 
d="M846 524q0 184 -60 276q-60 91 -198 91t-200 -91q-62 -92 -62 -276t62 -276t198 -92t198 92t62 276zM1069 498q0 -240 -117 -385q-117 -144 -364 -144q-484 0 -484 553q0 406 264 518q92 38 220 39q320 0 428 -256q75 0 105 41t30 135v131h186v-131q0 -314 -278 -329
q10 -68 10 -172zM423 1356q-75 0 -81 -131h-152q10 206 139 269q45 22 95 22t82 -10t58 -27q26 -16 48 -34q22 -19 58 -45q35 -26 71 -26q70 0 82 127h152q-23 -291 -248 -291q-104 0 -181 73q-48 45 -73 59t-50 14z" />
    <glyph glyph-name="Ohorndotbelow" unicode="&#x1ee2;" horiz-adv-x="1513" 
d="M1018 692q0 265 -78 389q-78 125 -259 125t-259 -125t-78 -389q0 -265 79 -390q79 -124 259 -124q181 0 258 124q78 125 78 390zM682 1413q384 0 512 -315h31q112 0 132 94q7 34 7 82v172h186v-172q0 -244 -160 -308q-56 -22 -137 -22h-14q23 -119 23 -252
q0 -721 -580 -721t-580 721t580 721zM807 -255q0 -122 -116 -122q-88 0 -116 31q-27 31 -27 94t28 92t100 29q72 -1 102 -29t29 -95z" />
    <glyph glyph-name="ohorndotbelow" unicode="&#x1ee3;" horiz-adv-x="1300" 
d="M846 524q0 184 -60 276q-60 91 -198 91t-200 -91q-62 -92 -62 -276t62 -276t198 -92t198 92t62 276zM1069 498q0 -240 -117 -385q-117 -144 -364 -144q-484 0 -484 553q0 406 264 518q92 38 220 39q320 0 428 -256q75 0 105 41t30 135v131h186v-131q0 -314 -278 -329
q10 -68 10 -172zM713 -255q0 -122 -116 -122q-88 0 -116 31q-27 31 -27 94t28 92t100 29q72 -1 102 -29t29 -95z" />
    <glyph glyph-name="Udotbelow" unicode="&#x1ee4;" horiz-adv-x="1421" 
d="M1255 578q0 -333 -126 -471t-419 -138q-294 0 -419 139t-125 470v806h233v-786q0 -237 69 -329q69 -93 241 -93q173 0 243 92t70 326v790h233v-806zM838 -255q0 -122 -116 -122q-88 0 -116 31q-27 31 -27 94t28 92t100 29q71 -1 101 -29t30 -95z" />
    <glyph glyph-name="udotbelow" unicode="&#x1ee5;" horiz-adv-x="1190" 
d="M508 166q132 0 309 162v721h215v-1049h-215v145q-176 -176 -379 -176q-150 0 -219 94t-69 285v701h215v-598q0 -167 21 -211t51 -59t71 -15zM685 -255q0 -122 -116 -122q-88 0 -116 31q-27 31 -27 94t28 92t100 29q72 -1 102 -29t29 -95z" />
    <glyph glyph-name="Uhookabove" unicode="&#x1ee6;" horiz-adv-x="1421" 
d="M1255 578q0 -333 -126 -471t-419 -138q-294 0 -419 139t-125 470v806h233v-786q0 -237 69 -329q69 -93 241 -93q173 0 243 92t70 326v790h233v-806zM688 1851q108 1 160 -41t53 -110q0 -110 -98 -148q-29 -12 -62 -16v-39h-112v125h32q74 0 74 56t-62 55q-62 0 -108 -29
l-51 94q66 53 174 53z" />
    <glyph glyph-name="uhookabove" unicode="&#x1ee7;" horiz-adv-x="1190" 
d="M508 166q132 0 309 162v721h215v-1049h-215v145q-176 -176 -379 -176q-150 0 -219 94t-69 285v701h215v-598q0 -167 21 -211t51 -59t71 -15zM570 1516q108 0 160 -42t52 -110q0 -110 -98 -148q-29 -12 -62 -16v-39h-112v125h32q74 0 74 56t-62 55q-62 0 -108 -29l-51 94
q68 54 175 54z" />
    <glyph glyph-name="Uhornacute" unicode="&#x1ee8;" horiz-adv-x="1573" 
d="M1610 1274q0 -330 -316 -330h-39v-366q0 -333 -126 -471t-419 -138q-294 0 -419 139t-125 470v806h233v-786q0 -237 69 -329q69 -93 241 -93q173 0 243 92t70 326v790h233v-286h29q79 0 109 40t30 136v172h187v-172zM742 1544h-174l184 361h274z" />
    <glyph glyph-name="uhornacute" unicode="&#x1ee9;" horiz-adv-x="1339" 
d="M508 166q132 0 309 162v721h215v-226h23q77 0 107 40t30 136v131h184v-131q0 -329 -311 -329h-33v-670h-215v145q-176 -176 -379 -176q-150 0 -219 94t-69 285v701h215v-598q0 -167 21 -211t51 -59t71 -15zM629 1208h-174l184 361h274z" />
    <glyph glyph-name="Uhorngrave" unicode="&#x1eea;" horiz-adv-x="1573" 
d="M1610 1274q0 -330 -316 -330h-39v-366q0 -333 -126 -471t-419 -138q-294 0 -419 139t-125 470v806h233v-786q0 -237 69 -329q69 -93 241 -93q173 0 243 92t70 326v790h233v-286h29q79 0 109 40t30 136v172h187v-172zM674 1544l-285 361h275l184 -361h-174z" />
    <glyph glyph-name="uhorngrave" unicode="&#x1eeb;" horiz-adv-x="1339" 
d="M508 166q132 0 309 162v721h215v-226h23q77 0 107 40t30 136v131h184v-131q0 -329 -311 -329h-33v-670h-215v145q-176 -176 -379 -176q-150 0 -219 94t-69 285v701h215v-598q0 -167 21 -211t51 -59t71 -15zM553 1208l-285 361h275l184 -361h-174z" />
    <glyph glyph-name="Uhornhookabove" unicode="&#x1eec;" horiz-adv-x="1573" 
d="M1610 1274q0 -330 -316 -330h-39v-366q0 -333 -126 -471t-419 -138q-294 0 -419 139t-125 470v806h233v-786q0 -237 69 -329q69 -93 241 -93q173 0 243 92t70 326v790h233v-286h29q79 0 109 40t30 136v172h187v-172zM690 1851q108 1 160 -41t53 -110q0 -110 -98 -148
q-29 -12 -62 -16v-39h-112v125h32q74 0 74 56t-62 55q-62 0 -108 -29l-51 94q66 53 174 53z" />
    <glyph glyph-name="uhornhookabove" unicode="&#x1eed;" horiz-adv-x="1339" 
d="M508 166q132 0 309 162v721h215v-226h23q77 0 107 40t30 136v131h184v-131q0 -329 -311 -329h-33v-670h-215v145q-176 -176 -379 -176q-150 0 -219 94t-69 285v701h215v-598q0 -167 21 -211t51 -59t71 -15zM570 1516q108 0 160 -42t52 -110q0 -110 -98 -148
q-29 -12 -62 -16v-39h-112v125h32q74 0 74 56t-62 55q-62 0 -108 -29l-51 94q68 54 175 54z" />
    <glyph glyph-name="Uhorntilde" unicode="&#x1eee;" horiz-adv-x="1573" 
d="M1610 1274q0 -330 -316 -330h-39v-366q0 -333 -126 -471t-419 -138q-294 0 -419 139t-125 470v806h233v-786q0 -237 69 -329q69 -93 241 -93q173 0 243 92t70 326v790h233v-286h29q79 0 109 40t30 136v172h187v-172zM558 1692q-75 0 -81 -131h-152q10 205 139 268
q46 22 96 22q50 -1 82 -11t57 -26q27 -16 49 -34t57 -44t71 -26q70 0 82 127h152q-23 -291 -248 -291q-104 0 -181 73q-48 45 -73 59t-50 14z" />
    <glyph glyph-name="uhorntilde" unicode="&#x1eef;" horiz-adv-x="1339" 
d="M508 166q132 0 309 162v721h215v-226h23q77 0 107 40t30 136v131h184v-131q0 -329 -311 -329h-33v-670h-215v145q-176 -176 -379 -176q-150 0 -219 94t-69 285v701h215v-598q0 -167 21 -211t51 -59t71 -15zM438 1356q-75 0 -81 -131h-152q10 206 139 269q46 22 96 22
t82 -10t57 -27q27 -16 49 -34q22 -19 57 -45t71 -26q70 0 82 127h152q-23 -291 -248 -291q-104 0 -181 73q-48 45 -73 59t-50 14z" />
    <glyph glyph-name="Uhorndotbelow" unicode="&#x1ef0;" horiz-adv-x="1573" 
d="M1610 1274q0 -330 -316 -330h-39v-366q0 -333 -126 -471t-419 -138q-294 0 -419 139t-125 470v806h233v-786q0 -237 69 -329q69 -93 241 -93q173 0 243 92t70 326v790h233v-286h29q79 0 109 40t30 136v172h187v-172zM830 -255q0 -122 -116 -122q-88 0 -116 31
q-27 31 -27 94t28 92t100 29q71 -1 101 -29t30 -95z" />
    <glyph glyph-name="uhorndotbelow" unicode="&#x1ef1;" horiz-adv-x="1339" 
d="M508 166q132 0 309 162v721h215v-226h23q77 0 107 40t30 136v131h184v-131q0 -329 -311 -329h-33v-670h-215v145q-176 -176 -379 -176q-150 0 -219 94t-69 285v701h215v-598q0 -167 21 -211t51 -59t71 -15zM697 -255q0 -122 -116 -122q-88 0 -116 31q-27 31 -27 94t28 92
t100 29q72 -1 102 -29t29 -95z" />
    <glyph glyph-name="Ygrave" unicode="&#x1ef2;" horiz-adv-x="1167" 
d="M700 0h-235v524l-436 860h258l299 -626l303 626h248l-437 -854v-530zM567 1544l-285 361h275l184 -361h-174z" />
    <glyph glyph-name="ygrave" unicode="&#x1ef3;" horiz-adv-x="1063" 
d="M164 -211q54 1 80 11t63 45q36 35 80 143l31 75l-381 986h227l268 -719l273 719h221l-451 -1125q-72 -177 -155 -248t-209 -71t-223 30l49 183q73 -29 127 -29zM494 1208l-285 361h275l184 -361h-174z" />
    <glyph glyph-name="Ydotbelow" unicode="&#x1ef4;" horiz-adv-x="1167" 
d="M700 0h-235v524l-436 860h258l299 -626l303 626h248l-437 -854v-530zM711 -255q0 -122 -116 -122q-88 0 -116 31q-27 31 -27 94t28 92t100 29q72 -1 102 -29t29 -95z" />
    <glyph glyph-name="ydotbelow" unicode="&#x1ef5;" horiz-adv-x="1063" 
d="M164 -211q54 1 80 11t63 45q36 35 80 143l31 75l-381 986h227l268 -719l273 719h221l-451 -1125q-72 -177 -155 -248t-209 -71t-223 30l49 183q73 -29 127 -29zM902 -255q0 -122 -116 -122q-88 0 -116 31q-27 31 -27 94t28 92t100 29q71 -1 101 -29t30 -95z" />
    <glyph glyph-name="Yhookabove" unicode="&#x1ef6;" horiz-adv-x="1167" 
d="M700 0h-235v524l-436 860h258l299 -626l303 626h248l-437 -854v-530zM563 1851q109 1 161 -41t52 -110q0 -110 -98 -148q-29 -12 -62 -16v-39h-112v125h32q74 0 74 56t-62 55q-62 0 -108 -29l-51 94q66 53 174 53z" />
    <glyph glyph-name="yhookabove" unicode="&#x1ef7;" horiz-adv-x="1063" 
d="M164 -211q54 1 80 11t63 45q36 35 80 143l31 75l-381 986h227l268 -719l273 719h221l-451 -1125q-72 -177 -155 -248t-209 -71t-223 30l49 183q73 -29 127 -29zM513 1516q107 0 159 -42t53 -110q0 -110 -98 -148q-29 -12 -62 -16v-39h-112v125h32q74 0 74 56t-62 55
q-62 0 -108 -29l-51 94q68 54 175 54z" />
    <glyph glyph-name="Ytilde" unicode="&#x1ef8;" horiz-adv-x="1167" 
d="M700 0h-235v524l-436 860h258l299 -626l303 626h248l-437 -854v-530zM425 1692q-75 0 -81 -131h-152q10 205 139 268q45 22 95 22q50 -1 82 -11t58 -26t48 -34t58 -44q35 -26 71 -26q70 0 82 127h152q-23 -291 -248 -291q-104 0 -181 73q-48 45 -73 59t-50 14z" />
    <glyph glyph-name="ytilde" unicode="&#x1ef9;" horiz-adv-x="1063" 
d="M164 -211q54 1 80 11t63 45q36 35 80 143l31 75l-381 986h227l268 -719l273 719h221l-451 -1125q-72 -177 -155 -248t-209 -71t-223 30l49 183q73 -29 127 -29zM372 1356q-75 0 -81 -131h-152q10 206 139 269q46 22 96 22t82 -10t57 -27q27 -16 49 -34q22 -19 57 -45
t71 -26q70 0 82 127h152q-23 -291 -248 -291q-104 0 -181 73q-48 45 -73 59t-50 14z" />
    <glyph glyph-name="uni2010" unicode="&#x2010;" horiz-adv-x="807" 
d="M92 420v213h623v-213h-623z" />
    <glyph glyph-name="endash" unicode="&#x2013;" 
d="M41 438v174h983v-174h-983z" />
    <glyph glyph-name="emdash" unicode="&#x2014;" horiz-adv-x="2089" 
d="M41 438v174h2007v-174h-2007z" />
    <glyph glyph-name="afii00208" unicode="&#x2015;" horiz-adv-x="2089" 
d="M41 438v174h2007v-174h-2007z" />
    <glyph glyph-name="underscoredbl" unicode="&#x2017;" horiz-adv-x="1024" 
d="M-10 -392v102h1044v-102h-1044zM-10 -207v102h1044v-102h-1044z" />
    <glyph glyph-name="quoteleft" unicode="&#x2018;" horiz-adv-x="569" 
d="M285 834q-144 0 -144 148q0 122 37 228.5t86 173.5h150q-74 -98 -89 -180.5t-16 -99.5q62 -3 89.5 -35.5t27.5 -98.5t-31 -101t-110 -35z" />
    <glyph glyph-name="quoteright" unicode="&#x2019;" horiz-adv-x="569" 
d="M285 1413q141 0 141 -150q0 -177 -50.5 -274.5t-72.5 -126.5h-147q72 96 87.5 179.5t16.5 101.5q-63 2 -91 33.5t-28 81.5q0 87 33 121t111 34z" />
    <glyph glyph-name="quotesinglbase" unicode="&#x201a;" horiz-adv-x="569" 
d="M285 258q141 0 141 -150q0 -177 -50.5 -274.5t-72.5 -126.5h-147q72 96 87.5 179.5t16.5 101.5q-63 2 -91 33.5t-28 81.5q0 87 33 121t111 34z" />
    <glyph glyph-name="quotereversed" unicode="&#x201b;" horiz-adv-x="569" 
d="M141 1263q0 150 142 150q81 0 112 -36.5t31 -102.5t-27.5 -97.5t-89.5 -33.5q5 -87 41.5 -166t63.5 -115h-150q-81 112 -102 222.5t-21 178.5z" />
    <glyph glyph-name="quotedblleft" unicode="&#x201c;" horiz-adv-x="1006" 
d="M285 834q-144 0 -144 148q0 122 37 228.5t86 173.5h150q-74 -98 -89 -180.5t-16 -99.5q62 -3 89.5 -35.5t27.5 -98.5t-31 -101t-110 -35zM862 970q0 -66 -31 -101t-110 -35t-111 40t-32 108q0 120 36.5 227t85.5 175h150q-70 -93 -87 -178t-18 -102q62 -3 89.5 -35.5
t27.5 -98.5z" />
    <glyph glyph-name="quotedblright" unicode="&#x201d;" horiz-adv-x="1006" 
d="M285 1413q141 0 141 -150q0 -177 -50.5 -274.5t-72.5 -126.5h-147q72 96 87.5 179.5t16.5 101.5q-63 2 -91 33.5t-28 81.5q0 87 33 121t111 34zM721 1413q141 0 141 -150q0 -181 -50.5 -276.5t-72.5 -124.5h-147q72 96 87.5 179.5t16.5 101.5q-63 2 -90.5 33.5
t-27.5 81.5q0 86 32.5 120.5t110.5 34.5z" />
    <glyph glyph-name="quotedblbase" unicode="&#x201e;" horiz-adv-x="1006" 
d="M285 258q141 0 141 -150q0 -177 -50.5 -274.5t-72.5 -126.5h-147q72 96 87.5 179.5t16.5 101.5q-63 2 -91 33.5t-28 81.5q0 87 33 121t111 34zM721 258q141 0 141 -150q0 -181 -50.5 -276.5t-72.5 -124.5h-147q72 96 87.5 179.5t16.5 101.5q-63 2 -90.5 33.5t-27.5 81.5
q0 86 32.5 120.5t110.5 34.5z" />
    <glyph glyph-name="dagger" unicode="&#x2020;" horiz-adv-x="1114" 
d="M639 754l31 -1149h-228l31 1149l-395 -23v209l395 -22l-27 466h218l-25 -466l397 22v-209z" />
    <glyph glyph-name="daggerdbl" unicode="&#x2021;" horiz-adv-x="1096" 
d="M631 20l26 -415h-221l27 415l-377 -22v211l377 -25l-17 312l17 309l-377 -25v211l377 -22l-27 415h221l-26 -415l379 22v-211l-379 25l18 -311l-18 -310l379 25v-211z" />
    <glyph glyph-name="bullet" unicode="&#x2022;" horiz-adv-x="766" 
d="M574.5 553.5q-80.5 -80.5 -192.5 -80.5t-191.5 79.5t-79.5 192.5t80 193t192 80t192 -80t80 -192t-80.5 -192.5z" />
    <glyph glyph-name="ellipsis" unicode="&#x2026;" horiz-adv-x="2048" 
d="M1847 120q0 -134 -127 -134q-95 0 -126 33t-31 103t31.5 103t109.5 33t110.5 -32.5t32.5 -105.5zM1165 120q0 -134 -127 -134q-95 0 -126 33t-31 103t31.5 103t109.5 33t110.5 -32.5t32.5 -105.5zM483 120q0 -134 -127 -134q-95 0 -126 33t-31 103t31.5 103t109.5 33
t110.5 -32.5t32.5 -105.5z" />
    <glyph glyph-name="perthousand" unicode="&#x2030;" horiz-adv-x="2863" 
d="M565.5 1184q-32.5 71 -119.5 71q-126 0 -137.5 -112t-11.5 -214.5t31 -175.5t118 -73q127 0 139.5 111t12.5 216.5t-32.5 176.5zM1671.5 629q-32.5 71 -119.5 71q-126 0 -137.5 -112t-11.5 -216t31 -175.5t118 -71.5q127 0 139.5 111t12.5 216.5t-32.5 176.5z
M2534.5 628.5q-31.5 71.5 -119.5 71.5q-129 0 -140.5 -112t-11.5 -176t6 -116.5t23 -90.5t46.5 -59t76.5 -21t76.5 20.5t52 71.5t22.5 195.5t-31.5 216zM811 968q0 -98 -20 -179t-64 -140t-113 -92t-212.5 -33t-229.5 119t-86 324q0 320 130.5 383t229.5 63t168.5 -33
t113 -92t63.5 -140.5t20 -179.5zM717 -51h-197l766 1487h197zM1552 -31q-360 1 -360 445t360 444q365 0 365 -446q0 -316 -133 -379.5t-232 -63.5zM2052 412q0 446 362 446t363 -446q0 -316 -132.5 -379.5t-230.5 -63.5q-189 0 -275.5 118t-86.5 325z" />
    <glyph glyph-name="minute" unicode="&#x2032;" horiz-adv-x="553" 
d="M297 803h-156l39 581h242z" />
    <glyph glyph-name="second" unicode="&#x2033;" horiz-adv-x="1024" 
d="M297 803h-156l39 581h242zM768 803h-156l39 581h242z" />
    <glyph glyph-name="guilsinglleft" unicode="&#x2039;" horiz-adv-x="799" 
d="M473 53l-407 471l407 471h248l-408 -471l408 -471h-248z" />
    <glyph glyph-name="guilsinglright" unicode="&#x203a;" horiz-adv-x="799" 
d="M326 53h-248l405 471l-405 471h248l405 -471z" />
    <glyph glyph-name="exclamdbl" unicode="&#x203c;" horiz-adv-x="1139" 
d="M426 116q0 -130 -126 -130q-95 0 -127 32t-32 102t32 101q33 31 111 31t110 -32t32 -104zM377 420h-180l-33 964h239zM995 116q0 -130 -126 -130q-95 0 -127 32t-32 102t32 101t110 31t111 -32q32 -32 32 -104zM946 420h-180l-33 964h239z" />
    <glyph glyph-name="interrobang" unicode="&#x203d;" horiz-adv-x="1059" 
d="M727 1136q0 64 -42.5 114t-129.5 63l-12 -465q85 57 120 102.5t49.5 83.5t14.5 102zM600 116q0 -130 -126 -130q-95 0 -127 32t-32 102t32.5 101t110.5 31t110 -31.5t32 -104.5zM51 1290q130 230 453 230t394 -142t71 -244t-33 -175t-88.5 -131t-128.5 -104.5t-152 -90.5
v-213h-223l-16 842q-48 -29 -84 -91z" />
    <glyph glyph-name="uni203E" unicode="&#x203e;" horiz-adv-x="1024" 
d="M-10 1526v102h1044v-102h-1044z" />
    <glyph glyph-name="fraction" unicode="&#x2044;" horiz-adv-x="227" 
d="M-162 -51h-198l761 1487h203z" />
    <glyph glyph-name="zero.superior" unicode="&#x2070;" horiz-adv-x="913" 
d="M621 1076q0 144 -40.5 212t-124.5 68t-124.5 -68t-40.5 -212t40.5 -211.5t124.5 -67.5t124.5 67.5t40.5 211.5zM836 1077q0 -227 -93 -335.5t-288 -108.5t-287 107.5t-92 335.5t92 336t287 108t288 -108t93 -335z" />
    <glyph glyph-name="four.superior" unicode="&#x2074;" horiz-adv-x="913" 
d="M526 971v301l-278 -301h278zM721 821v-170h-195v170h-483v146l494 536h184v-532h121v-150h-121z" />
    <glyph glyph-name="five.superior" unicode="&#x2075;" horiz-adv-x="913" 
d="M468 1212q150 0 240.5 -69t90.5 -207q0 -218 -145.5 -260.5t-253.5 -42.5t-194 44t-138 114l170 94q62 -90 174 -90q81 0 126.5 37t45.5 106q0 123 -170 123q-83 0 -152 -49h-131l57 491h566v-160h-392l-20 -147q52 16 126 16z" />
    <glyph glyph-name="six.superior" unicode="&#x2076;" horiz-adv-x="913" 
d="M614 928q0 143 -159 143q-80 0 -150 -43q3 -194 63.5 -221t113.5 -27t92.5 35t39.5 113zM488 1214q331 0 331 -282q0 -141 -95.5 -220t-269.5 -79t-266 107t-92 315q0 322 149.5 394.5t249.5 72.5q185 0 302 -88l-111 -131q-87 69 -180 69q-166 0 -195 -201q86 43 177 43
z" />
    <glyph glyph-name="seven.superior" unicode="&#x2077;" horiz-adv-x="913" 
d="M78 1343v160h729v-129l-363 -723h-233l371 692h-504z" />
    <glyph glyph-name="eight.superior" unicode="&#x2078;" horiz-adv-x="913" 
d="M616 890q0 47 -42 79.5t-119 58.5q-76 -23 -120 -56t-44 -83t39.5 -79.5t123.5 -29.5t123 31.5t39 78.5zM596 1282q0 40 -34 67t-91 27q-90 0 -126 -25.5t-36 -53.5q0 -48 30 -73.5t118 -54.5q139 38 139 113zM645 1100q172 -68 172 -206q0 -131 -97.5 -196t-264.5 -65
q-367 0 -367 261q0 132 168 208q-143 65 -143 181t87 177.5t252 61.5t254 -60t89 -174t-150 -188z" />
    <glyph glyph-name="nine.superior" unicode="&#x2079;" horiz-adv-x="913" 
d="M438 1374q-149 0 -149 -146t163 -145q82 0 148 47q-2 116 -27.5 161.5t-56.5 64t-78 18.5zM417 940q-331 0 -331 285q0 139 96.5 218t269.5 79t265 -107.5t92 -308.5q0 -329 -150.5 -401t-251.5 -72q-182 0 -305 88l111 133q84 -72 184 -72q168 0 197 201
q-86 -43 -177 -43z" />
    <glyph glyph-name="n.superior" unicode="&#x207f;" horiz-adv-x="872" 
d="M535 1407q231 0 231 -236v-514h-178v422q0 97 -17 126t-37 37.5t-51 8.5q-84 0 -190 -96v-498h-182v729h182v-86q73 73 141 90t101 17z" />
    <glyph glyph-name="zero.inferior" unicode="&#x2080;" horiz-adv-x="913" 
d="M621 110q-1 144 -41 212t-124 68t-125 -68q-40 -68 -40 -212t40 -212q41 -68 125 -67q84 -1 124 67t41 212zM836 111q0 -227 -93 -335t-288 -109t-287 107t-92 336t92 336t287 108t288 -108t93 -335z" />
    <glyph glyph-name="one.inferior" unicode="&#x2081;" horiz-adv-x="913" 
d="M401 -315v570h-225v129q133 4 177 29q45 27 63 55t30 69h162v-852h-207z" />
    <glyph glyph-name="two.inferior" unicode="&#x2082;" horiz-adv-x="913" 
d="M442 556q156 0 242 -63t86 -192t-104 -227q-104 -99 -289 -225h424v-164h-699v160q50 37 108 79q219 160 283 229t64 128q0 107 -114 107t-187 -99l-166 99q122 168 352 168z" />
    <glyph glyph-name="three.inferior" unicode="&#x2083;" horiz-adv-x="913" 
d="M90 402q116 154 323 154q182 0 265 -63q82 -63 82 -159q0 -138 -150 -190q164 -51 164 -207q0 -200 -212 -253q-68 -17 -140 -17q-127 0 -217 43t-133 112l166 89q62 -86 170 -86q151 0 151 120q0 111 -164 111h-102v152h90q170 0 170 104q1 40 -33 64t-96 24
q-111 0 -176 -88z" />
    <glyph glyph-name="four.inferior" unicode="&#x2084;" horiz-adv-x="913" 
d="M526 5v301l-278 -301h278zM721 -145v-170h-195v170h-483v146l494 536h184v-532h121v-150h-121z" />
    <glyph glyph-name="five.inferior" unicode="&#x2085;" horiz-adv-x="913" 
d="M468 246q150 0 240 -69q91 -69 91 -207q0 -218 -219 -282q-72 -21 -180 -21t-194 44t-138 114l170 94q62 -90 174 -90q80 0 126 37t46 106q0 123 -170 123q-83 0 -152 -49h-131l57 491h566v-160h-392l-20 -147q52 16 126 16z" />
    <glyph glyph-name="six.inferior" unicode="&#x2086;" horiz-adv-x="913" 
d="M614 -38q0 143 -159 143q-80 0 -150 -43q3 -194 93 -234q30 -14 84 -14q52 0 92 35t40 113zM488 248q331 0 331 -282q0 -141 -96 -220t-269 -79q-174 0 -266 107t-92 315q0 321 222 429q78 38 177 38q185 0 302 -88l-111 -131q-87 69 -180 69q-166 0 -195 -201
q86 43 177 43z" />
    <glyph glyph-name="seven.inferior" unicode="&#x2087;" horiz-adv-x="913" 
d="M78 377v160h729v-129l-363 -723h-233l371 692h-504z" />
    <glyph glyph-name="eight.inferior" unicode="&#x2088;" horiz-adv-x="913" 
d="M616 -76q0 48 -42 80t-119 58q-76 -23 -120 -56t-44 -83q-1 -49 39 -79t124 -30t124 32q38 32 38 78zM596 316q0 40 -34 67t-91 27q-90 0 -126 -26t-36 -53q0 -48 30 -73t118 -55q139 38 139 113zM645 134q172 -68 172 -206q0 -131 -97 -196t-265 -65q-367 0 -367 261
q0 132 168 208q-143 65 -143 181q0 115 87 177t252 62t254 -60t89 -174t-150 -188z" />
    <glyph glyph-name="nine.inferior" unicode="&#x2089;" horiz-adv-x="913" 
d="M438 408q-149 0 -149 -146t163 -145q82 0 148 47q-2 116 -28 162q-25 46 -56 64t-78 18zM417 -26q-331 0 -331 285q0 139 96 218q97 79 270 79t265 -108t92 -308q-1 -330 -223 -436q-78 -38 -179 -37q-182 0 -305 88l111 133q84 -72 184 -72q168 0 197 201
q-86 -43 -177 -43z" />
    <glyph glyph-name="franc" unicode="&#x20a3;" horiz-adv-x="1272" 
d="M485 1171v-352h533v-209h-533v-250h363v-159h-363v-201h-233v201h-160v159h160v1024h864v-213h-631z" />
    <glyph glyph-name="lira" unicode="&#x20a4;" horiz-adv-x="1272" 
d="M983 1077q-95 152 -296 152q-108 0 -172 -60.5t-64 -150.5t16 -158h422v-145h-391q14 -64 14 -131h377v-146h-389q-33 -165 -127 -241h811v-197h-1078v184q146 30 173 254h-162v146h168q0 66 -17 131h-151v145h121q-17 79 -17 175q0 185 135.5 281.5t350.5 96.5
q326 0 460 -225z" />
    </font>
</defs>
</svg>
