<svg width="37" height="37" viewBox="0 0 37 37" xmlns="http://www.w3.org/2000/svg" xmlns:sketch="http://www.bohemiancoding.com/sketch/ns"><title>Oval 1 + Rectangle 23 Copy + Rectangle 23</title><desc>Created with Sketch.</desc><g sketch:type="MSLayerGroup" transform="translate(1 1)" fill="none"><circle stroke="#000" stroke-width="1.276" fill="#BFBFBF" sketch:type="MSShapeGroup" cx="17.5" cy="17.5" r="17.5"/><path d="M28.461 14.55c1.334-.696.453-2.126-5.053-5.648-12.261-7.842-12.721-3.132-8.865 5.753s-15.013 4.294-2.862 12.304c12.505 8.244 5.095-1.23 4.499-8.588-.031-.386.11-.767.328-1.114.228-.34.519-.624.884-.753 3.925-1.38 9.345-1.056 11.069-1.955z" fill="#fff" sketch:type="MSShapeGroup"/><path d="M28.461 14.55c1.334-.696.453-2.126-5.053-5.648-12.261-7.842-12.721-3.132-8.865 5.753s-15.013 4.294-2.862 12.304c12.505 8.244 5.095-1.23 4.499-8.588-.031-.386.11-.767.328-1.114.228-.34.519-.624.884-.753" stroke="#2C3E50" stroke-width="1.02" stroke-linecap="round" sketch:type="MSShapeGroup"/></g></svg>