<?xml version="1.0" encoding="UTF-8" standalone="no"?>
<svg width="10px" height="10px" viewBox="0 0 50 50" version="1.1" xmlns="http://www.w3.org/2000/svg" xmlns:xlink="http://www.w3.org/1999/xlink" xmlns:sketch="http://www.bohemiancoding.com/sketch/ns">
    <!-- Generator: Sketch 3.3.2 (12043) - http://www.bohemiancoding.com/sketch -->
    <title>Oval 1</title>
    <desc>Created with Sketch.</desc>
    <defs></defs>
    <g id="Page-1" stroke="none" stroke-width="1" fill="none" fill-rule="evenodd" sketch:type="MSPage">
        <g id="Artboard-11" sketch:type="MSArtboardGroup" transform="translate(-231.000000, -231.000000)" fill="#363B40">
            <path d="M280.999096,255.785186 C280.883721,242.076974 269.735443,231 256,231 C242.192881,231 231,242.192881 231,256 C231,269.807119 242.192881,281 256,281 C269.807119,281 281,269.807119 281,256 L280.999096,255.785186 Z M239.001761,256.738015 C238.852508,276.061209 248.223181,265.915535 255.05971,259.998796 C261.89624,254.082058 274.835826,283.817469 273.957461,255.036039 C273.079096,226.254608 261.243596,263.619166 252.927694,257.145591 C244.633893,250.689221 239.179359,237.573503 239.002708,256.629351 L239.001761,256.738015 Z" id="Oval-1" sketch:type="MSShapeGroup"></path>
        </g>
    </g>
</svg>