<?xml version="1.0" encoding="UTF-8" standalone="no"?>
<svg width="122px" height="68px" viewBox="0 0 122 68" version="1.1" xmlns="http://www.w3.org/2000/svg" xmlns:xlink="http://www.w3.org/1999/xlink" xmlns:sketch="http://www.bohemiancoding.com/sketch/ns">
    <!-- Generator: Sketch 3.3.2 (12043) - http://www.bohemiancoding.com/sketch -->
    <title>Path 256 + Path 257 + Path 258</title>
    <desc>Created with Sketch.</desc>
    <defs></defs>
    <g id="Page-1" stroke="none" stroke-width="1" fill="none" fill-rule="evenodd" sketch:type="MSPage">
        <g id="Path-256-+-Path-257-+-Path-258" sketch:type="MSLayerGroup" transform="translate(1.000000, 1.000000)" stroke="#ECF0F1" stroke-width="2" stroke-linecap="round">
            <path d="M43.2000011,17.8514279 C36.8842116,12.0685713 21.726315,-3.14285721 11.3684212,0.628571457 C4.54736857,2.89142846 21.9600894,39.2866128 22.8631588,47.5200001 C23.4057105,52.4665069 9.09473666,46.5142858 0.2526316,36.3314287 C-2.65263153,31.4285715 21.852633,26.9028572 29.8105268,26.9028572 C29.8105268,26.9028572 40.5473695,27.0285715 43.2000011,29.417143 C45.2210537,32.3085715 38.905264,39.222857 33.7263158,38.5942857 C28.6736834,37.7142858 28.294736,23.5085715 41.8105274,38.8457144 C42.8210537,39.8514287 48.2526327,31.9314287 49.6421064,31.9314287 C51.0315801,31.9314287 51.1578958,38.217143 52.4210537,37.9657144 C53.8105274,38.3428572 57.8716994,34.4892 57.8716994,34.4892 C58.2797429,34.1180331 58.8209715,34.2036162 59.1124487,34.6844757 C59.1124487,34.6844757 63.2842116,43.2457144 68.2105263,33.6914286 C74.3999973,40.7314287 79.1445799,31.5313282 79.1445799,31.5313282 C79.1751861,31.4745773 79.2108932,31.4790155 79.2277522,31.5556363 C79.2277522,31.5556363 81.5999973,42.7428572 84.8842105,42.7428571 C90.6947341,43.2457144 91.8066767,30.9139135 91.8066767,30.9139135 C91.8204298,30.7815707 91.8514854,30.780971 91.8790564,30.9315445 C91.8790564,30.9315445 98.9052659,67.8857142 86.2736842,65.8742857 C68.9684183,62.7314287 97.8947341,36.9600001 103.957895,41.36" id="Path-256" sketch:type="MSShapeGroup"></path>
            <path d="M106.179074,43.5868198 C107.29092,44.1028466 106.881608,44.9764964 106.881608,44.9764964" id="Path-257" sketch:type="MSShapeGroup"></path>
            <path d="M116.463158,28.9142858 C112.673684,27.4057143 109.127242,31.853854 109.123515,35.1219861 C109.119354,38.7710707 112.171047,42.148824 119.978914,37.9887833" id="Path-258" sketch:type="MSShapeGroup"></path>
        </g>
    </g>
</svg>